<mxfile host="app.diagrams.net" agent="Mozilla/5.0 (X11; Linux x86_64; rv:135.0) Gecko/20100101 Firefox/135.0" version="26.0.16">
  <diagram name="PÃ¡gina-1" id="nSkb7Xuq2lhSGlAf267c">
    <mxGraphModel dx="1147" dy="622" grid="1" gridSize="10" guides="1" tooltips="1" connect="1" arrows="1" fold="1" page="1" pageScale="1" pageWidth="827" pageHeight="1169" math="0" shadow="0">
      <root>
        <mxCell id="0" />
        <mxCell id="1" parent="0" />
        <mxCell id="nqaRFmGrHPNLgWUz6itO-96" value="" style="rounded=0;whiteSpace=wrap;html=1;labelBackgroundColor=none;dashed=1;" parent="1" vertex="1">
          <mxGeometry x="492.9" y="310" width="300" height="250" as="geometry" />
        </mxCell>
        <mxCell id="nqaRFmGrHPNLgWUz6itO-25" style="edgeStyle=orthogonalEdgeStyle;rounded=0;orthogonalLoop=1;jettySize=auto;html=1;entryX=0;entryY=0;entryDx=0;entryDy=0;" parent="1" source="nqaRFmGrHPNLgWUz6itO-1" target="nqaRFmGrHPNLgWUz6itO-8" edge="1">
          <mxGeometry relative="1" as="geometry" />
        </mxCell>
        <mxCell id="nqaRFmGrHPNLgWUz6itO-1" value="&lt;font&gt;Log DHCP&lt;/font&gt;" style="image;aspect=fixed;perimeter=ellipsePerimeter;html=1;align=center;shadow=0;dashed=0;spacingTop=3;image=img/lib/active_directory/generic_server.svg;perimeterSpacing=10;" parent="1" vertex="1">
          <mxGeometry x="100" y="295" width="28.000000000000004" height="50" as="geometry" />
        </mxCell>
        <mxCell id="nqaRFmGrHPNLgWUz6itO-21" style="edgeStyle=orthogonalEdgeStyle;rounded=0;orthogonalLoop=1;jettySize=auto;html=1;" parent="1" source="nqaRFmGrHPNLgWUz6itO-2" target="nqaRFmGrHPNLgWUz6itO-8" edge="1">
          <mxGeometry relative="1" as="geometry" />
        </mxCell>
        <mxCell id="nqaRFmGrHPNLgWUz6itO-2" value="&lt;font&gt;Log Firewall&lt;/font&gt;" style="image;aspect=fixed;perimeter=ellipsePerimeter;html=1;align=center;shadow=0;dashed=0;spacingTop=3;image=img/lib/active_directory/generic_server.svg;perimeterSpacing=10;" parent="1" vertex="1">
          <mxGeometry x="98" y="390" width="28.000000000000004" height="50" as="geometry" />
        </mxCell>
        <mxCell id="nqaRFmGrHPNLgWUz6itO-24" style="edgeStyle=orthogonalEdgeStyle;rounded=0;orthogonalLoop=1;jettySize=auto;html=1;entryX=0;entryY=1;entryDx=0;entryDy=0;" parent="1" source="nqaRFmGrHPNLgWUz6itO-3" target="nqaRFmGrHPNLgWUz6itO-8" edge="1">
          <mxGeometry relative="1" as="geometry" />
        </mxCell>
        <mxCell id="nqaRFmGrHPNLgWUz6itO-3" value="&lt;font&gt;Log Radius&lt;/font&gt;" style="image;aspect=fixed;perimeter=ellipsePerimeter;html=1;align=center;shadow=0;dashed=0;spacingTop=3;image=img/lib/active_directory/generic_server.svg;perimeterSpacing=10;" parent="1" vertex="1">
          <mxGeometry x="100" y="483" width="28.000000000000004" height="50" as="geometry" />
        </mxCell>
        <mxCell id="nqaRFmGrHPNLgWUz6itO-29" style="edgeStyle=orthogonalEdgeStyle;rounded=0;orthogonalLoop=1;jettySize=auto;html=1;" parent="1" source="nqaRFmGrHPNLgWUz6itO-7" target="nqaRFmGrHPNLgWUz6itO-28" edge="1">
          <mxGeometry relative="1" as="geometry" />
        </mxCell>
        <mxCell id="nqaRFmGrHPNLgWUz6itO-7" value="Redis&#xa;" style="shape=image;verticalLabelPosition=bottom;labelBackgroundColor=default;verticalAlign=top;aspect=fixed;imageAspect=0;image=https://cdn.worldvectorlogo.com/logos/redis.svg;fontSize=12;perimeterSpacing=10;" parent="1" vertex="1">
          <mxGeometry x="271" y="387.75" width="63.43" height="54.5" as="geometry" />
        </mxCell>
        <mxCell id="nqaRFmGrHPNLgWUz6itO-26" style="edgeStyle=orthogonalEdgeStyle;rounded=0;orthogonalLoop=1;jettySize=auto;html=1;entryX=0;entryY=0.5;entryDx=0;entryDy=0;" parent="1" source="nqaRFmGrHPNLgWUz6itO-8" target="nqaRFmGrHPNLgWUz6itO-7" edge="1">
          <mxGeometry relative="1" as="geometry" />
        </mxCell>
        <mxCell id="nqaRFmGrHPNLgWUz6itO-8" value="Logstash&#xa;" style="shape=image;verticalLabelPosition=bottom;labelBackgroundColor=default;verticalAlign=top;aspect=fixed;imageAspect=0;image=https://assets.zabbix.com/img/brands/logstash.svg;fontSize=12;" parent="1" vertex="1">
          <mxGeometry x="157" y="375" width="80" height="80" as="geometry" />
        </mxCell>
        <mxCell id="nqaRFmGrHPNLgWUz6itO-30" style="edgeStyle=orthogonalEdgeStyle;rounded=0;orthogonalLoop=1;jettySize=auto;html=1;" parent="1" source="nqaRFmGrHPNLgWUz6itO-13" target="nqaRFmGrHPNLgWUz6itO-15" edge="1">
          <mxGeometry relative="1" as="geometry" />
        </mxCell>
        <mxCell id="nqaRFmGrHPNLgWUz6itO-104" value="&lt;div&gt;proofLog&lt;/div&gt;" style="edgeLabel;html=1;align=center;verticalAlign=middle;resizable=0;points=[];rounded=0;strokeColor=default;fontFamily=Helvetica;fontSize=12;fontColor=default;fillColor=default;" parent="nqaRFmGrHPNLgWUz6itO-30" vertex="1" connectable="0">
          <mxGeometry x="0.0544" y="1" relative="1" as="geometry">
            <mxPoint as="offset" />
          </mxGeometry>
        </mxCell>
        <mxCell id="nqaRFmGrHPNLgWUz6itO-13" value="&lt;font&gt;Auditing Entity&lt;/font&gt;" style="image;aspect=fixed;perimeter=ellipsePerimeter;html=1;align=center;shadow=0;dashed=0;spacingTop=3;image=img/lib/active_directory/user.svg;direction=east;flipV=0;flipH=1;perimeterSpacing=10;" parent="1" vertex="1">
          <mxGeometry x="411" y="528" width="38.85" height="105" as="geometry" />
        </mxCell>
        <mxCell id="nqaRFmGrHPNLgWUz6itO-14" value="" style="shape=image;verticalLabelPosition=bottom;labelBackgroundColor=default;verticalAlign=top;aspect=fixed;imageAspect=0;image=https://marketplace-assets.digitalocean.com/logos/elasticsearch.png;fontSize=8;" parent="1" vertex="1">
          <mxGeometry x="608.15" y="233" width="69.5" height="69.5" as="geometry" />
        </mxCell>
        <mxCell id="nqaRFmGrHPNLgWUz6itO-15" value="" style="image;points=[];aspect=fixed;html=1;align=center;shadow=0;dashed=0;image=img/lib/allied_telesis/computer_and_terminals/Personal_Computer.svg;" parent="1" vertex="1">
          <mxGeometry x="563.5499999999998" y="582" width="45.6" height="61.800000000000004" as="geometry" />
        </mxCell>
        <mxCell id="nqaRFmGrHPNLgWUz6itO-28" value="Logstash&#xa;" style="shape=image;verticalLabelPosition=bottom;labelBackgroundColor=default;verticalAlign=top;aspect=fixed;imageAspect=0;image=https://assets.zabbix.com/img/brands/logstash.svg;fontSize=12;" parent="1" vertex="1">
          <mxGeometry x="367" y="375" width="80" height="80" as="geometry" />
        </mxCell>
        <mxCell id="nqaRFmGrHPNLgWUz6itO-103" style="edgeStyle=orthogonalEdgeStyle;rounded=0;orthogonalLoop=1;jettySize=auto;html=1;entryX=0.5;entryY=1;entryDx=0;entryDy=0;fontFamily=Helvetica;fontSize=12;fontColor=default;exitX=1.007;exitY=0.524;exitDx=0;exitDy=0;exitPerimeter=0;" parent="1" source="nqaRFmGrHPNLgWUz6itO-15" target="nqaRFmGrHPNLgWUz6itO-87" edge="1">
          <mxGeometry relative="1" as="geometry" />
        </mxCell>
        <mxCell id="nqaRFmGrHPNLgWUz6itO-105" value="" style="endArrow=classic;html=1;rounded=0;fontFamily=Helvetica;fontSize=12;fontColor=default;exitX=1;exitY=0.5;exitDx=0;exitDy=0;entryX=0;entryY=0.5;entryDx=0;entryDy=0;" parent="1" source="nqaRFmGrHPNLgWUz6itO-28" target="nqaRFmGrHPNLgWUz6itO-85" edge="1">
          <mxGeometry width="50" height="50" relative="1" as="geometry">
            <mxPoint x="420" y="340" as="sourcePoint" />
            <mxPoint x="450" y="310" as="targetPoint" />
          </mxGeometry>
        </mxCell>
        <mxCell id="nqaRFmGrHPNLgWUz6itO-106" value="Logs" style="edgeLabel;html=1;align=center;verticalAlign=middle;resizable=0;points=[];rounded=0;strokeColor=default;fontFamily=Helvetica;fontSize=12;fontColor=default;fillColor=default;" parent="nqaRFmGrHPNLgWUz6itO-105" vertex="1" connectable="0">
          <mxGeometry x="-0.314" y="1" relative="1" as="geometry">
            <mxPoint as="offset" />
          </mxGeometry>
        </mxCell>
        <mxCell id="nqaRFmGrHPNLgWUz6itO-112" style="edgeStyle=orthogonalEdgeStyle;rounded=0;orthogonalLoop=1;jettySize=auto;html=1;exitX=0.25;exitY=1;exitDx=0;exitDy=0;entryX=0.5;entryY=0;entryDx=0;entryDy=0;fontFamily=Helvetica;fontSize=12;fontColor=default;endArrow=none;startFill=1;startArrow=classic;" parent="1" source="nqaRFmGrHPNLgWUz6itO-14" target="nqaRFmGrHPNLgWUz6itO-85" edge="1">
          <mxGeometry relative="1" as="geometry" />
        </mxCell>
        <mxCell id="nqaRFmGrHPNLgWUz6itO-114" value="storeLogs" style="edgeLabel;html=1;align=center;verticalAlign=middle;resizable=0;points=[];rounded=0;strokeColor=default;fontFamily=Helvetica;fontSize=12;fontColor=default;fillColor=default;" parent="nqaRFmGrHPNLgWUz6itO-112" vertex="1" connectable="0">
          <mxGeometry x="0.4545" y="-1" relative="1" as="geometry">
            <mxPoint x="1" y="10" as="offset" />
          </mxGeometry>
        </mxCell>
        <mxCell id="nqaRFmGrHPNLgWUz6itO-119" style="edgeStyle=orthogonalEdgeStyle;rounded=0;orthogonalLoop=1;jettySize=auto;html=1;exitX=0.75;exitY=1;exitDx=0;exitDy=0;entryX=0.5;entryY=0;entryDx=0;entryDy=0;fontFamily=Helvetica;fontSize=12;fontColor=default;startArrow=classic;startFill=1;endArrow=none;" parent="1" source="nqaRFmGrHPNLgWUz6itO-14" target="nqaRFmGrHPNLgWUz6itO-86" edge="1">
          <mxGeometry relative="1" as="geometry" />
        </mxCell>
        <mxCell id="nqaRFmGrHPNLgWUz6itO-120" value="recoverLogs" style="edgeLabel;html=1;align=center;verticalAlign=middle;resizable=0;points=[];rounded=0;strokeColor=default;fontFamily=Helvetica;fontSize=12;fontColor=default;fillColor=default;" parent="nqaRFmGrHPNLgWUz6itO-119" vertex="1" connectable="0">
          <mxGeometry x="0.3805" relative="1" as="geometry">
            <mxPoint y="12" as="offset" />
          </mxGeometry>
        </mxCell>
        <mxCell id="nqaRFmGrHPNLgWUz6itO-109" style="edgeStyle=orthogonalEdgeStyle;rounded=0;orthogonalLoop=1;jettySize=auto;html=1;exitX=0.25;exitY=1;exitDx=0;exitDy=0;entryX=0.667;entryY=0.012;entryDx=0;entryDy=0;entryPerimeter=0;fontFamily=Helvetica;fontSize=12;fontColor=default;startArrow=classic;startFill=1;endArrow=none;" parent="1" source="nqaRFmGrHPNLgWUz6itO-86" target="nqaRFmGrHPNLgWUz6itO-87" edge="1">
          <mxGeometry relative="1" as="geometry" />
        </mxCell>
        <mxCell id="nqaRFmGrHPNLgWUz6itO-115" value="search" style="edgeLabel;html=1;align=center;verticalAlign=middle;resizable=0;points=[];rounded=0;strokeColor=default;fontFamily=Helvetica;fontSize=12;fontColor=default;fillColor=default;" parent="nqaRFmGrHPNLgWUz6itO-109" vertex="1" connectable="0">
          <mxGeometry x="-0.2134" y="-1" relative="1" as="geometry">
            <mxPoint y="5" as="offset" />
          </mxGeometry>
        </mxCell>
        <mxCell id="nqaRFmGrHPNLgWUz6itO-110" style="edgeStyle=orthogonalEdgeStyle;rounded=0;orthogonalLoop=1;jettySize=auto;html=1;exitX=0.75;exitY=1;exitDx=0;exitDy=0;entryX=0.892;entryY=0.026;entryDx=0;entryDy=0;entryPerimeter=0;fontFamily=Helvetica;fontSize=12;fontColor=default;startArrow=classic;startFill=1;endArrow=none;" parent="1" source="nqaRFmGrHPNLgWUz6itO-90" target="nqaRFmGrHPNLgWUz6itO-87" edge="1">
          <mxGeometry relative="1" as="geometry" />
        </mxCell>
        <mxCell id="nqaRFmGrHPNLgWUz6itO-118" value="proof" style="edgeLabel;html=1;align=center;verticalAlign=middle;resizable=0;points=[];rounded=0;strokeColor=default;fontFamily=Helvetica;fontSize=12;fontColor=default;fillColor=default;" parent="nqaRFmGrHPNLgWUz6itO-110" vertex="1" connectable="0">
          <mxGeometry x="0.2055" relative="1" as="geometry">
            <mxPoint y="-7" as="offset" />
          </mxGeometry>
        </mxCell>
        <mxCell id="nqaRFmGrHPNLgWUz6itO-102" value="" style="group;perimeterSpacing=10;" parent="1" vertex="1" connectable="0">
          <mxGeometry x="849" y="360.5" width="100" height="99.5" as="geometry" />
        </mxCell>
        <mxCell id="nqaRFmGrHPNLgWUz6itO-10" value="" style="image;aspect=fixed;perimeter=ellipsePerimeter;html=1;align=center;shadow=0;dashed=0;fontColor=#4277BB;labelBackgroundColor=default;fontSize=12;spacingTop=3;image=img/lib/ibm/blockchain/blockchain.svg;perimeterSpacing=4;" parent="nqaRFmGrHPNLgWUz6itO-102" vertex="1">
          <mxGeometry x="13.953488372093027" y="15.339583333333332" width="49.6875" height="49.6875" as="geometry" />
        </mxCell>
        <mxCell id="nqaRFmGrHPNLgWUz6itO-32" value="" style="shape=image;verticalLabelPosition=bottom;labelBackgroundColor=default;verticalAlign=top;aspect=fixed;imageAspect=0;image=data:image/png,iVBORw0KGgoAAAANSUhEUgAAApoAAAF3CAYAAAAFPus+AAAgAElEQVR4XuydB4AV1dn+587tdRsdBRGkqrF9pihWPgVj1GjUqLHG3jViAVQQFVSiKEUBFQsoqJhoVLAgCBpL7AWwgPS+bLm9zMz/eWbvWe+uC1v0/r+o703WZXdnzsz8zplznvOe932PQ5OPEBACQkAICAEhIASEgBAoAgFHEcqUIoWAEBACQkAICAEhIASEgCZCUxqBEBACQkAICAEhIASEQFEIiNAsClYpVAgIASEgBISAEBACQkCEprQBISAEhIAQEAJCQAgIgaIQEKFZFKxSqBAQAkJACAgBISAEhIAITWkDQkAICAEhIASEgBAQAkUhIEKzKFilUCEgBISAEBACQkAICAERmtIGhIAQEAJCQAgIASEgBIpCQIRmUbBKoUJACAgBISAEhIAQEAIiNKUNCAEhIASEgBAQAkJACBSFgAjNomCVQoWAEBACQkAICAEhIAREaEobEAJCQAgIASEgBISAECgKARGaRcEqhQoBISAEhIAQEAJCQAiI0JQ2IASEgBAQAkJACAgBIVAUAiI0i4JVChUCQkAICAEhIASEgBAQoSltQAgIASEgBISAEBACQqAoBERoFgWrFCoEhIAQEAJCQAgIASEgQlPagBAQAkJACAgBISAEhEBRCIjQLApWKVQICAEhIASEgBAQAkJAhKa0ASEgBISAEBACQkAICIGiEBChWRSsUqgQEAJCQAgIASEgBISACE1pA0JACAgBISAEhIAQEAJFISBCsyhYpVAhIASEgBAQAkJACAgBEZrSBoSAEBACQkAICAEhIASKQkCEZlGwSqFCQAgIASEgBISAEBACIjSlDQgBISAEhIAQEAJCQAgUhYAIzaJglUKFgBAQAkJACAgBISAERGhKGxACQkAICAEhIASEgBAoCgERmkXBKoUKASEgBISAEBACQkAIiNCUNiAEhIAQEAJCQAgIASFQFAIiNIuCVQoVAkJACAgBISAEhIAQEKEpbUAICAEhIASEgBAQAkKgKAREaBYFqxQqBISAEBACQkAICAEhIEJT2oAQEAJCQAgIASEgBIRAUQiI0CwKVilUCAgBISAEhIAQEAJCQISmtAEhIASEgBAQAkJACAiBohAQoVkUrFKoEBACQkAICAEhIASEgAhNaQNCQAgIASEgBISAEBACRSEgQrMoWKVQISAEhIAQEAJCQAgIARGa0gaEgBAQAkJACAgBISAEikJAhGZRsEqhQkAICAEhIASEgBAQAiI0pQ0IASEgBISAEBACQkAIFIWACM2iYJVChYAQEAJCQAgIASEgBERoShsQAkJACAgBISAEhIAQKAoBEZpFwSqFCgEhIASEgBAQAkJACIjQlDYgBISAEBACQkAICAEhUBQCIjSLglUKFQJCQAgIASEgBISAEBChKW1ACAgBISAEhIAQEAJCoCgERGgWBasUKgSEgBAQAkJACAgBISBCU9qAEBACQkAICAEhIASEQFEIiNAsClYpVAgIASEgBISAEBACQkCEprQBISAEhIAQEAJCQAgIgaIQEKFZFKxSqBAQAkJACAgBISAEhIAITWkDQkAICAEhIASEgBAQAkUhIEKzKFilUCEgBISAEBACQkAICAERmtIGhIAQEAJCQAgIASEgBIpCQIRmUbBKoUJACAgBISAEhIAQEAIiNKUNCAEhIASEgBAQAkJACBSFgAjNomCVQoWAEBACQkAICAEhIAREaEobEAJCQAgIASEgBISAECgKARGaRcEqhQoBISAEhIAQEAJCQAiI0JQ2IASEgBAQAkJACAgBIVAUAiI0i4JVChUCQkAICAEhIASEgBAQoSltQAgIASEgBISAEBACQqAoBERoFgWrFCoEhIAQEAJCQAgIASEgQlPagBAQAkJACAgBISAEhEBRCIjQLApWKVQICAEhIASEgBAQAkJAhKa0ASEgBISAEBACQkAICIGiEBChWRSsUqgQEAJCQAgIASEgBISACE1pA0JACAgBISAEhIAQEAJFISBCsyhYpVAhIASEgBAQAkJACAgBEZrSBoSAEBACQkAICAEhIASKQkCEZlGwSqFCQAgIASEgBISAEBACIjSlDQgBISAEhIAQEAJCQAgUhYAIzaJglUKFgBAQAkJACAgBISAERGhKGxACQkAICAEhIASEgBAoCgERmkXBKoUKASEgBISAEBACQkAIiNCUNiAEhIAQEAJCQAgIASFQFAIiNIuCVQoVAkJACAgBISAEhIAQEKEpbUAICAEhIASEgBAQAkKgKAREaBYFqxQqBISAEBACQkAICAEhIEJT2oAQEAJCQAgIASEgBIRAUQiI0CwKVilUCAgBISAEhIAQEAJCQISmtAEhIASEgBAQAkJACAiBohAQoVkUrFKoEBACQkAICAEhIASEgAhNaQNCQAgIASEgBISAEBACRSEgQrMoWKVQISAEhIAQEAJCQAgIARGa0gaEgBAQAkJACAgBISAEikJAhGZRsEqhQkAICAEhIASEgBAQAiI0pQ0IASEgBISAEBACQkAIFIWACM2iYJVChYAQEAJCQAgIASEgBERoShsQAkJACAgBISAEhIAQKAoBEZpFwSqFCgEhIASEgBAQAkJACIjQlDYgBISAEBACQkAICAEhUBQCIjSLglUKFQJCQAgIASEgBISAEBChKW1ACAgBISAEhIAQEAJCoCgERGgWBasUKgSEgBAQAkJACAgBISBCU9qAEBACQkAICAEhIASEQFEIiNAsClYpVAgIASEgBISAEBACQkCEprQBISAEhIAQEAJCQAgIgaIQEKFZFKxSqBAQAkJACAgBISAEhIAITWkDQkAICAEhIASEgBAQAkUhIEKzKFilUCEgBISAEBACQkAICAERmtIGhIAQEAJCQAgIASEgBIpCQITmD8BqWZaO05344neyNPFlOBwO4wcUK6cKASEgBISAEBACQuBnQUCEZiurEeKSzPQLpk711mbi/RN+Ty+X02ivJTR/eWloo5lLr+/Sqefyw484YsMhmpaG6LRaeQk5XAgIASEgBISAEBACPwsCIjRbWY1PPfWU/9na2r4Zh7VP0swMNoKu3U3NUeZOGXrQ74umcumEZZjvdigPz09sS7zXocPOayccdVS6lZeRw4WAEBACQkAICAEh8JMnIEKzFVU45f333e9/+GGPWpfr+nW1NYP9JZEKy+FwO3NZhzvr0Ewrpzn8XguL6QkjnVrpcTr/UebTZ518ynnfHOVwiNhsBWs5VAgIASEgBISAEPjpExCh2cI6fMqynG9Mm9Zzg6adlPF6L0w4HF1SybRDN3JaicevhVxeLZlMaBm3Q8tqOS0Tj+XKyyLLU7HYY+0iwcdmnHbuOllGbyFsOUwICAEhIASEgBD4WRAQodnCapxXU1P+xNNPn26GIxdtqI32iqVzzlCkBFFAMGCahubOmIgEsjTL79FMp6VlUnEYNo1cyO3+whOtvWHWRVe+CqGZa+Hl5DAhIASEgBAQAkJACPzkCYjQbEEVMgDo6pkzd1+bTN60OZo62l9R7nN7fVoskdLcToemW6bmzlmay+3Wko6slsXPXrcLYjOpZbLxaFlOu2XaxZc/0MHhiLXgcnKIEBACQkAICAEhIAR+FgREaLagGj+qqiod/+yzp2X8was2xaK7arru8Lt8GiyUmmnCSGnCqmnBmokvE8LTAFUH/m3gK5FKpL2W8UQ3V2TM9AvO+kaWz1sAXA4RAkJACAgBISAEfhYERGi2oBoXRaPtH332n39bm05dkDBypREsmbtN+GKm09SctsBkCk0KT4MZNfnB36E/tdpELOfxehZ2D5eNfeTPf1qAY5hrUz5CQAgIASEgBISAEPjZExCh2YIqfj9udb579vTrYx7PWTXpVMTlcmlaKqOFfQEtl6tzuzShH2nNhL6ENRNfTNkOpWk5dUM3jYV6InHXmR07vnbSSSdJMvcWMJdDhIAQEAJCQAgIgZ8+ARGaLajDO155pcsXmzdev9FInZkxHRGfN6A5soZmpDOax+myxaUFocklc1o0aeF05/ADhaZlmpaV+Xe5w33HCaWlc0VotgC4HCIEhIAQEAJCQAj8LAiI0GxBNT67dm3FE6/OvTTp1S/dVptsFwwGNY/DDaslrJgmYs3zS+cUmrRq8uPEAjmCzzWH05lL1Wxb1MUXGv34uecukqXzFgCXQ4SAEBACQkAICIGfBQERmi2oRu4G9I941ZE1mjHC1L175QzL6fF4tBSWz+1ldDsYCMoS/ppGfvmcQhML6Vqsuibt17QnSl3e25+6+OLlEgzUAuByiBAQAkJACAgBIfCzICBCswXVyPRGlz70ULev49VXeAPh01MOrcLh1B2626NlkEOTlksfXDV1SMssFGYOTpoGLZ1UoPHU1hKnNman7r0fwlaUtS24nBwiBISAEBACQkAICIGfBQERmi2sRohN51WzZ/deu63ynNpU+hxHabAsS6Oly6258M2PHyg408jJTvGZ1nKWnktXhp2BpwKace+s8y5haiOJOG8hbzlMCAgBISAEhIAQ+OkTEKHZijpcYFmuZ6ZO3/Pbqs0js+HAQNPvLXXAqsllcl8aSdsduhY305rD4zLS2fRar2W95YrFH7zw6mv/LXudtwK0HCoEhIAQEAI/aQJcCeQDNHYXU79XD9dadzKe39w527v2TxroT/jmRWi2svJesizvP6dOHbQiGcN2lIFjsTju8zg9WgBR5m74a0aNFALNjY1+pzZ1187dn9tryD5fneHoFG/lZeRwISAEhIAQEAI/KoG8AHPst99+zrVr13qCmYzL1b69W12kqqoq5ff73eecc07y5ptvzrRlFY7XePrpp/Ubb7wxwHJDoZCxadMmK5vN6giedZSVlfn4e6QGzOJLTyaTWA/87qPruhUOh5347mn88IlEgquCyTVr1qTxnYqTSaztD2IpnPF43P3cc8/5lixZ4qqtrXUYhpG0r4c9+XK+XPaMM85w9OjRw4lnTH/zzTfe+fPnawP3GGhUa9XaihUrjIEDB5rdu3fPgoN1wQUXNLivH7UifmGFidBsQ4W/Y1mRex6fMqjWct6biCV3CviCtjWTn5pc0oLIfOt/evS98JZDD13alhe1Dbckp/yMCaDj1s8++2zPLrvsUpe0FZ/999/fGYvFrBNPPJG/a9DhthQFzvV8+umn3urqarNfv371+V3RATuuuOIKHR1uqnE6LnbmGEScW7Zs0du3b28OGDDAxIBku4Rw8Bo9erSOTtwu65BDDjGaszw0da8jR450Pfnkk34OUN9++y2i7TQNg0MOg4+5YcMGt9frNUeMGJHC/ZuqfA5uCxcudJ5wwgmBPffc01y6dKk9WKnyU6mUPWj06tWrfmDizxxsd9pppwzuVevfv79Jnm19Z1GGD+VZf/nLX4wvvvhCf/vtt+uv70sk8oN5ef6WttnfU4FAlvdE5oUs+DvUjT3Q4v6Me++9N33ooYfW1786lm1j55139gbXBl1aH03r3LlzqwfHM888U0P7SrW03TQ+jvU1adIkH+rFUHyj0aheU1Pj2rZtm3baaael77vvPoqWBuzber199903QOEC0eF2Op0mhQlEjM06AJ78PdqmxfZT822NK+qOGmzfbDs8pvHvVTs477zzLLSzNNpAtgkrnA7+HrQrJ+qDbctknSEDiQviJkcRxfZWUlJit1O2q9122007+uijTdxLBtcw/i9T2/H9GDVqlJPvFe43kopGO3lDoU54zs5WJhPJQgAiysAKhAKV+LsDAnAT6nNVJBLZTEGYwQfPlGxJnfFa7SPtd/OV+HYHF7LMuU3Ta7lcAUfOEUF9YcCEpTPnyBlIM43Oq3G7tvBrp8NludLptMPr8msur65F43HL63abusO1KpVNvblx48Ythe9/nz59KmI1NXslM5meaAcBI2voLocr6w1g2VHXtZqqGiMYDuoQnwzmzeQyGQ87Lq/bi5CKHMuPlkXKKjPpxDaH272hoqJi9fvvv59qa3/QEla/lGNEaLaxps+YNm3P9Vr6aSNl9A74Q/auQBkjh73Oc1bY45p3aK8BZw094IDNbSxeThMCNoG77767/O9//3tviLcO6HTRX+oun8/ngmUghw7Tiw5zAwbHL+bOnbulNcg4GJSWlu6D8vbHecj2iug19YFU8Qf9Velc+l0IhTWFnTkG2a44Z18jaQR0t5XGAJVFn65hcNdwX27ckx+DbwyD1Ypzzz33a4iQVgmYjh07dsDA9jt89cZ1ol5svUXl5MT9pfGF3+mpeGpLRYeKd377299uhPBV9+3o1qXbAYlMYk/7edKmxWM5oHEKCBWC4/BDve3GflhaPHQwzELRJU2HK25lrNq0I11rJs3Kbrt1W/XBBx+0SLhBYEUgro4ys1k4Z+tJCCDdzJpep8sZQBI0v2VYtmBu+MFuYqbTqL8n+0rfXQ6KNwMOQeZQw3a2i6dPn/5FoVihyNxnn312/vzzzw/1u/xhXDOLsiw3/pPl/zDGu938SX3qnh8jbX2/D2+gNH63BaiqUd620njpxj//7c81mDy0aJLAiccll1yyB65wIK+UTqVjpsv06UjBkTVs8ZUz0sayvrv3fRcTgVa1hca02GYhGMsxyRkIJB1xz3VCHnGXqGl7ps96xiwHf3BT1FqGluVB+X/XH2MZPBmFoP1abpwM6jraeQa//gKTpY9hzUqo6/O6aONd8XUI2ksFjrOfg2wpWlgOy2N7wu8sgGf5rlAgYBoZK+MNeWM4pAr3XgPxFn/vvffiewcCm59btiz2Y4nvHb37aJveVE2qWzQT7Y772yWXyXVBW+mJBCkd8XNnl9cbrts12bZ3JtBuErl0bqtTt1alMrlNaL+VeEe+rfB4vt6Wza7bvHkz2Wx3cnvZZZd5n5k9+0/RROJsiHqn1+WN4/nDlm6VOB16CMoS+g+40Q4tB6uQIrfpj8vrQUgtPkglSGumE2eljdx76A9vXbVq1RL7JcYEhnfetWvX3rHa2MUer3uQy+kKQCSbOdNAomsLDcLpyEC0+vx++1p4PR3ZVFpzetxWKpnSvD4f6tOVSKcz0VQivgntYjXu+XNwWtG7d+9vMZlbN3PmTAnm3VFD28HfRGi2ARwb9TH33NHfCIefjcXTvfEyaU63V8ugW0shCMgdT741wBP4073nnbepDcXLKULAJsB2BiHRb926dRdjQPgdOlQ/rCMGRBz0l55Dai0Ku09w3DhYWt5t6cyb5UKw6C+//PIFRs4YQaFoGgatQg6Pz2t5XG5nbU31srJ27W7q0KHD25jV08rHzlxHp7vn+vXrb4+EI7u4dVfCBW3J8jCAcsRwQxj58bUVX/Nwf4/CIrmqpYMpni2EZzvI7/PfiIfv6/P44jlYGihivT6vZuUMdyqTwdikzwaPaRDBHGhsKxmf55V5825xezxnZNIZTyQUMVKZlKa76hLbOjAc5QelBn0eFDb/xJEugXK3Yb2uGgp+WyaVWeN2Ol50er1fg0tVc4Nrly5ddkYqszmpXNbXrqKiSrd0T8bM+q1sLoLrhjFDoJWXGc8wuKKj4Mc07SxoGDyZb7fu73UfDuIc+TPZrOFOZlKQUub9vfv2nQgrWRQWZZs5LMiur7/++nAM2aMwKO7qdrkxTqb1QCDI01Gn9XOH757dhNjSKbrrroPtcashBLbG4rVb/YHAhq3btn3iSDk+69qr6zK0qW3N1R1FxQMPPHBmwOe/Fm0xhHbAdkmrEfpEl55NZzL4PgftdQyskD9o4k1Re+GFF/bFfd+ESdcBWBLVIWzrnoRPyLzFdYIp/3j4gfqPv6zz6uNz8+/ULji87ji0F1rhnVAlMZfHOSMQCk0F13UFEywd1xqIdnAPBEx3uEihXrI6znegrYKo2pwDae6cTvtauAD0jWkGvYGMx++J850wc1aVYWTWo7JXJWoSXxgu41vw2tS3b9/oggUL0s2xrn+oFv4Dllkn3vESlLsX7msIVPW+ukvvFY/FIrh/D6yvXJ5G88P9Yp7JRmMLZTQdLGcbFHaYNBp4jhSE2ucQm0vBfVFpIPBpjz59vuXEoSl/SVy3ZMH8BVdEo7XXoHwvBB8tvpxoOVG+3RbRRux6stMD7uADQyonTJzEamDFCbGxdfPmN72ewHWVtZX/4TOq96E8VL67063dgtnZYFzHw3zX7NPYMnAuJ5X2Tn78jp/t/NeqbE7icS17QsJr4Oec2+NOBLyBFYlU/N+48dcgNv/zySef2BP6H7uuWlilP9nDRGi2serOe2TqgOWJxBynw9nH44crigXTfCKmZXTT6hQIz/t1125nDx80SIRmG/nKabbQ1LEUui86+NHwNzoMnSeXCu2OUg2mGACX4u9XYan25ZYyUyIFfkyXRELhu7j8x4GG5fI7BhmMOtrnGKSvRvlvYokwP5prGpctly9ffoKRy13r1J39fAE/Byp7kGJuWXbclZWVGgaxDfj5fpw/BUvAzQoMlrtuxYpDIE+uhSXsAIhfF5+RhiIORrwvDHxYDct9g7IPW7169YZGz+sI+oOTS0oiZ+P3HlqbCo20PLZQgKhzOeBQyPLeeQ6Erv0MYGHCQsn+sbqstPwF7AM2DZzeh28Yl9K+twQc1rQ+KafrXSy3RTBgmagntZTbZLWoe1Hf+Zy2Osx/+DOLgK+YhvuIQwQ+EAgGxmLSUamOwVKud8lnS4ZU11aPzmYzA3r17MXB0n5OnstBtc7QZg+MDb6rMvis/OLyM9wLLDw/LbxUHfNhoXzM68i+vCEarWxqEsN2hMHXh3u8CAJseCQcLmdd8bosk/eBdpvs1Knjg16/f9SyZcvq772lbbXwOL4PnTp16o97uQ91dRCe1enFqiifzRaOFHf5DTQUVyWgCvkWHqfqnT55EIfV4YD/QZjNJ2AytUZdG8e7YS0bgnY9Fha5fpgQ2XwVa5bB6/Bn3ku+6utvnb9TdUFXAs7Y2BxxXMbt9XwNkfsS6vhNrBZ8gHa/VU3s2sKI59CCiYnRzqiDo3HtP6NlUWi6KdZo5cc7qVFYqfdDtRHWGX+n3jmWpZ6R7QOMTDyHw+v3rbAMYzYOfB7vzxJYmGOFgvP8888PPDFjBiYe5rV4Z/zl5eX17SFvBVbW4PotnLf3rGRLdmTIe6MROpvLzkffdD2W8j/FBNMNoZnh9fHu9cP93oS1nmNwTbwyyPeCPq2wXtg+C59X9S3q+ryW4sJrkhP7BC6oYCL6tpW1bh96w9AFWKn5nhtLW+vrl3CeCM021vJpM2b035KsmQm/jr1CwYgWxlc8mdBq03GrwuOde/DOPc4eeuSRzQ6wbby8nPYLIMCBFQP5fhAAw9HpHQnLuZcdJwcMiiN2mPj6GD9fiUH8jdYgoV/dXXfddSmsl+PoW8bBkYMAv8O3zkSn+gl8QIdiUK0XmuzMqVmw5L4LLDnn19bUnAFrVScMkA51PxCptmjDfWXRQb+D+74NlqxXmxIq6n5pqULwQW+3031GJpM+E0KyEwYJB8theXxeDtAoD1YmfeLf4tFxN2MxjYIvf0+2lmpfXj4xGAr/FYOHh4OLbakt8AhoJFrqf+QAy+fm+A/WtrAlWzy/bblAWZsDoeAbWk57oGv3ru9CCCQbi00w7AMR8i4KLcHyv102771QdBQKSXXxwkFN/V0JRd4Hy4BoQDCh4wFnOnlH1LK2qnNh3fRUba0aksmlb/V6vAMw0NqDor1cjq/Gg6YNqUDM8mclusiAf+Nzsy7BIQ3r9pcu3TUNFtBncA+bG9ch2yf9FhctXHgx6mU47qeM7dP2q4OAh8gk/7jL43487Ajf+NX6r+rvvTVttfBYCM0BqJcJeNaDcD9O5i4u5KaeR52jBOb2hCb5s52AG+t5Yy5nPODxeaY3FprtI5HBpts9BtcbQKHGa7JuWEdKrJC3+ijByevCB1pD+7AFD4UL64YTCDLCE2DOltuGNr4K9/BPWP9ewTMsgf9horVWM9YHrNw+WKL7Btz+87JWDkvIzh5c3uc98h7UBITX5v2odq/4FLZH/pv3qt4PiGH7HPpsutzuzeh9FutufTzu9b2C57bgkxt5de7cq2tqaq8theCjMFfCFisM9eWRF96ZBk2hcftUVkjVphOxBPxFU68jheB14PoJJqhuurfw2dE/DsBzDoMV/Vhc06+spY3bh7og2wrLRX9ntwF+8f3nfbHPUcKb9ccy8OyGy6k/A8fwm9C2v25t/bS1zf8czhOh2cZaPPGBB/rXOLVZWCrbA/2dFoJVkw0zkU1ZHTyel3670y7niNBsI1w5zSaghCYE140Y1I7Azx66aajlJA4W+NvHGBCuhNWxVUKTS04vvfTS5UF/4C4KTWUlzVtqTDhZfgr/wmsaWzQp7LhkiyWk3+H61+PaB7Vr1w6bX2m2uMj7kda9C4nENnTkd+Pep0IcNOlDmrdEhHH9kyAZLgkGAv257MX74EDHwYKCBefHIXwWYhD4Gz7LCy0KSgB36thpXDqVuhhCGLfitQcMZdnaXpPiNZTVhMeq83j//Df/zoEIa9e1Vs6a53Y5pmzcunVBnWb7Li8uju2JtdIP4GpQoiy7vHeWyUGq8KtQjChLnPq7+lkJfwqSmqqqKPzopsJ94E4VAMFnZnAH/HcHY2AdC8vRAAoJXjsv9ux/7+hTeC0lMpVFkM8MfibawLtep2/aAYcc8BwsR3URTPkP2xCsWe7//Oc/F0MwjMCz001AR/u0Jwm0bOOTgIfHtIr2FaN/qEWThXXr1m0ABM9EWAEHUmhiolTPtlBAKHGhvisrljqmsTUPz2qhjW2ChX66s7Z2yrfV1asKynNB4A6pqaoeAwEyABMh+5qqfpW4tV2C6/w269su2yCPU1ZzihkKNtYVhaqBHeVYx7gfE2WvxO/eRt3/E5OVhV991TphftWJV/kfee2R/WBdPj6VTJ6Mcjqzv8gvO9vXU+KKgkq1UzXJUKJTPRu/K5BytSMAACAASURBVNHF4/MWUW3r1q11Vna393Xd6R7NJWw14aP4uuqqq/z3T5hwLer9Oliy/WBXf21MTOsFrj0RytXHINq4GwtNtYKjhDCum3O7nG9A7A1F2/uoQGg6Old07p80kjfSook6si2a7I/IX1k286sV9VZS8lDvCS36+XfIoepWrSxw0snJCCypqz0ObZjpcj1PS64MVS0jIEKzZZy+d9RpDz/cf3M2OQvpM/fwYEDCzBFxhdhyMhGD0PS99NvuIjTbiFZOyxNg541An/1z6fRNbo93EDpLNDWvPetWHwyMH+O4K+FTtqg1M+xCoUn/SiWq2LGic7aiNTVfeHTHNZEOHRYWLp2r60JUdMTgeYLf7bkADoX9ufzOv7FDV8vWGBQMdMzvZ9PZ+2piNbPw5+8FEDDy/dVXX+2HBbGr3br7xEAk5Oe9qMGa9wNrpoER6OOAxz21S/fuM2DBqA/U4DWV0GxfVjYOQ9XFwXDYy4GCgxYHEg4uyrqhfi4UBDyOTPk7Dk5q2VdZBXkPGKRp8YrCmPNwh06drgfvBlHUGPC6ffrxJ5/A0lZKIaJ8wZRgVoM5BQdFDsZf+zr8oi9ZPpjKxsuJBAd1fjhQQmgngqHQQy6363YYFjepeqZV+s477xwMR7uxkLIDuERZaL1R4orXU8KZ11EDsFr+5fUgzm1GFCPk76qz6Fq4fsLv970Wq6oa26N/f6D/LjhKCc1333z3ErfPNRzXLyNfPhsH5rz1K4Egi2lIFXALljobCNW2vOi0aILtRCyZD6R/oSdvfeZzF4qJQiFJDvllV/sZleWR59BpM//cDB6rQZTKzLIO5X//8ssvvy0UmrCQDUEbGQNBPQBWx/o2rsQZ60mJMX5n2Ur0kwnrk1/8vbKUqTaqVgMgzHGolYIYexd/G9+zZ89XG7f17THjpBSTwj1w3kXgMBj3uTNEk64mE2xjrBPy4oeTANyP5fa5czgmQ6GLe4Nbos+JNuDE0jjchp32hEH1OfyezRjalk1bauDE8w52wHsEDsYvY1JSVXhfFJrTpkwbCneOG/Au+DARtduxmszm+4cM3VPop0yfXl4+Lyot+OJYqfxyOcslt/zqAH0nY3CfWYRjR+Jd+LTAR5NuRv3wjDfilGPKS8v8aoWGz402ySwFSfRJlSgvnslmaL13m4gygh2fntMoEtM5t7cCv/ezT2E7ZltR/Rn/XVVZE3N7XE+A24RZs2YtayoTRFva9c/9HBGabaxhCs0t6fTshGHuDp8V5NDUMagZWjKRtDp6PS/tLxbNNpKV0woGuLzQzN0M77PD8XtbaCqfJR4HK9/H6ISvhO9gq4Rmfun8slAgeBeFpvIzy4suCM3oCtgVh+7Ss+fLTQ12XO6+6KKLdtOy1kUIejklFAy2o8O9EnBKMKFjZyTLC+jcz65bAm7oSI9Bm359ZyIY+q+609XP4/PphR07l4LxvFvwnDMhuCZhEF/elKDmQAsRMs7MGBdj6RNBpHVCjZ+81TKLc7ncF/cGvGY6kdYzRp3VMhGPe8CwFNe1fQg4wCgLH8/nYK18NyFdX0fepTMY8c4gBHWNXXfdtdu6NWs/waBaymtzYKWgU0v4sAKZXHrLW5E4mNvXzvuIWvx9flmVgpaDvwlrlAP37ESwSS2iKR6MlJTcUxhQgzrw/PWvfx0C58LbcJMDOKBTVHFAt9sGoulxnRqf31eFKCEYuRJOlIFULibTxljJRAIREVp78A1DENgDq7IAQ2jYZUBEWEY2uzJcVjoBgVhPwoqzkayJhQFYeYvmJVhSHg4rXBlFFD8UDRzgUfb/F6HJa/K9wHNhzoKobwS3samRPwNQqODYbmi1YjvFsXbmhhwCP3Cvts8tjqt2WvoMp999N+qr3gcYp7qQrmdILB0dQ8sxhSbrmG1CLZvTh9GeoMGvVy3Ho73a9YpjyZZ1adcNOStLmRJfPE4treO4KAJ3ZrldnvGXX3P5V835A1JswQ86ACF/Dp7rKrjbdM2k0nyn7YCbPAO7XpDSx65TCP+oaeTgymBtLikp3YxrZpwep+52eCvwXpSgsVTAgaQD/KW5imLrBD5XKpmhL+s7iDQbn3WY8/GM3wsYU0IzlUo2EJqqXdA3FUvgyxCWsxXTQbzvDEF3oU7oCu60gkGftWVrlRUuCaFO6zIkMHMA8hrlrFxucyye/BhZMWY1cm/QMdHpj3scga9j/F6fn/WkLPQogsFWX2KUfn1LVdUSuubgRYPjqtNKpJB5wsXkA+5QNJ78NfrEX4Ebs2s4Wc9qklLXphM5qOOP8X189+47PY8JSVT1AfJ9+wREaLaxddgWzUzmaWRR6Y9BUIOzEBokImTjCaurPzj3f3buJj6abWQrp9URUBZNWFlGxhOxw9DR2UEuSkjwmHBJ5GMMcK22aFJojhkz5rKScOQudKYNhCZFUHVN9SpYI4ehQ97uEhF8PINjx479DUaJKzDB+j3KYTob+96VNQ2DgYX34z/orE8fPHjwcpWOiIM+B8g35s3bH/n1hnm9vkEYtL0wa+CySDdTt/SuIfonaTjMhX6P/35YEV7bXi4/W2h27DgOo+DF4OTlfSjLFcoyMegiTZM2Bxasz3l/DCQJuJGWKZuAPQcxGYFA51g08RvDzO2P80vU4KoGR+W7he/fwK/udFiE3uPSeZ1+cVi0aC7/8ps3EVG+M6y9ttBSVhyKHnx9AcH9ZToer4XhBKmhdAODpg+3FkWgkeljvfJiWVgEAx4zFk1aTrejDIrTgHVxHSJpX8UzLYLQrN/8Aa4P3lNPOOGorGmNxnMNoG8o2eUDOChyqrEyuzCeii9A3Wxl26lF0AuGbQfEtgs3Fa6qqukJq9RB0Oa/ggBTASPgnrUtcnlLXQoMFzqymZFbE4n3KDBRjxSaDgrNTz/44JLqaGw4hH4Zl2rZPnkfXGIFm3jeojn6h1o0yRpiYgDYTlAWTeRVrA8UocDMZtJfQhC/h2ejwyTcOYI+w8z4k+l0FEoiCwbIyZWFB4TLkzKyW+FzV43qQZpHU0fcSgITnTdx/28XcqbQhGg5yqO7x6Im+9E6SLFIAZK3vGNhy1oVr40vgVirgUh0IAqfolZzujRPIpPpBP5dYDzrDHEapPCF9ZHWQluUqraSX02wrecIbfom4Anej7wEM5uL1kf+yDCC4wYwKBBl/xHf3QySosikEGZ74H3SHQL3noW8XpJNpxbDEr4UM531yM++Hjssp/G+hcyM6cOeymWwKu6MSdvvoMB+nU4muzAOEWVBxBubYYicaqWsyTErRr/d7wXG4b32/+u554bi8jegPfj4PrBP4ScvzLckauOPe1y+eVhLiCGlBV1vtJArpFWnqrGrsx35bstLKEtOCux3mfl5wbQadRHFxG59Ybosvv+41u64n2G4xjFwCfIrSyjrC/ET6EyMtyAmp5S3L1+MVZJcgYC2dRDu0QMG/Xxe38GxaPRP+Htf1IndHylXlmQybaJP2oCafyAaj06hhZT9gIxZOyYgQrONLYRCsxJCM2ULTR86FC6JpO2ksl18vrd+173nCeKj2Ua4cloDoYn0MyNrozWHYQDxqGVAZXmC6PkIg8BVbfHRfOWVV/4KH7fJFJpq6ZyWPA50WDpfbjn1Yejc5+7IF4lL30jNcgDSzIyEVXN/3J+PnTLLobDhYItcMDEI0dmhSOjvBx544FcUmxQrixYtqjBT2fsweA/CPZTTygChqQItLDjhIxza8Z+AM3Cn5tXmFw7+jZuIvXRYUgbrrOcCDDRYaa7zZc0vZxo+r/8/yAt6K+7vNVjvzClTpjCCXrv88sv16GefOT5DgnEIoY4o50hYtf4M8XUAngFraZhE5iP9KQpwTxkwv2LQoEHT8mlVbOsehEM3iNzXkNi0F5ewObDy+VlPdrR8NnMb+okHMeCnA1bAEe4Utq1fEI/2oIpn0+wgInzHP+zHgz8mBzkT95s65ZRTuFNLg9yW4O465phjBpuZ7FgKTSwd2qrX9v2DGvB7/WvgPv6YLx64P9A9YAfi/OEPf7Cv969//cuBwdrx2WefhTEZ6IlfnQzftj+jvrvYQSP5oCG2N0Zkp5LpbzC4Xn/Nddc9jwwHFuuQIoNJ6mHVOR2sb3bpzq7kTuaqneJefjShyftuvHROockP6wZiJJNMpCcbuvl3sM8Y0ajTh3aRQS5PnGfBok5rMU5x21HKaG9pnJMuTOKP58k1tiDiWOdO7dodUokgJAjvft27dbfdHeg7zOVniMctgPosUkU9hrr+ti+sxjWo2xhMc7Riow35q9ZXtUs5UuUBn68vhNveuK19kX6rN0QYBG7QrjPlMpJ3ATAyuexa/HsG6vWO7VnO+BxYYt8NE59bcG9HIzo+gGdC8+UKW13WBvoW0gUCjisfwqI/G6k9P8RxX+2xxx5R7IZjoR3YQgmbL9h6gG0D39zIU1mSS6X6aIbjaLhG/C/SImWRreihsnDZc6u3rN6wPVcd20dz0v1DMcG4Acf4UL79LtLCzYkLPutKykpvOPXUU5/m7kN4jxzoR1ra69sR+42vnZ+E7I5nH4UJxxAsnfuUCwv7ohgsQOC7GDwnoq3MZ/aI/ITJTnmlxCInv/A/L8O7d4qWM8bADQfVE7T7JNYLDL8U7IlwMPxYLpG95dDfH7q5cGWjpQ/xSztOhGYba1wJzXg6298fDmFN02ULzVr4NbX3+V4buHOPv4jQbCNcOc0mwOXpoUOH7o+cjDfH4tHDMDC62eEpvyvbQd6pf4qfL1+5cmWrg4FefPHFc2B5mQxxYQsqJV456KEz/RZlX4u/zWvO6R0DSQksBMci8vkaCK3d1TKhWn5mWhRo5OVInnyvM5V6ZhMCg9DJuzCgHQBL2rM4rpSdOZea+eF9YEAy4tH4Nxhsp2KZbCZ9E3fULCg0K8oq7sLgdiGEBMZzX72fJwYfIxAM/gfBNLfiOV/ZURJ27CrUYfXKlSdD8I6GDaeEvovKX5TXZ+AGVrWvPWLw4HtVWhX+3haahvkaRFov/kyRSesNRRej+GHVHYedlka11OeuJa8AheaJxxwzJFknNPtDkNRHjTOQB8+7Hjc7HRn079teYAkHVgqMe8fe+9usM3sjrFyD8Mx2YJdtEYaAs/0tc7lv0qnk9dcNG/acErwc3BkYBrF6LNJkjcY53FhAVxYoWqXx/CmPxzvF6//hPppNWTR9sLqyveSjk9PJdGoCIp1H0IeWDLcnhlrCVx1DodmutN3BGTND39B+tPRSjHPpnG0bLgsbkK11Bip8MoTb6h2VzZWECRMm9EL7PhRt9ESI+/3RdgJgVe92wnZDQcZMC6FA6DO4plyMnbreaSqJPq2ZEITH45pcpu5Doc9+IZepy6TAewSTaljM/x1LJh/Fvb6C3LY1zXEh6/xzOHYO7Ny51ll9LEBXwW3kHYiwVTuy4tGi+erLLw+tqa29obSk1McJFO+D9WS7CEBAY5I1GgJ/BnfeaUo4NsVQtVXuRNb4+rxf1Anr5iYunWMCXZ9WiVHjaJtxvA+LMemd+L//+7/zsflBk3lL1XPjHTgMWTWe6dC+A/sAx3epn1waUoxlvC7PUy6/a9jhhx++XoRm82+TCM3mGTV5BIXmtnTm6Xg2198fDGhYCkPHnNGiSSydh8KLf9NrpxOHHiDpjdqIV06rE1z6vr/61f5VVdUjsWR1mIshtvkPB3MOKEgX8hE63SsxeCxSy7gtgcdOmxZNiCkKzXpfJJ7LJWsKTd3hvDYYCc7dkSUxLwyZw64rBsdR8G86HYMdE7fbAx0FC6Nsk/FkKp5OLAz5Qncc+r+H/ht7DHfEEtRFeMqhFLocIJUws5ecTTNm5rKPY01/8kEHHbS0uc6cz7N4/ht3mrp1IcoJKEskxS4GObO8ouKzmtqaOxCl/U+I3Ca30mMZfB7ssnQQLEKz8c/2HCSVHx2/czkYrlvX7fs/+96nlu7IPS805+Ocnkj3VB+YwoGVPnHwVxuxa69e4zmwcsm5uedpSR0y4haWrj/Af3MMgoF6K6FJcWu7C3g9EJoOCE1/s0ITXHpCjIzEJioncK9rCnUKA1o2GTgCsfINXCRu6NO//3OFQh3P4z722GOPQ7T/KEw0+nAJmsvKrHta/H5MoUkmjS2aDYRmJpNNpjP37b7XniNomcxbbU0u8xcKE75XrVnutN+Vua8cDPeoiViC74fk/PW5SvF8zC25xeVyzsBelBNWVFWtbomIg9iJYIeg32DtfChSch2Id5mbMNjiXk36KJAM09iENevb8buHIFC/tyUshGNvnDMU9fVH1HkFBTAnOdGaWlsMow7M2urq/yAH65h2HTu+Tst4cz6fhW0vL7yYL9XL3+N9yKHOaVnf7nIxheZbixcP3bq18gbcl4+8CoOBUOZaBPTcjPf6SdQNhWa9RXF77Z73QQvkxQMudhw6ssmtWB1YUu+Ngobj/f8jJtAh5evN73E4YuP9XYQNHSbdeuut888666wdCk30R4ejb3wW72+I6aw4EWBfgsxpGqyhBhrQ05GyyLUHHHCACM0WdFYiNFsAqalDTp80rd9WR25W2rD2hP0E+do5q4ZfWSZtdQ4HX9638y5nScL2NsKV02wCHBAPO+ywvVd/++1oJMlh1Llt0eRXPgmxheXRjzPx2ktWbtr0Djvi5gQMy2TR9k46EJpY7ryfVijlc0ZxkffR/BabDbdIaPJemSSaVk0jnbkLSmxnLoPTGd+OdIXY4qCJXWvWlJdVTEBmhqdwvX3T8cStLo+nHy2ZKkKXIolLfejYV8EKeCmedTGETrS5wZtiYP6rr96JlCoXQuQE+DwqrQwGDaxqmyuw5nYXBrenH3rooSajnxUbbGU5MJaIzsHP2OSnoj6Sm8zxjCaigm/A895TKLgwEPesqdz2qi8Q6JEPAMkvtdXl5YMQGd5lp50oNCly7YG1uYlBc3+n0Pxq6dIjsQOQvXTONDLKz48WTaQmWgsROqNj5873YjlQ5bC0l84Vz/wza13CXfpkXJlbsOJ6DNjZvsC2xRxtDdZkpKHJfZMzrOH99+j/j8ZCc+DAgccF/IFR5WVlfVBvdqSzsqb9/xCafB7bipoXmqXtyofvvffeOVgX9R0lPy+w2tnv2/baGNsWMiMclE2mJsFa2o/Pxi9audAmLN2pb4bbyEwE2NyHHJb1aZGa68Ygdkpff+2102ujsavQYLvTx1mdw0kNJ2h4N+KZdHZOeUnotqXLl38vdyPq/NBsJns7HBL3w7muOjHkUhM8i64L8Ed9NJqKjcEEcn1LRJ26h0I+Be3FzqXLPmR7vLh0PgnpjXDYDbh/L300lUWQbQPv4pp0PHPjgL0GzIZV3l46b44VjrGX9gvdNhqfw4A8vJ9D8ZyndurQsYxR82zDvGYCHBBRviBrZu/FPS2GxZvKsV4sK0HN54KV3v/FZ1/ASmxNobWZk2B+6J6RTmc1rPBkXA7nk8jVMeLwow/f0Fyf29yz/RL+3mwF/xIgtOUZbaGpmbNTRm4PCk1kaNByDkNLIKqxzK0v2sNXevLtp576k9gZiC/ZqEce8e692271FjP3AQdkjnI46neEaQsjOeeHE4C1aI9PPvxwlEN3HkX/Mg5wysGffR9UwycQFEysvgg+hh4s89iDFcQasiKlmR9Tx9/qHfbRSdrvPJaIMx9++OF5kBL3UegVRhyrpXNYS7mzR7MWTZbHNoSlu5664bgBARHHojxGk9sdfd7Pj4dVwdF/YS6beQ+/7INlw1NQPvdrt0GpJWrcdzqZiL+I0fz8pqJam6Ka327vTlhUL8S9YKU8WOgKgG01Pauxd/Pfy8Php9/7/PP65OMUWrBMMnra4mD2JfxGkczwZAjwWyC2SlXkat4HkBY6A8vzwzp37dpAaGIw7YnbfgWWlF0Lr82BH2VTaA4rq6i4O7+kaw/ULWwd2x3UldC0TAeEptkf92DzzudZRWopxyoshT+ByOoJyBBQL67VYJ2/voNJ17/69NODqpLJm2E0/w23dlRpe/gdS6W0nH+TjCWvH3bjd0vnPJ8WzaOPPvo4CNpRCKLoQ7FE0cfBnd8x0fjRls55vcYWTeTCqr8WhWYqk76rpKLiFnJWE6/GgpLlNBJO9VXRlHhi21r0+qKDE5nEROQs7YdJRX3ScaaAwmRvS9bIzIiUlrZKaPKi8LHd+4N33r8iY2SOxXvAHKz2+8l2Q358j+mHjXfjZizTzy1sM5dhcjdzy5a/ZA3jdmw/2oGWNxVIx/aK4w04Ky/DysHobj26PducJbKF7VGlE2sgzBVj8mM+zwdfmjoSbsJXMicuVwUK3Slwj1vwePfjZp9xJZNZRhkxIWWdnKv7xGGR132+Bkk2cZ4H71jqj3/84zr4WH9v0wT0fd3Bbyje0VMQDFTGya7qU9CnxZAK7lW8G3fAMvw+2kZ92cpaSiE7adIkuPVa+2G2dHYqnTkVIhOZC+s2s6hLg5W24J9RaTqMhxNJbfzvxUezRc1GhGaLMH3/ICZsrzWtZ5DroJ8nyHQo8CszsfMDIh9LXPrCXmbmlPHnXtFkVF4bL1mU085/6qkS5APtg7enh5Yxd+GU2OG0HG7DuQX/WWkkrXUX9u//teQLKwr+Zgu9+OKLe73w3AvDnS79ZHSafmVlyqc4Yu6/FUgP9ywCCz7Gzjo6op492GjahSQzJmYNejpnhmHRSJgOM8TsLkzZgY2ysVekVmXoxqHokE9RiZhVpDgtKRjgbB/NlgpNPgi3kVzz9dcDDZfrKuwffTiEp0vlbMxbudLwz9oMiZWACApCJjOalcuYdifOqFhYPpiX5nNE3d6NgXJGS5c4bavTy6/eiWAge+lcCee8QERgu2ulbpljjjz66CcnT57cINGysurBh7IEz30wBpaLcG+HcglZCWUu/dGysWHDhhzy7V0TCAWmFkbA98Agt80w5+N5e6qgDjvaFb5pXEKGAvy73+16EhG2TKeDeHf6oyY0hEEzUIN5DF2oIBPsXPb+MtjB0c696XEYWALdBrZbIIQbLPlTaK7E0jkG5bHYDnQ3WjRVJDT9UnOZ3CoIxEcjpZHJWGKvZIL3vMi0AyqoZzAJ6YjRuCdyx5wGO9XxcM/owPbAwVV96C4A8+tSLOP+Dc/DrU7rrVkUmkOOOOI4XP8WBDv1Zn1ycFfpjfDvFLz9poDlj55Hkz1Vg2AgCE00sFk5hzk5YFlxhw/pQLbzSaKfBmMbNDxq+X/LhR16+u6118bG+47n3UwOBttJmID0ZTtQeSnRdmgt34LnmwGg98GFpcUWTV79nnvuKR1z661HIxvPtRD0u2OZGbftq8/rSvYQSdVwz7oSqwKPFj4OXDTKU4nEpdFo7DpMiAL0J1b5Wvm+4f1JI0XSXOy1fguWeD9VAVxNIeE7AEseK92N9sbtVxtmUm90Ejd5QNsxGUxEAZtvT7b4pEXz4YceHo4tj67B771q6VwVgWslkMfyEzTRT+BxnoF7BvY8RZtCAD6P4WZcWYTxY0cqO1CHM2fOqLGW40Pg4LdBl2vO6DvvXHP22Wd/l1AYx6C/2RXtjptInARf2hLWkXJ7wTvGHareZnAVgqA+wX3bvskfffSRhoSbDrxzXnAOwhq6E4o6Au/wQZh0daRVVCW257MhGCiDzBTLMtnc9A6BdjO/XPclo85bOmlstr//uR4gQrONNUuhmbCcz9Qk4v0CJWHNhWAg5tGMpZJW0NJe7qN7zhp/7rn/tUITnY7/la1bf7XR4zot5TT3Q+RqF0yCgwhytduEbjpTeNVjAZ/3K6S5eLFLeflLU048ESli5KVqY5Np02kjhg7dbfY//3k9rX+YjdvbqlH8sAOlQMN3bvWIBMT25tJ2P80ZOgca+8POGx020r2gv+aqJlPPwNKIHMk4yAsrTJAdqVqS5ykUmvhqsY9mwQDC9DMRdvTw2fsbdurpRTGg0t2w7TAamvfGtCG8V1o9KUooMvPuACvwa0aiP9Y4EfSOAHKgzEedX4QyMe7X5YTktTkIwq66FilOHm3fsf0iDHxpPB/TnyAvNBIy6+5I5eYNpWs2btwTUUQHw02hH+7VTkOjlkh5XD6aem0ilTwHQVr1+x3z2kis361qW9V8WBB3Vfks1W4w/A6xtQo7tmzGPs0myGfh082tj/DwrgREtQ/vXw5LsNifxkIUk5ZEObDeJP04fqvH718ANrMgNFYVCm8GlsC3cgijznGj/Wk5Ujn/yDlnGFvh5/om0mK/n8llNmJjyjKky6F/XZpC1nJZPligB2hux+7cwxvcIkyerdqYWgJHgu4EsmrMA8lbIF4+LewDCoTmKAjNPo2FZiqRisOSNC2ZTo6mdbpNL0HBSd2QsD2ZMyZhbZ9+jc4g6tlu5nVR58z5uQWqfaVlWFE0q2Cdl8J3BeCf7MDsjdFNBKSzDaJ+gsjpWBPxR+Yg3dUL5Fx4nzjUBVE1GGLlDgjN/soPkgXjWAvCcxPScT7qdLvvb63Q5LtKazh8NcfG4ok/0ppM6xk/FJyYzPAJspjc3IZQ8vFYGmbeRlvo/3bfffsuX7ny+mgsfgYD8Bhlrd57sOEEZjPu60G4p0xG+qPtRonzWhDTJa+//uohes75WzRQA1Zw28fmu7VlCj2ue2MNxHSk4CoGfejwwpJa7Ql65qHtLVNuCpeddllk2tNTrsbR12Hi5UOEu/3uFEyCTPycy3IdGtdhHfCZ8t/t91Vt5kkfYe68l0PqQLu/0PUlTq/nb3Bpea/xRhLkiDZwPRiciCDDCJmoysf7YGSQnxQz8/Uel3NTdW2tv6JdOz2diKNDdLJP8hnZtM/IOdqjbwyjDrjSwkTytlsPy2H/tGlTZTQSDj4ZS8YmoQ9Y0hp/1x/a9n/K54vQbGPtcem80q09kcoZezGPJn00GQxEH82uwfC8vbt2O/u/1UcTEXe+N1OpfVNu92U1muMomLlCeJc5GNof7oSIfAAAIABJREFUW3RwBonv0Wgtgmkzm31O/bEO4ZJHB52259cXOPary8osn6ITGD16dI9ZM2YMR5DDqRg47N0uKATU8qRKGK1m7qpj5YDDL3aUds+thGe+flUKIopWlsG/q3MLhebNt9w8Fx1qfe7Gljxw3759K2orK09BNPQVsAzsSvHCzloFO7AM5TulhBEGe1rwtsEC9zju4yEIGjvfZUs/BRbNi3E9nxKaecsvedFSWo2cMTF4sllY5kXy6SR9DzVsUVIKAFQsOu7XXipjUm+1DM3lcwphflmmsShUUnImLJsUffWWjKMOO6z7W+9/8DoE0K5qwFeTgXw+T4vPmhfT9c+vLKaqPmkhY7kcIbEsS2tKlWXkngy5S6es2bbmiyaEpp3eCOrQzqOpeOZFNrdVzKJsWhnrl2TJNJ/ImtuhYIXSTihuJzZX7UItOa5es9pAkNGXyVRq4vDhw5++5pprGuxX3gKLZhwgpyHi9wfn0eR920LTgNB01QlNtdONeiZbbGJyod4H1X7UREq18fx3wubyPqOKs6FQeDoSUN6Lul1a2O5oOd68YcNRm7dWjkX99qXlWFngMXmxMLnagus+Bn4Tmos6b6o9g2lw1hOzRlRXV13DpVquAqjVBWw/yuC8HKaGDzoDvtsQ5bxB5aI9/OCDB361fMVI5Hw8mO+YymGr/LexJL0Udu37UOYTzSUWP/7443d6440F1yGn6J/Rz5Tx3fAgF6e6D9WHqGB08uPfQoHAKrgr/H23Prs9Qv9jtl0unT8+/9Fr4/EE0xt5GRzHeyosS9URg7ka9092Xeb7KTWp5vtBVwD4dLyLHbL+BsH9EQ5p4NpFoYl2bwtNtI8SCnXOv5UbCP1pWW9cYeB3PgOzxaj7svtKyGtOftVki9dVFnom5EfaqnVIUzocdf0sfJe5Q9l2fVVb2nf9Eo4TodnGWj592rR+m7Pm0ynLGID9XO08mgwGiiMHYedgEEKz+3+l0KT15bJHHumNXY0ugynlpJzD1Q6jjYYFVwyzdVuycSaLeWtdPkO8qOxMMe5uaB/wPqJVJqc+e+mlrVoeaiNiOQ0Ebr/99t6YGFyPNcE/o9Or31aNHbf6qOX0wsFUWfOUcGhg1ikgy46Y57OTVaLnhwpNaiWIs93gfH81LCqnoVNGrETQ7vDzoqv+mrwV/g7LVkkMjG/CgncXrIMLd5SCqKmGUWDRZMJ2xOQEGohrJfrUDj/8u0rCzmfnwKKCPCi67O32wMaOWMXyN46xsJtJEuPQY71263V54/sr9ZV2xyaEr0fCEdtHkx+eqwZY8udz8lqqnvJir56LmgyogZHWMhxThe2gZrqzmQdnv/DCkkIXlrxFc7CVNSE0dVtoFk44WD6DsRoLr8J2wmup4CW1XM775H1zYEYZlX6vZ2bWsiYg+8CKQnHNZ9yeRZNtKb+rUzzg8U+z3I6iCE21dP6dEKqbXG1PaPK4wncBljs7+A11ncas4YH2Hdo/DKvkp4VtjLli582bN9jn9d4Bu1tfcmId8xkhsjhB2oz28zi+JiHN2MrWdlznn39+yQvPP38B0oIPQz2WqHbI9rBx/XpeJ6c7XA+GfOHb1lauXcfy4WPoxm5Ag7ED0Chw3ssWfVjS57NRSDHrQNAfXJy1cndi4vd6YXLzpu4POS3LFi58bRg8Cs5DmymBr7F9mHpfv+NWF1yj2i4MlpvgNX6j0+ecgWhsCj/r6quv9j00bdq18Ai5Ae+SvXTOd63wo+pA5WtV5at3QFlSVb/ENop8r1iW0d91WblrIh07ftjYookJHgPxhhUKTXUdXl9F8yvhaD8b1uvV+8B7AOcGk2D2E2wfXJXg9pfYAOF5rBHdiHeTW5RyPijJ2lvQ4EVotgBSU4ecPGlSv0qXa0Y8ld7HjprFzIjzMCZsb+9xzduvXZezhx977H9dMNAdzz0X/nzbptNqLNcV2POgtwWdwVm9AR90uPDXrWTgy43Xx35JkVEnRd9TM20YieiHO/t8N1503qXzD3XQrUU+xSZw+0gIzZnTr0devHqhqRz+lVVBdabKeln4c6Gw4e+VpVPdtxKpTQpNBAMhZ12rLZosm/6aCMg4CEmPRyEad38OgirdiBpUeE1MYijyLESWf4rB+z4c8wJ81RAs0DoXDQrNirKyuxB1bls0ldBUAlM9byEDJcKVsMsvs9v3yUFIpWTJBzJksJ64AEveE2BZebFxvffr16/7hvXrXw+Hwrvyb2obSgpYZTFWjHm9QjGkLNSqrhQnJkqHYNgSCgUfge/39GeeeeabQqFpBwN99dWRhUJTCYDCyYNqD2oQV+3GFkr55OrqeDLgc3NwxfcsFhBfxeB9P55nflO7Mm3PosnyKHJx/0grk5sGF40fVWjCB+9APIdTWcQK60O18UIr/XdCqaF1H23TzleJQKJUOByavlu/fhNee+21BhZNCs1Fry4aXJ2sHguf5n4q6MZmlLWtZFE87z/w/Q7ozGWtbbsQmgEIzbMwoRgB3+bOvO8I3hcKIybyx8QvF/CHHvQ6LQjNynUsH5MM39T77z8Oe5PfjFvvyz6cFk3WLTM8YJJghiLhV9Ae7oTY+3djUda4/R555JHlS5Z8fhbmiJfguXZltgW2BWZUU1byOkEGo0Q+0At/x+5TrhVgcCdcC6bnfTUpgr0v/utFRJ1b3FnMw7RbZFUoUOv7n/w/GltO4Uden3eTh/CdgZA1ser2EaJ1Li3v2vWjpoQmjhuGw09E+7CXztUqCt9hTiDZtlWGDT4PwscaTDwcdW6i9rNzpylOuunmw/hErLbMQx81FamzXmcO3WL3/T+n8kVotrE2T4ZFs0bXZybSmb0Lt6DkXuedA/55B3Tb9ewrBw36rxOa10+fvssKy7p7UyY12B8I+/25uiaQdsGfjWM7BKYTX55snUXTRCbitI5oemfO0s1sZTCTva13SYcp92wnF2Ebccpp2yGApfOeMx6fcUMmnT4VHZ/to2nXS94KR6sbO0VlLWMxyjKpvm+naC75sAPnrLw+LyCPpUUkGot+Cwtjm4UmrZq/+c1vOny1bNk5Dod+MYRKV3b8LF8JAH7Hjh3cWaUWQnQWBM1dWP5a3VprZr7MeqGpLJpqgFLLwGTFwZsMabHjgKOCJwotj+TGAYlcmCcR59ci0vTTcDDyQCwTe7kpX0MsD/aq3Lr1lVAw1AODrm0B4bVUueoeVNog9TMZcBBVIjdfJ3aV0aKJ1YXKVCb7eMgRmrY+uv5LZUEhXwx27vP/+tfBcPu8Hf579UvnSlQpgaAEdeNJBn8mC34K/OewM2aO/n2ViFZeEogEp4LRC9tLMdWc0ETRcWCcBkH3owtNLp27C4KW1HMUtvdC66Vqe0pw21b/up2bWE/poN83TU97JoNzA7FIQb9h7YYhNdXbxsIPsx+FE9uHbfH2eihUs2hLc1Hfw5A8fUlbhObzc54/E7vvjEJdtec9wxexfttICPacU3c96AsHbkM92EKTmznccO0N2ObJHImAoD35MiuLJl08UIcmtqd9A+1qLN7Dhc0JI6xAlAeDnj95vaHrIQp34btqT5Dg4FvojkGhqYQYhSYMlivNbOaOI37/+4cRCW47RGO3LffsGTMur4nFR+Od9pIX34PCCRfvj5ND7r3e1ISZlubCCQPLBQcTFuz3gwH/JcHS0s+2IzRvwHkMBoqoqHPWEyd+ylKv+jtaSd2euuepv1ZdiAKfmflRY6l0qsrM5hDN5/wy6HE+0GmXXd7+MTdd2E7f/LP7tQjNNlbpiTMe7l+TNZ5KJLMDOGB53BwssMwci1udvN6X99ql539lHs2/PPTQr7YZxlNIKrYb3fKCcO6G45mWxvtGUenClNEDdy5fDosU0J20cmbhRlNpxDSf25H25zLjD+m9z23XHXggndLlU2QC2I+81yPTpl+fyqZORcduC001oOYFCvferWXwBxUjZ98QHXSliuHvGaoklUyOf0WHyihZ/h/LcXoJju/EAZtlqrJpEUGC42/h/3btiDZaNFke/Sax5NgTUc1Xur2+C7m3sLIeKgGA3YIwTibeRr8+GQLt5WXLlsVaO1DnB4omhWahFY9iTllwla9k4SCjhCHvjdtw0qLndCD7gq4vRsqmOc5k8o0N0ejWpu7Pjnh16K9hQOvBa3Jg40eJPGUdVYEehct3SmgqJsq6Yyc8TySqwmWlT2BQnAKLTr2PJoUmosi9E8ZPGJJKxkcDrC001fMqMaCspOr3LFvVQaG1224XaBNw6Ky2cuZmy8otwHL58xisP9jRHuWFQhNisjcDKDig8xq0aEL0xDt26jStuqZ6NP5drYRyW18b5aNJiybbrdrrXNVj4YSrqWsUikzqC1iKKTSZBicRiYSnIVXQVIg5Cs36JVEKTQjIwbBujS0JR/rjGS0IMzt1DhLZc2KWw7szF/yux7lLW9t+TzvttAhywF6Ft/I6lOO3BVBeQDOHKa6DfbmDD2Kf2NtQF7bQ5LN17djxMLTZkfCF/B1ZUGjypsmdrh7I8fVRLpMegwCzZlOUcYehbds2HQ+heSsmfl3pp8hVASzN2+8M6tPEd/pXNRCesGhuQOTOqIpOFQ9zgsh2iWV65+DBgy/E+zCOQTX0aeX7piz53JYT9VRJsYlom7qZrtNpoPF68c8MArkcGTPHXiyD+uB52NAeF0YYBHykFyYzmZGIHP+68YSUS+c49gYgOAnBQLaPpnLX4a1zK1j6Wdp7ySPAi/1jaVkE35AgLs8bqcLUO5RBMN0XeCFeTMfSHzp8jm9QLyua27yire36536eCM021vAfJk4cEPe752RSmT58IdXyVzQetToGg6/8z849zvxvCwZ6CS/yjMceG1iVzT1anc10oZ+Rz44lxB6u8M9kXLIbLxqFpieHpQvMTy1IkCysnSlYNXPYKdiZik8b1KnX6P9Gt4A2VuV/9WlcOn/0sUeuxT7dp2LwsH00+VG+leiYNyAv5QLMuJfAOImsAdxdxEzj2ITH6YjxH4g2tjO45AWqlzN1igpM2Qdhqfl4dLJB24qSF7G0iCSSCQhNL4TmiDYtnecHfu7m4X7pny+d5vTqUzA44/br9v/m9Thgbt66ZQuCKe7HYD39yiuvXNfWKE5aR9TSeaFFUy2d0d+QfmsUFbg3OziJgx/vhyyVKKRfIXYRgkjXV8Xi8X9DyCzF9otvwSqzdEcimDn8UsnUgnAo1IPLjoW+rxzVkqlkgioOy6OIz8hxr21bjHLQg5j1M6oWFuQsJgaIMHYyLY9OwQDlsBlZq54009oTNaka+kjaAogDOtkumDfvSARdjYEasIWm+rB8WiaZ/B51TVHE8dzi3tzor+rzZPI4MuI94vjqTDr1Ko6dB7XznicUgtHomx3m0m0sNFXUOcskS1wzjtSH00KRyA+2aPKZO5WXD4CpbaIrLzQpyPJtyRZAqNM42nUtLJUMi2b0MmdmtAxDuHAKhkd1mEkgQe4oMwENhzxHDhNaJh2Nx14sDwefWrN58/JCocml8wXzFhxpaJmxyG7TH1HU9vyNXwygRF2jieRewvWHt0Voot2Xzpw5865ELH42xJItGLn1J4UshSbaQw7b0I7XvM57lUWT7X3XnXfeD/dzbTyRPAYuBG4wtqvfznKAD9ruMgSn3oP2OKu5YKDjjjuu9I03XkMKNX0Uzu/A94Ni08jm2E5NGFO4jSxY1llalQ+s1+vegsniCC6dK+HHe2tX0u6iWDL6dwhhL9slXTRU/wJWcRB7AS/CUqSftjUIjKMpvrf5XgpR5rZ/KMStPQHWMxl76S0HE/ZnaGNvIWCLaYUa+EfmheYwtD176ZwBfWpigbbI92oDlvnfgpBdZU/anY6OCB3bGwFezP9aZ3HF+EeRjg/C4jPzMWsa23nXXT9CMvi0JGZv+1ApQrMN7LBs4Zm9efNucb9/Diw/diOlLwumYlpNOm4F3Z5/t3P6/vTUWWdtau3stg230+wp7KB50OVz53pWb9nyV/SKt2M/wBJEDCJJGRZfnBiUuHyHw5Bkkf7RdjBQ3ejLoAanFk1ENQMpWJCc7J/ttMjtF51xwuf7Ie1GsxeXA34Qgf3337/3xrVrhyINzqnoKJEesE6k0UKGny0ssX2YtcxhWHJ+E8KEg5SBTtG2eCBHnAk/yQbXf+SRRxy33XYb8sGldHwdh5Q741HTHSi4lNi0dwaCszsTtrfVRzMvhnRut/jcc88dW15a9hgFLS0H/MovX1vYHm8jXE/GYseV6c0NhjsCycGtY0XFXZZDvxADor0FJT/5JTsOHMhElnyLgxvGSxoroTdyqVQ2W1uBpW6kWtEyySSVZy2EWBZiezMmYsvge1mLXKbZwgTPTd0HhSZ8JRf4Ar4eaieRuuN0bltpmVnjwfJ25fNyqVyaPql0WTBceNnq6tGRQX5NDpy2dTmdrt8pwYMglaSur8bzwJi1tj6PJt9p7jPOnYHwEo/F6DiAaZXIlSKAPnoIv96IAXyxYWbfQrnIgZXB6mvgUCSYGox3P6TaEkUh/dEgYpLIe/V4IBy4Awne1zS1t3bjZ6fQPOSQw4+LhIJIcO+x82gqqyLFNv6dgtCcoumRW2pr1/7g9Ebwj9wdzzgRaYYOxLWgzb/LZkALVawmOgfCfTbEgt03OdwOI+IOZLdFaz24F2ck4oWlWkNskm6ks9EYoGdpoeTzG0gkfsqgQdsmP/10fZ5Vcmb+0WkTph28Nbp1QgT7aaO/N2i55d/4HoJfBpbNNglNZgC56aabdsckZVw8FjuISfeVhVv5aOI5E4ZljkDE+X2FYmfI74b0fG/pe1cgddT54OHt0Kku6wDrFZZIO5AMXfoTeJ/v5payO3p/LrvsMu+cOXP2S9Qk9oeZcSdYDsFP34Y0Y1UQ8/sGAsFTcH6EApTXUNZJRICvQjsbsd+vf/2kujfkIXUdBYsmVlDGcemcQlO5ouSDizZgC8pb8c7Mhh9yiptMYCJnQTw20CPog0y4pDTIUYm+LYfxl7v6fC93pbJo4tlPgrguUUvyvDaWcOLY1nYx7ns8fn6bLEotqxQPeB63wUWdIqbXX7/iwQlgtKZmNVZipnr93sfhR7uhJe/DD+rsf8Yni9BsY+WeNmNG/43R6LNokH0CIb8W9ASQmg67MeQSls/ter2d3/OXp0787xCa4xYsaPfZ+vXda7FNncvvPmfrtuqDPHCNQRQlcjMgfQNmjVnbqsG0RnWpjbhsbv/DNOqCIwz42CB1LmaKlama+GtdQ53+2Umref3m00/nUqJE3rWxHTV3GqPOn3riieFbt1WdBM4+dvLsEPlhB4q0MR9gafdqCMpFzZWl/q729H7nrXdOQn7Fe7DY3lGl8+D3H0to8nq81utzXz/WHXA9hvtnbkq1FGdHNcNHcw06/9EQSf+AxbCypc/Q+DgKzU4dO47DdowXYXBD0/bawjmf/JppflZC3t7t8rtewuBWg6CazD777NOqfZ93dG8UmljaW4AL9yjcGQgrhwxisBBocuVFl1w0ua0W2yae1xaaXy5ZcgxsetyCshd3gKLrBAUeE98D9Ne6kZtUm04/wZyktIC+haCWrMMYCYP2HrAku5RooCDnvtgo4HMsJE7E72e3ZOtPe6/zo7HXeTZ9i8vp7s3tTClGKHZpkUWZqXbtKqbA0+9HSdjeEULTzAtNTAic7LMolHn/3FEqZ2TvOuzww0Y355NInhSKFCxqIq4YF4oYJTTHjR030BvwTkJ+2H4d2rXLwU0AnhRJWxRCEGU8bu9L2VR2eGW04bJ7c+0Zuwx12bZp21/CZeGLkKaoO0SZ7RtJQcZ65FIvvlZ6dd+Vm6o3PV9Y3oEHHliGLS/Px++up25CfdpWZPKn4QOBSZlAKLgYZd0yZMiQt5qzyDEoafny5f5169bZO2DtsssuKe4ZP378+FPR79+Ja3Tk6p0t4PN5JZHHdBWybo45+o9/fAzJ5+2JEMpxz5o164I0xDMFHIWmclXJC831sIKOwr+fgMXWTp22PYNMYd00Z7RheiO0t+vg3nAi2m8p30P2A/nAtjiS17+BDJ13deza9S1aXymIjzv66IPdfv8d4LUXuNk5f5WYRlAidi1y4n1w3YYtZ+eKb2ZzrXn7fxeh2UZ2502dOuBb05yDl6WP148X24HobEwCt2XjVsjrXRjU/ae++H9s0eQg8PhHH5Vv87oOrcxlz8D60K9T6SwTarsQ2KAhuTHSOcA1BgxydD6HkMQs1A4G8sLYQutmDotP2NtZQxIPu3Px26t6WhRJrtdmc5k5Hj35wv4dun991ZFH/mD/qzZWxc/6tJNPPrk3tqgbCssyg4EC+WVOeyDngAT7xYfYAP3qb1aufKOlIPLLrvr8V+Yfj7yBEwqFJgdOLnMpi+bkmyfPPWPoGa3Ko1l4H0zBM2HchGM0t8U8g8HCXYhoRaqNRdfgOW7COXOwVWODHXta+jx50aB3ruh4l+EwL8TgElBJljnIQPxw6Xo1tr+83RV1zV5RtaKmNWW35Fj6aGKK9poSmhRw/GDJz14eh6FvOJTARGz9ydx72o52aWnJ9ZRFc9XSr45MOyzboomB1p4e5tM2GdgJZS0ayOOR8tLJaEdbsCuQvvDll7th4LwQauY0I2d0YqQyWSUxaaGoQX9Wi9XkV+A7N2JrNPqVEmPbuyf2MYcffgSinz23lJWW9KalnMeyTLpggEMS229OhdUNFs0fnrCdQpNL57DKHoh2A7dF7spW51eHXVvgU6tP2q1fzxu4u0+dfmk4CS58nsZCsykho4TmxPHjB8L8PdEf9PfHO5iDiLF9C/NR+plYtPalYCQyHFa5Bv6d2+OWF1BMA/YbvBPDIOQGgb2XQo5lckLGJXBaS2HN/BfelTGwjH9QWB4FHVYLjgfj2/H3HhCa9eM5svWTv+n1+1anY7E7sIXBDIq65sSaKl/1EfjZiSj8s2ExHYtzbfGmPnx/0caY6m7sH/7wh0fuu+8+24p8wQUXOGc9PusCOFuNQx3VWzSVGwsOWWdmrdHerHfWj/ku0qLpc3pvwA59TNheovxo8+I2Hq2NLYqURe6EtdMWmpycYvvUXd55550RNVXVJ8B6Gma7xXPZ/qmM+EddxBGI9Q/skT4eOx59AqsmfeHFsNKSTqrgGBGarQSmDqfQXG6Yc9Ap9/FBaLohNLl0HjXTVjjoX1zi1k/+v7Jo8gWa+sEH4beXLesdz6SGwPX598lcdg9sPeKD75kdnYg9W7FcmML2W3XBJQbyhzGPJnNq0pDpwx5gOhxlYPnA2jnEB3y14bmi5dJIE+FBjkGsuUPgbNWc1qeeTPrpvXfrv6D/gQeugdmtwTZ5bcQrp+UJUGi+++6712MK8GcMPH4KAw6qFFAUhdgm8kMIqathDWyx0GTRtDS+/dZbJ8PZ/m6U3bEYS+e8DgcsLNf+0e3xPoYBNVhoEakXmpZ1E0bWHyo0uZ3iWLTdiyE0Q0poUtjCMmdhgFyN7S/vQATubFh2fvASbmED5fvWJRzuk9SdjDzuriyadQLIwaVzDQPfsJyWm3zFFVfEG+01bltzlOWmNUKAFs1VSG+UQh5N+FkPQNAFB0GdbQODq4GI6HW60zUTbokT8dybkExcx+DpysXjh2RNczSCSPahBc1O+2JvLFXXrpLx+CrsnjJ89332mdNc/kUKzSOOGHKcz+O2l87BpS5mBB9a1+DDnsRkaEqXnTrdCutbFZtES5+xqU6AS+dgPAGL5gMZxcEoaDX5oq8k/AUehH/xsEGDBtmTFgh6Xo9OdxzrGo939r00Fp88T93jd0Jz4sBoMjoRUdj9YelDnIgBa6rFXYV4bAbPOBfXH8ZAouaeMS/i3PNfeKGDr6Tk/FQi/Vf4HnbiEjJFkRKaKIuTyW1GJg1LvP8hTMQ2Nmp3DpyzD44ZC1F1EASnnf2cVrwUNuLmB20vGwqGn0O/ffPl11z+VUst6ooXrOAuCk2/1zcG5ZepXJR5dwsTbX0lUpTd+fvf//5xRJ2n8G45cLz+jzn/uAAJ6MfhfW9q6XwdxPMtyK85ozkrYWNrc2HdNG4f9mTP4RiGPoCrP2FmfyBPez96vz8BK+oin8t3Z0lFSb3QnDt3buiMU874s+W0roTjbS8c56JA5SSJ7zECwLgd53r4sk+H68vdyLFa80Pa7y91YBOh2caaP/Hhh/vXWtbsRCy2OztqH3ZR4BJ0dZZL587F5abn5P8LH00G/Dw/65HOlans8dgL5QCnx78f1pM6wZnPk8xivdxZl3CXTt7wN4IVIAFjGaPNEaQBoYk8GhozPOiYEevIp0khSmtmEsEk2HBMyyWRKkJ3afHqGISO28IAg41VjBVet+Ptcp9v7h4l5Yu6H3FEJd70He6V20bsv7jTRl49svfM52dej5067DyaFE4UMPyi5SocDH6Yy2VbZdFUQnPxwsUnYEer+2AFarx0Tt/Jb7El4nU/JOo8LzT1cCB8nNvjeoKDDu9fWfsYrMKlc7THmyB0f7DQ7NCuw2gkiL8U72OJEpps6/RlxfOs8XoCt467d9yTGDzbbDltqgHWCc0uEJqJl3DdXZTVh4MxB+aly5ZqpeGyG3btvet9EGYqc7USOdzrvUkLSYNBljlt6/xzbd+0eosmhSZ2BoL/2QD4uWHRwqnnU+8Y8J9DhLJzZiqbvhfWrE2cXHD5dKf2O+2WyMauRR9wAhKOljINDMtUATwYmNNwPvgHnuVWWOh2mK6nTmgecVzI5x+FzSr6UCyxHJWgG8I14bDM6VhPvwV+n9sK9lpvybv8PVHarVu3AdHaxESP2zWQFs1QpG4/awoDtCETUfoPY5ekm+AaUYm9rE1lgeKzU3TC31JXQr9A4PP5ba5oGzqPUz/zd/TRHD9u3ED4603Cj/3A2IAYoY+zvXQOsQknQO2lTCp+86CjjvpSXTf/gA2egfWGCUEACmh3pEo6qKZ7w+YHAAAgAElEQVQ2eiq2G90dE0iX2iRApeJB2iSTS7cRn+9aVzC4sKnALC69Y/XhErxT5+D5O6nlYrzTdh9BkQWx/zUStz8UNIPPnR89f/lIbSQC0dU+cE0vW7NNk9WDDz7oxoThTEyUbsXvKlQOSj6bnaszFPqWeTSPPfbYRwcOHGjnVqbQnPX44xdg3KlfOi/w0SRbLp0Pw/GzmnNxaHyf25uQ8ffdu3fvUVVZNQw+lSdFQuEQg+D4/jO4B/eaQJumj+YdyqLJe+Xy+clHH43tpK1zMSk7FftOVnAyzOfML7mzLSP8PftBJBi4pu/uu7/b3OSrJQ37l3aMCM021viZiDrf6gs/nUjH+tk+MU741SBN0DZsp+pz6Qs7eMKn/v8Wmhc+9liHTbn07rrb+adEKvsHSL2KbMbwuv0+PYfxCUEjmj9Yty0X7zcZi9uBPlgsh/8llmHRGpDzBoMYnL3tbtfUspmUlkGSozQEqDsAkQABGmRwYMqAZRNRs9h2EwEpJqxFMbjXf1Tids0J5BxvHN2r14oTDzmkxUs1bayGn/1pCADojQFmKIaNU9Fp2kvnnKWr5UIMRB9lU7mr1m5c2yqLpi2OunQ5DhEDk5HmyLZoqtQ3XOqtE5puCM22R50rQfvyyy9zS7gZGEidfFfY+fNaHABqo7WrYRq6+cewaHbq0GkYRDcd+0tUMFBelNF3cXU2lbxt3IgRT550ySU/qtDkNfJL5/MxUO3CgUpNBvLWRTObzg2v6FhxD3xp64JUCqLHt7dku73fq0Zfb9GE0ITJjlHnBgNk8j6aFJ2bnB73k95odNzSrVs3KMsdLD0hK546xF8SugYi9XfgBZdDr20hz++AQkvaGuzsMsZyWDN35KtpBwMNPOS4cGl4FJZ/+1Cvsn75/PTLs4Wmrk9GENaYFu5dXy/68pzqgz54/xAJ/XVTn4Al4YP4rGkk3OYKDZ8ZosrABq3TENx4M/zrtjIQTbkoKL9kllnottCExazB9ZX4XLx48UGx6uikrJHtCxcFo84/1KKbgkWhmc2kn3P7fDfB6vhNgUhlZgDegwVx6Tei0Yjp85XFamr6RErLjkCu2sMQJNedkdlkb/tc532LmawfqQE2munc47rPdQ8nCk21Byz3MuXZkaij69DG98c7TSsr4tzqlt9prgWb9Lbqqi/CwfCzqM8XENy2hIEtqh1tp53ZQvP+++/34r7OxdL5zbjHMrXNJcU9t43F+7wcxou7fv3rXz+O52Rktm3RfPTBBy/w+APjcE+Nl845qdqQzebucXlcz7vwwuZqarIaMjUUfjzxuNP0enXkjfpewCmfD8+Wwb3UKPHN/qxbx449ounMMMzcTkL90E3H9ndlQn70k3H8exFiW++s6NjRtmiq63FzCVjbD8V4eQtE6q9KIxELEzAX310+J9OMoc/dBqH6sMc0J22srl75sx94fuQHFKHZRqBnz3iq/5ra6idzZmZPDp7e/8fed8BZVV3rn15unRlmgKEOXUSxACogCsaCmNhBRVDR2PN8Jib6Ny95lqhRY4wxYsEC0vQNSqJRQCwgqDwLGjUWRHqdwszcevo5/2+dew+OiDIzgILvXH945957yj5r73P2t7+11rcQfE1AsxFVqspjkflDO/W4+PuQN8INxt+zcGG7zxq3HAoW84wGKz/MZaQeCiPGJKylVRGgEOAxY8DVqqDKAxBkPpNlSqmEGhhLF04fYjl16EyQeDG5y+l7CftAVkXTHL0e+zUik7McKbHlek5H2iEYUIBTWjXDZeRbEHDVA0NiCDxTj9rMqwFb3i8tjf7jYKbs41+ODeM32zjMGGRZ9sXD+jewLdU6x/MzEsi4+JN5Ipn4IK9p18Kl0+JkoAAALnpl0VhB4u8LgCYdr3kykMBz13fv2XM+St21OUaTJgCwXGeAEZmOY/uxk/54KYiUe03p1HrBEwA0dztGk63s0OFmTGD/SUAzYDQJlGNSooSK9WBR7oY0TTUmma/V625r3wT70TV2RsnNPM8vANjyGc0ATNM7JdlAN+Up/D3H0lw9mkScGxZqOUZnSGDMYKElRkqmNPUX9aMNuJ1R4Mi/uXDPscl4MifEhQ1gLbcC3NkEDvwSlHf/eTRY6Tvh0h0AAOkQo0myO8QWY9ykkd37HEDw7ZhIVzZjQzmwP8lUfeosJEfdhEUMmp/w2blA6smCL13Tch+IHHtz5549X6GqLztjXglo/vTkk0/P6/ot5e3K+2F/EIqFMn7FykAakoTmmI45lwQM+WKMH+nY6JjEMRCoYrV/nYGOUkEvAOE7nLJ+U3oTtXs749utY7cBONbfEGdKrmI+URL3tyXtV3JhA4S8CjZqOlzsDSQNpOA/Hf85sKd/bjonGRkFbijjP3iJUALIUknCwqtmyJAhKxctXmyMGzuWq77qKrbszDNPyqWyf4rGowcgcQ3h7ZYPNLEtXZahSMqS2rqtM7GS8t3bJK1D54KqAZbyTAdRUjqDYe6g61oX7DswokbaUcwysbLBAo/uPwKadC2pxlSDHFFmwdk0BWEAn31bIg8B6BdffLE99r0Q7bgEQLwX6dX6CZ1F0Xda0OF3Cwop9XDTvwtxohdwz33kCV6qMl65LV4Zz69fv54bgHZ/QsMQGkcJKVFmemZvLZfuxXDiyWpEGU2XFTx/yCtBxQxwn23GGLsVcZlTA/CKv4VnkQyUyWv3UAnKIBmouEgm7KshC/xzLL5W4zuK1nJocQvXGDyDImnEY15xOUhsYbECBQXHZJFs67K8x0JDk6Osf7C0H7ZLtnshWZH8IrgfKEYT7fotFrVjcY4EbMEWk8TIFjkkbC1JZVN/O+SQQ9C1i7fXxKT7F/GtXbDvOPx9Ja6rqnvXbnQf+c/DItCEAplbCyWOew8aeNDkkNVs3VMzBJqts9f2rS+dMm3Aetd4RrfMA8jV4cctwsVcn0175Wpk3rDuvS7Zm0DTd21Mm5aoF8UBm3O5s3UWcZiM083geEkGuOQtl41C+sPGjUrFHEw8eSDGhpvY0lRJTak8B5rTTiKwlHMg1J4TkbmJGFNex8SMRXCE5z+Fiu1SzJgvl5eL/86mjD5507pAs7wTXY4t42WVhXCJv2JE5QRk9xZqwrKiBP06xmtAtmn7ktIvYgL7mt2YqT5pQN8PLxo50gjjW1o34Ab269ejSdNuAHCYCLAWCTTsAv1HLADeh5jPL1uTdU4toAkKQHMchMj/0tx13jwZiIDm7rrOCQwha3UMANjDaHNloANKbaCscwCD9eDTbyuv3O2scxbZwH+AC/kXivwVo0njk1gnMGrrUAfrnrSmVVOJy9b1wndvTfci2JV+qNm0EBopXQLXecA6ExhJNTZC2IGzeE5kaZKGyD4WcoVSlDTzYhLzn8X0p186AdqJaDduRYSvyKoLyZlN0B58kpf5h4Okmj59+kj1m+rHOLz9BwRTDMDECoUezgeaBOIRyZOFXNE/mTzzhzX1a6iq0Ha3O07FAjD1Beh5AuzXUQBmPtCkF/URzkHl9xw8K2ZxMn/f1Vdf/e+dxfeRmPn6NetPd1n3FsTx9SPZH7puYkaJ/SIAAUbJxDMSYd2cpwPwgT6lpKOilEyhpKGvXYgmE8AgO/mMMMdMrexUeRPpl1K7qP0dyzoOQNz5/clYfATqgovQqPIXLfSia7YM09RyGg7u19PlgJf9CljoEwdhTpAxlf3SgWALGUuHiLgserlMRoRXxkC7KGNfdFznFUrsAUv4adGVzlYkKkabnnEnznEgAU3SdqR+J6BEFWso4V2UJJDmmotrFnHtvnh5cQwQ4MHPkh9WClsg18r1n53+8xNjgGxezNT3ADRtiO08jXvzTwBFK3cFaopMbxfsfzP67AIspngwkIVnM44dSB5RX6BfkLQvIJzB24ixsQwP7/c9VqhlBdZC30Qj8ThMZnVGuwfBlsehn8oALiluUaDzEFgMql3hM/JH2S0aFhkIVZhaDDnw+yKuxK+0PWu7jmagK1vU3yTpJZditCnxhpjcYGFG21F/Bnq7NLfSbxTvG3gpsE0mUZJ8GTvfN/zYY98L5I4o6xyj5gbo1J6N/UvQB77rnPbFXYZSqM4SfDcZ7X9tx3Kq9DzEArQzYlofQfNPxFim+Fc/2YuOQYlyYKtdSD0thofwWoxpKp7wDYmlPflc+TEdKwSabexNSgbayHCz84Y2kFw3FOeIxzvTkM96ZbIIoNl3rwBNerj9DQHM723aVKUJ7nkOK48wLPtABFcnDcflYpEoo+V1hurxUp1WYjOFqOql8LCH6zulKtLrvCh9Av5xpKtbR3qarcK9xuQgyo4HOGI1PQe1u77wsvo93Tnu5UMGDtx6+eDB9NDkb5s/v+rf9ZvOhfDcudms3kOAXiGKxbKot8uAYvFd8zaWo6qMECRyz7O8A59QXaaxfmnH0sQ/kG60BFUwto4K66S3eNQdcMABfbVs9tdwRo7HTsSA+BN0MRnIE3nxfU7iWyVvVAQ0XFe4zsFmPgjR5w6B65QerPSwB8hZAwbwejCqu8tokrvzeLR5GupEd6KJl85B9wxcqR5KvK0HgrgFbXoWD28ocLXtRZMgxWgCp/0CE7rvOg8YOl8n0bbXeZZ5DwTs9wrQxPn6RdXYSxCw7hqcm66VmFViRKA16Ic8UL8FFYh8IACCjbYrAqlvXHxxYeGBScuCjXoq7pm3bsjnN9MkB8kVubG+HpWB9NuoMhAYTQKzJFlEkze5NTN4LrzA5/MAmvXbgWZwEgKJmzZs+EtDQ+MksE4gn7B4RBupfXDd+pMrWLgvXMd7ol1Fuyegc0oi2V+bXJEAIqIUIrLO+VsQc9iP5I2ozYHOIo2lgFWi7+lag2QhmsBJZzR4BXYg4I1tgV2ZJzqLnW/8LP2Zn7xF5y4D0HRs80+JeOw4XCeaWgj5oGMVXfW+C9oHk/g+YPXo2NSWpB+XrhfCh4rsOu1H10xgl2ShEJv8ElDQ9SefdhrFW7IU5wmAMgKDaDKeeQfCDe4AXHLBtZLN6Bh0TLrG5ucuZjz73/mx/ABOQbuCeyEAmnhe0/nzeIx+hHFyz5HDjpxH2fMtATQkKo8QlbNh9xtgiwNKkyUiMZs09uh8NNZ8PUkAT5oXiCWm8YHzIdUAYuksagyDaCCvHH4DL86X41hlQVEDKkJA+wVZ8dR22BHyy/xqqL/eU9GpYhoxi3SdVBnotDGnXWE6hp91DuDr24b6KGgHtSko4xn0P40Z+p6OHQDkYEzQ56LsE4HUDBLdyINzzxVXXPFmsADqAEbTcNnfYkidjfwD8mr4QJPOg+wtCuN6HX37IN5fg+QY2fVrsdFUPx4STdfgPNdg8VVJ8ca0P42TYv96m7dsrmmXTP6+S2npMx+EiUEtfliHQLPFpvr6hpc89thBm2z2Gc3K9yMGg4AmKZ03aBmvnSzNO3IvAE0CmfctX04BJqeYHHcCylschzTLMnKX+Q8xkinJ+ZIY/sPUl2pAwUEwkxlZibyPohmvQrroHaSZ6hLP/SafzpwI6WiJ9D91CGeiprkncUKD7DEzSh39r09ddMW6HR9yt/3zn50/ra85zlWlU5rS+UNQprCXbrsii6IRmEaQUloocUfuecSr+WxSeTIO9Y/Gj8si0usJUX357PEXLD8ZEkkteYC2sXt+NLt1qajoLccTv0Zcw/mQiInRwzbQKaQJGS7E913L/dWaDa13nc9/Yf4Z0Xjkb+B+OgYB8PRgp5imRsRoyuLulaAsAloWIOZ4iROngVvpFGS3FwGH19DYuAFutFux7dwWxvDttG8JaGJi+AOY01/gHMngPAQgiJ3DTuuw6LoHk9TeAJoskjLgZtRfxq3XnUA09RHdgzRBgg1iDABMmmzp7wDY+CCEeEe8CqCr8Gr+Nx2HYuEQBNgIpq7aNXO3bwPQpM22x2h63p1gpX1Gk54FBDTpvoMNMoidfgET7R/A1HwDaBKLA4mrsyJQLchpuUFot0AsJLm86bzEBAE4GYqqvp7NZamc4Ftgg/PBfUs2pzYgTu50jJ9b0AY/RpP2DZivICa3OfhqBihp8+3XG3xPbn+0WSOR+0S7xK3N9VUB8gYgg/pvaiRCJSjh8S4Ak+bghM4VANoA1NG7z6rhN+oTP9O+ILbufy6CPmITU5l07pn2nTv88eKLL15PxyKXMCrdDNZt7QEUOBgCFy2xghQi4DNewfmC/guuI/iezkUML20bjAvq4yAxjlQJqA2RaCTXUN/4ajSqzFai0VehZ/kNYL+LB1t39N+5ONZ58H4MQH/5/RkAWRqPdF/QM4T6mK6fvqO2BGMuAKW0DT3Hg+SfALBT++l4NHZRp9wCC7wBCX134t6bDq+KzxYTC/zaa69dkW5K3YMxFcRo+kx+ESxur8gVsNHN+6x5X1K7AnvSvsSCwo5phHstherJn5NFqSLavysYTdNj/x/Y3LPxrExi4eX3D8W74jpyCF9ZilCGybD7NxjN4n3H4Vl1EOzy/yKKeibmdT92NvAi+UmFmUzOMI0XoTLzcEl5yTK65nAe28WopPtx15uEW+zMAj7QtAA07bxfgjIAmo06YjQBNEcBaF57/PE1e8J61cATaxcvrvh8/foeNbo+zOTYC1Eppi+kaeQS6GHSw8IBUMxBrohW7IiRhEQRACaqcjimU4On8VuG48w595RTlr704Ycxu6Hp/HROvxROq25wIXHktDNFJAtxFELuLE963u1XTbx84Rh2e4GS7ZdBYHcOYnWWvTDn4C2p3OGaw15ou24PlMErQ1UUpKBjdQ+apqRdGZPKNPmZshQLFeFEh3e9lOox/wKFWl3ZqdMbg/r02TiuV689rmm4J2y+rxwDAKYXHG6/Rtjs+XjQwftbmCAJrJD7CSv7D/D2q7bEaEI/bhyOdS8ezFTv3H+g+9IoAClw9a4RJfH6hx99dB4mjjZJVhEQoWcMJqHjEJP2GD50I5aBJrti4oNXu3XrBjUS+2+Mu93OOu/Wpcut+bxGjCZOWbJda5QybzFJrQPbeQ/0Ivc40KSxArv1gt7ea6qidgOYBMjjfXYwYO+oVGLAFtK1BxNswMYVJ7pvDDuanIuTaxNi4arBPt8BiaTNBH6CykBY3N2JxSQBTb/iUODqwzVnwWg+j+u/bWdAk/qnR48e3QHEr4LNfo4JuJTAGHlDoGXms68k74K21+Ce/h9c44Nggr7cEWhuWr/+dOha3oKJ2Xed0/kDcEPHoGuk6w2uuTmwIXmi5iCH/qY2UNyjkden2Kx9C9qwXcifXOe6a92PBe4IojOpKmJwvObgErpH28FmwNLT+Qms0L1DIC+IR6XxSN8VCwhk4EafM+qII+7oO2RIADTdqBQ9TImIdyhq5DhyfZOdsT1OWWBom7NxQV82twOdK3BhUxtoP7hiGSWiEnCC0yJL4RwfwYYP4vNbcNtnd2TcdvVMKrKa3XD8U03DnIT7rTeAnkLnIxsQK0ltJZAZJB8FQJvaRq/mwJw+B+x0EK8YgK6ivSjOYSNA339DDWBOUVHBoxjNJ5988nJIUN1NShMAfBROIATHaB4q0PyaggVDYLfm44S2C4AmvBMapq3XBZa9s6x9+2VBYg89KzFWSLz+bDC6SeojOqa/0ER0GMbmUgRoTCZGc0fXedAO6NxGIXQ/Cdtci2vrCQ+hH1JC9y4x3ugsFwuwGkVRZ7Ei/9AxxxyzfldC+Lvqt/8Lv4dAs429TK7zTR77FNzNB6tRAE3cp1TOsQklKNtLyrxjEKO5J4Dm9K1bo0sWLmxfb2unmAx3ki1wA1ABtjNk8iQZmeMM6Vri/CaSfHQHsS4QjXcRKa2YXn1SUv+tOu6rqiy/cvSkSSsuQN3h859++ihTdx4Ae3RoHPciYtoYTGBM2ta8iCI1IuRoVte4+NdHTr+Q6ip/awwKHgLSHc8/X7oikzk86zhDEdF+Iuq899d5L44bELUpqY4lBN4RJwq/BSNi4U/SSNDa07ES3ghJxfcEz355SPfur9xw/PGQYQnlkHY2FOG67mPp+g2W7ZyL31GIQ93OVuPBi+wtdrme1W/YVLPptdYMZWKzXnnppXMQ9nA/Yt0oMcHfnR7MNOHmMjkATf7XD02Z8iKAps9UtPYVAE0E2o8GjH0IE3RXevIH8WjEyEJIfbNjuH+QotJMaDzuTtIRxRzeiqSpXwCAlBCrGDBWdB681qNM4N0495y9EaNJ8Y7QZViIua0ruepRspwNXLM+8CgyX4ENA4ASgKzgPZhsg3eanH2Xp203wjtRjYS9HYDmFydRMhAxmmDa/MpAxT6E/K2YQfzcc6qn3t48RjNoQ8BIgjk7Hn//HhPpYEyqFEvoy5+RDen8AKk2wMRnmGzvxZj7O4U4BM8Gcr9/uWLF6SXJklsBDf0SlIHbPGDHmp3P/7P5NcPT/41hRaAM14whbz3cwelwy+eZrypGkbxRPpe/H6AeWec8PNkFFYMAKG233w4sHQEj2o7uHzo+/aNFFV1fwH6TnQEicshQfmbIUUfdinGyAULkHrnOAciH1NfV34ZF+ygCmuTFgj2219L+rnujGCfsg1uyDTFsfjw7uW45divO/xHa9wLs9S6SvT7fnVKsdF+/+eabJHk0WhGVM2zXGiJLcill6AcAl2xEwCmQStux7YHbmuwVgGiyH7W9GAbhEsjGNWilZWUfwh19C6oULUKsJLnOfaBJ8kZZTf8TFi0S/sHclkhMe3Fh5b9TG5ozms3b4YO6opwXvVM/Ffeh8Z2HUPxiMJp3NweapPwA8Pl7rJHOxrZRCh0oXgvFpubAzC9BTOlfAH6XfhsTSfcE+vYwjJNf4DwX0H1AfU3xv2gfIs6glY3YZeQkUMjSX/DbSwCmYFTC13dZIASabRwfPtB0uDlZR+vvM5rAVRB9ZVJa1usgq7sNNKtra2Or3n+/4/tbt57TaOSPRvLNASbndeBdVsbNg5QCyvNG/CXOy8sSU6enmUhCMV3LrGO13Kuotf7PAys6rxw1YsT6o5NJmhicP730UvSDmppLUhn9DrhLo744u+JXl2FyjY1uu9KSN6Oy/IdTq6reGDdsWItYrPc8T1y9dWvJ3Gef7dnAWqMT7crObMym+0EmSULGO+uaiIUSUOoSYBOJEMjCBMsj8C78TjrciVuSIr+kd8fKeUAf7wwC4Az1N78+IAlo4iF5Ix54iIvNwmMY8ZMb6IGIycTr2KnyQ/iHrt24dWur5Y2gb3mWIPKPYr5I4MHqIHMWMlUmiUbTv3VgS39z9913z8fE4Vezae0rAJoUo4n6w4/jc5fgGEWmj9ic2mRpyZ2Y36fvTuUYOhcys29FxbtrMQlGi5MkzVZ+coosyushhX0bzjeHSlC29lq+a3s6NxjUKmTRvolzVRJAKwp5A9AYJH3EIBHFB0OBRiKBnEBbsPmxiwCUMry39zNlOMui2IAklWpoFt0OtotiNF1isF5e8PIYxEPfhpTYAehD6LC7mGsRBF3Its9Cb/IfyIS+DWDya9nbzc/Zt2/fcmRoT8B1XI1de4ORteD2pP39RA0AFAELU7O0XdkbAHZ/xfYLKR6Ukj+QkCRi3zNiUfmmdDrbj1gkWgAR2x4wSgQa6JlVBA6UsBSIpyOvcDsjydM+2Ibe/QQpxOE82rlb5982d52XxcoONB3tIazqh1Pfgm3FsQqubx+4Fbx02wFg0V1NtckpnMBHLwRO6broHbGJHlVFoixxOi8l9uAIc8tLSn5/yVVXrSM7EdCsgDA6PDd/1g1zBMAFgSy/PwMB8x0WChTC4PdfEEJA5y26o3OotNaEdn1iaMZyyA0tx/ercaxN5LYvXsNuDU8Cm5MmTYqOP218D1d1j0aq1Giw3kdDhDdG4BgvDmPSryBF19CcjfXNXgzjoPaTd4P0QglowV42hHAtxFWvRpzUW/BCvIvr+wztX0XyS0Xbk+ucnf/8/CswSd2DrrGReN4AY1DGFp0bwVWcwqLbENahgSzxMQjxNPSO0IZCwhqGMJLDsoRHqXYdRgZFZjGIk2WxmjJRevc9tGkqYjQ/oBhNugcRC9olm85eh2fAWNIcBuvNYCXiZ/GXJEo0w9SWILvugcqePd9pLm+0o7FJMgrXcxKu63cI+eEEWXSQOIZqQTLuK4+F5B8ryRLqj4qvIqFv5ubNm0nSKtSN/o5RGwLNNt7SBDQ3OPyzeSffD/VOkERTiNEkoNlelhcc273PpLYwmvTwvGbu3E6pbHZco2v9BFFFQ5CmWAoxZB6sBgt2EvJDVKwHWZMG3D0Abrpje7FYJOO65mu8nV9YEU2+fmhF53W/PvHE5vFU/nFR9/jWmnT2IkQYoVwGbuyozIC5YrT6RiMqiZMxydz5xNixFBvUqjJbdKPPWLWq4p+vLzyKFeTDs4b1c9yolRBZYSGVwsoR1Of2JZNw46dTDNI/EXhOaaZuNsZzG+KC9C4i7F86KJF47bfnnVfX2vO3sRv3+d369+9fWbup9qxoTDmVQiPwcBWRsmspSPqi+RVjYE1lZafJn3zxyYetuRgaZ6Xx0qNZkb0MNZoZyFJBLdWXHWKRtQ1FAauWlbiZ06dP/3jMmDFf6cC05iQ0YdB5SksPFjnuxkwulwBS9tkQmj58Rsl1MjjnHIChl3azBCWLrNNxjmmeldP1mCwg0pgmL1Jc0EwFQLDO8+wZKJ2zeHfO822Xj/umDM7hJ6CzGMV4J+kUtpgly+aNPFMK+SBkw5Lijf/MpfmVPvPklSi+AMcQKs1Bh8z/AhCM9wwHshD4AgnLJHr7tqzrc4888cQ0aUGS63zL6tVHYEV4OSbWbgCGGsU3wjFLsx5YI1YHA/emzKizN9RvoLjOnb6IlYQwe0+A4/PQX318uxVVgGjih7eCgJkiqWoa8ZEvduzc8aXzzjtPI+Fzqja0deumozGZX4ApuRuBAN+/6LrpiIQwD6dIhhcq3ZKsENoFEIaxC6CC65foXJ3MJUYAACAASURBVEARDi06yFdb3A6Zx4y4NFoSnR64OekZgxjNKlPXLzNt+2Aaq4yJoQkbYvwShiHtLByAnpC+Cf3/wyOQR/lRncCmBWZOUiU/dq8AaqAWgmOAlfNsExnqsH1EUZYjy2UWGPbaYLFULpf3ZWLMlQLL989m03jqekwimvCB+PYX9qUzwmGbxoX5oJe6Eug/hwUG6mWYTRAmaUS7t+mOvgrffQnA10jaqnvjeUf3HhZ5MZzvEDwrhoEJ7otzdoOaXUc0risWMDH88xdi9I9exQUaLS4cMLt5JAum9by+ESGpDVgV1IAlX6Wb+kcAmJ8g/nMLJdX4lm42X5DNKpOVQzJ65jh4S2oRyopkIySOBi/kb6FvGfDKfl9Txj+mMB7MPNTW+By0o0D9ijm0isaEL/2F+wKCYI7Lo2OQqy6pMXUjrmsF9Dv9e4GOg/tBBegbhHFMMlvkOaE4Zb+kJF4mKNUaOZH4GG3esit7L1iwoAyA+Qhal8AWNnWtgonYERwk6Qsgii3Ztrxa5B18sqL1sbTfdiv+aL8PgWYbu3bSzJkH1uS0WVlLP1SNRaEriZUgjtWUS3vtRXnZyJ59z2wN0KSV/K/mzOm4zdL6pmzz5LzHnpPN6Z05RIhEFRWC6hyjgLkkZpCq+fji6lQgUpJ1TCxboHuzRDHNR6svv/xdIjR2vKxHoHf31mcfnqHxwl2Iq6xCdQ2G2o2J0Rdtd3VjS7tY/IZZ5547a1c34XeZjB4y0PWs+NfWhp9Cz+SsbF47HNpP5ZCB4i0DVZkxpZSVldIjBOymyRhUCxoJTFFV8SpUdbXIuc+pLjd/2MCB70067LD/8y6JyZMnx/CvOya9CJ7MTCQZKUjpg7kCYhOReZEeNmzYF4gTahED3bzvEPgeBTNTWRIpgXShyTRBeJqYTfR/JGJHrIOGHbQFtZQpVmy3ZDwIhEks2yMPd2VEpMvwZU18xoxctfh9K5jTzW110QfXVKySUoVJkARHmXwq72fJ4nw+yYdJthalGOt3VY2kLY8EAmtrP117OCZn3nAMvVP3TmA1LVTQqmO79+7tbV63zn/WEtMpok2Y/RiAbhZsJDK7Rf+dfudkQMV8IYwEQJVSXpHz5yJxvEnq1KmqHguP+mBipW3g0k2CDa7CXjHCCQA+OiWqwK4EugjsNo4ePXrVtGnTtusG7uz6SIYKeozliPVNYHKXACI8I4N8PWoDXuWqymsOBySr1Q4fPryGJGWa2b2U5/UqhMLyJOND7mm0gTyrVkE1FS/84V8PI2GcpuA2jYokAwR20AB9LmXwbCj8/tUL7di2o1A5ic3j+N2hAQqpYCy4CwzY1+YxFfbEvrLpujrZuLKszNpWX+9kATJ3fNE31EY6t59ZDM8Pxk8T5Jzqm8s50b2C33vYGbuEjbBmTFEEDSCt+fEAZCnr3wEDSODLL32JzzYBXLjE02DcsocffrhG8bVUbail5SDbMh533IfY74ULF3bGdXaEssigrG70wFgtB2CqBNsZxeKVdYDsyJrwlZmCyK2F/BEW/F4t0OcKoK2NUGyowXirCdjAIgj31QC+q41Fr0KriIvgeLRv0ZZECgdMeNDn/nl3PH/zfej3YD/qj9a2JbhGSnCiY1E8Jn3XvILUrq5/T/Tf/n6MEGi2sQcLWefOM1nH7IdgEJB1uEuRBNOYTRHQXDqqV79xLQGaNPARAxW94emn+5mJ2KlZzx6TNp0+rBqNo3QvqwooOYjjYhGIdbpbiDsDG+JKAhQvzVogjbdkjlkk562lo3v3XjNp1KidTij3z5uXeKNx0w06J1wNAitJ+pqIl2SwOmViigx/GzNXdaw7nr7w5x+00SRf223ePE9+etNT/RyBOS5lmOd5gtufwl88IGY8gRlou4PVVMklUsgYxUOePMKcaWaTqrgcirxPYK57dYQea4Ab6DsnyT3R3n31GMFDEu5rHi5fAezg9kUEpGV8Ee3WPjx3vNbig3lHVuJbSyO2xVbBOb5l351OGK09TzXFnZaW+hMCbOU2KyXoP+d2ZwHV0rZQSTvaduTIkQ4mJQ4TfFBr+2ughLaBDAyH7YIJ2CNZmOAz9Tf1b7Pz7rRGeDDpodoLW9y3+STc6uveYWL3x8COE3dzWzSf/GnCDSZmMvfObBZUyqH5P5i8g+2a6zB+27huDhrI1tBv9N2mO557R9t+W3t2bGNxPz90YcfrpPbi/uMA1qjM506BE427HY8ZjMN9AZCQzX79619LCL+QAJwFgGKUdwMNLDmSpwPUFdXy0VZy/1unHnNq9sL/vDBLY6t5paWW3g/hdqEF/GdvaIa2WeAKAM21LPuM7lj9yCWMagRI1LQRTJ71KuOxxQO7lYy/edQ4v0rEt70ovvGZ2bO71uTzwxps60Jb4A9lRbUUK3FUnSDBYsxNSDCiFwKvfIkUkUXdHp7LAGh+jJD9hVVJee6RRxy3dmKHDtvd5Duejx7Etyye0+HD9al7Ie5+DkoLcmWxhK91iXroJDDSFBPZ3x0SL5t18xln7DEWkbLls0uXli37fOWoLOf9TGPZ4zKm2R4sgiAjwJqSkMA++CEACuxHj3by59ta3gDL+hGqhyySBfal40Yd//7BVVW5wahu0bbeCvcKLRBaILRAaIGdzQ200CeX+c5e+wI4Dntt/7dACDTb2IfEaK4xzWfggugXS8SRzYiYQ8Rc5bMZLy4Jb1cJ6hkPTpq0U6BJDMHfli5tt+jLLw/mPPcU3TWP1V1+IPxNooTILEQ7FzIpkVykwbVNgdMQm3ahbaNBJqgm3dD0arJd6UvQrfjfJ8eO9cWbv+sy5nme/MxTTwypM9h706w7GJH5rALfO4FjtJ8pL0l+guyJ/5x27rmv7epYbTFX9aJFsZfXru2/LZsdzScSgzOWOYyNKHFkJcoIXIMkUwJgE4EAlMCALHW6mryWsyMImkeY2vIIzy2xsvqSyoqKf00eOzasn96WTgj3CS0QWiC0wA4WaMZAf+2XvTEPhMb/v2uBEGi2se+vmD79oA2G+aymm30pGQgR+L7sjKlrXoUSffXQPn0m3jxq1HagSeByRs1C9dP5mytqWHZofS57FKuIh2ZtawBqNiZZThKQr8mggKMvKkx1x5Ffx2QczYsqosY67heyzbzBa8ayDlL87WhpZPNfWqhveO2MGZXrrfxE0xP+00QZQPirWS9vFKQ+BNZw8/n5SJW9fur48ds18tpolm/djYKq30FlsifnzOma0nIjmizzCCESHZLSc91zel6JQw80qkTB2sKljix1InMbU01eVJVMlIdOIabtk5gkLZNsYXHFYYe9OQhRbpcNGrTT+st7uu3h8UILhBYILRBaILRAaIG2WSAEmm2zG3P1tGkDVmSzcyEw1FcAm0lxk34psrzuJSXuheEHHfLz3wwfXhsc/uapU0tWy3Y3xFyfmrWssZbtVaG8RMRESikyHiHvhWoacBsjEdt3H9OLCnF5krcRepNvsprzXDKWfPPnw4fXj6yqalFZsuDcF894sF/Gjd6Wtt2fIppJgdIdcj+QN0nUYVSpiwrcAx1jifv+NmZMm0sAttSMBLgvef75KF9T0w0KusOzvHVOxjCP4AQp6oK8hSAyEiZQCpNEjZFKmtMySJ5AbWQUehY5rwnZ9ksEg3km6TLvuyUla+dA4/G7Ysha2q5wu9ACoQVCC4QWCC0QWmDPWyAEmm20Kckb1QniUw157SBVVQoi1MiiJqAZYdjnjj2o/6W/HjWqHnGK0rxZs/rlOP0M1CI/S7PNKg8lyWU1weaQ1QldMrjGicPkgP1QZxoVfeAxh9fcTYms+347SX7S0zNLT7/k6i3QmGyTcPb5M6cOydvsHzXbPZblIKxCMd+QBMnl0q6rsm/hHHeNttxXvs+kG3LZzEfC58xHH+3PxtTxUHE/ozFjdIeChMBDXsdBuIBhQ1QZ7n0Z9jFSGYQTOB7knXRoYdRD0mlRVFJnHNer19vXDx+ev3zKFK4TNGCyiGBv6JnkjLToj22vsZHva5rasVVVNiVohC6hNg74cLfQAqEFQguEFggt0AYLhECzDUajJJ5HZs8+bl0694TOup38ykBI3rGyqDNumm4sGltQ2a3TLwb17astenPJ4CZHm4gsluFZQ6uEPC6Hig2IR2T92ETKIvfjMdEOyBS7FstoIBpXyqw3t8LxXhwxcODHlw8e3OYkGAJ05z7xxOhGy74Lmn0DRCnCFaVlmHQ+bbmcM7ecd2949pKrN3wfWbk7mpvad/sLL3T6dMOGU7hEYiQU6oYixby9wXEyWE3eQaIQyY9EeAiZIOseQN0vcclF5JzAcF/KhvMSkoZetCTu86gkdcmw3rGmZ3R0Ba6UpGQ4iLJFOXFVjFfeLnO5lQ9NnEgaoaG4bhvGfbhLaIHQAqEFQguEFmitBUKg2UqLTV20SHlr5Zpja2xrgqkKZ2YZJyIpMhPxwGhmUdcXaFHmuBWOwD6LzOm8LTgnZHO5IxzGhQ4wSkVCdlYgiTu4yKkqAytwhXqyDGdxorAJpS7eRrb5QoHRXu7QZ+DWKbsBMunSFqEgxf1PPDEeOnU3QbKwShBVqCS5fqIRpI00QfKmlEXLbocLmmrt/mAvylB/burUftDjHW0LwhGpbG6oazpdotEYa2k6VRvxmV+bQCb+JnAOXU4IBzqp0rKS1y2HedeSnErDNE8QIHDfkGmMCpLgQSLUhqqyluTkFe2VyDwpp/397EsvXT1qJ1qjP9jFhycOLRBaILRAaIHQAj9SC4RAsxUdSyBz0eefD2xknLugaHuUJ0uKAQ8tAbeIC34N2pQ8FTKA9hxiLzMm68AR7kShSAQdco6R4K72HFR9Bn0JmUwmBSkk1rU0x7Wzosd/CfXihajU8yJqTK6+qqIivSdcvdVebWz2k/+4VrPY/4AkdAVKWLIoLcjoLqqU8HajaGn3HyQk7rtv0qQ9JmvUCpN+bVNiN6csX95uyTvv9DZY/rysZZ6C2NUK1LWNoioFSm3AtlQ2E3YEUenrb5J6rmsaphpP6Kl8hkeCUwTXhq0R/Ar3uwsQL6B/GE23VY/ZVKZEnkaNomnH9Ou3rqVlNtt6PeF+oQVCC4QWCC0QWuD/ugVCoNnCEUASQbMfeWRUjmcm5T1vtC1KcVbkWdRT8OWIRABJqjvOURW1YsY4Jdu4VGYNIZiiC4CEJB8qJ0dpPvjLsFkXJc7ct5Cds4TTxY+EUmF9x1is5v6TTzaL4s27HVN4w8vV3T6vydyi6e5Y1GaNgMhE2SCwmVD9FFh7jezat0y6+Ko5iP9sdWWZFpqu1ZtRaMKrCxb0XL5hw0HQKR3KROSjcqY5AGUzS0RRZtIIUYjF4rAzCukCMPuVciHXRCpPZF/KdSIQSv9gdf/8loaKLLzgIAJ0k5XTXu7aoeqx+888+Z0fIlyg1QYJdwgtEFogtEBogdAC+6kFQqDZwo67obq628qmut9uaGg6L9apMk4lMzwqCAzwCPBWAJB+VeKiBiYs65c/B+jksWUgRk6gFLV+UZOY+cDyvHmi7C5AmbwVcF1ng6ZQFvW4OXNYfLfbsYQTofe53k7fJYrxEyVRESjO0UJ6tw2PvSoy/0IdlRtmnnvJ4n0xbhF24G9ZvLji3Y/e7x+rKDs7b9pnGbZbjtrG+E/yBd+hPU9JQohuRRgC2ZZE35urikJMH2XgqN6tb16qs+zoWl1JLPnXw6q6PXTjiBGNLRwC4WahBUILhBYILRBaILRAKy0QAs0WGAyARx4/ZcrJuiTenBWEgRboM0nhGT2dZuKock5ucdTrYhzUIycBSAI6AeABDPLP4NEXAD1g5eDzFT7iPO4py7YWKBFhI9zkOdrmwbo6b0+Ay2aAlT1txgOD6nP2XZIYOUaVIwKy2Rmq6atZmo2o0iXtBO766p9f8/6+nI0N+wuTpj3Sw5Ll0SndOhWxrEc1NmRiqJGN6kmQhALQLLwKQJPqwJPVC+/oD1DKVGnJc+B8xz9kYpkSK77QOabe/sg55/wrZDVbcBOEm4QWCC0QWiC0QGiBNlggBJotMNqStWsr73vppevdaOSiLZlMSbwsyRh6lokhVlBGcg8xmgbAjAWQCf7SP6IA7FMQLSq8KPnGQ+KPIMomwOhHnOUssj1nG/2GPXKOZ6/1eEmTI5EUCuk2ddf1LX+aODEf1D9uCxgiF/Rtjz0wfKNh36Ty8tGyrAgka0TAzESpIcU2X1Qd93dzrrjm0xaY4QffZN68efK8XGropob0JU2mdRR8410iUQkJ+n6tY99VThZvDjRdgH/6TGwz9YULCSmSj4Ic1Yr2jPfXK/v3nzF48OD8D35xYQNCC4QWCC0QWiC0wI/QAiHQbEGn3vXcwk6r7MyN65rSFzbpery0XQljA2hyjslEUcmHQIz1LUBTAPikJBaK5XSQks5yYEA5wXQMK2vZhsRKFK/pGAIn2iVyPKtn9E2QR/rEsI23RF76nEWVSI7Vs304K3vE6RdpJzM4VAvleeZt25aY/MLfz96m6ddFpWg/3vcbk5AS4DDnZcp4ftag7pV3XHfsSRtaYIZ9YhPKop///PPtN6ayw3WJ/01eywwCzIRefhHSI1TBl4uifxjdPEpamtDjpEBZSiRyTPzNcV5Ekre0Y90/nzt85LTRXbs27BMXFzYitEBogdACoQVCC/zILBACzRZ06Bu5XKc/zZz5WzdaekFGy8c5AEaZ/klwmUPnkYCmA0BJrnNy1fr/+XGbfpCmzyAS0CTASdsS8+bakOcBUEWaOiNJyKJGtnpEijBWWrNVRUUWOlefMvR6VGOst3hvbbkc+8I1rDUJw1gz5oQTNp1eVZXHcb5VwJ0yuC+dO7czgPHl9UZ+kuRJlZBNQvEhtBBp7wC3qQrXnXLBuHPvOSke317BqAXm+ME3oWu7bPrf+2y007fojn42KggJVO2IYjGRmk7X5reR3OcsBN9NxGf6vwFoUqwmZapDgqq+TBD+OvHYUQ+FQPMH79KwAaEFQguEFggt8CO1QAg0W9Cx973ySod367f9Jm0xl9TU1pV0qCgFoNFRuUZjXEkEgETCCeI0CzGCAJsEOAljEqCE7iNlRVNsJDFtSCIqfE8xgwCgKFwJoCkxTRAXl2WVUXgZ9b5NxjVsCvd085xll5eVabqWqVc4ZQtrOSsBmD40BXZlh9L4ilOGHF17anl5bkfXOoGxK6dN676B465O5bRzRE7uBLAFgo9nBAUw1nO3JF37/j+On/BoV5bd7xi9a1HSc63NXLvN1K9HzKYKdXcfSEJt07c3vQqudF8I3/+/70GH65yApuB6GxICc8/5pw58cky7o/Z66c0WDLNwk9ACoQVCC4QWCC3wo7NACDRb0KXVtbWxFxcsOCcjCDdYptPLdpCz7ZoMC0YTFWh8OSOO/LT4x0HGqPgn3guJQIiK9IEm67utKScIDCZwKQFPnsTaKXMaYBMkJ0TIbZCgLKOSyxdJOzicz3xKPA+5yLwdU6NGOptrEOKROkkUPpdcdq3Kuqu7Rks39qio+PSKoUO3EOgkoHnfv9YmF3/w1pGaZY2GFuVIyBpVodRjEk2GsCf7YQdF/OM1554/bzDL7ncximOrq2N53bw8r2m3INknKoG55CjDnMAk7AoBzYK0Ef4Gk8sggcvXOyVNTZ4lESrmo4Tr3nbx8cfPG9WjB4oRha/QAqEFQguEFggtEFpgT1sgBJotsCjJ7Fz+7IzBDYZ7a10mPUqNJERydVM2M9K4GRtaRb6wEQCkAdesBGbSNKFUCaAJ8Xb8Avc56qBHZNQ1x6e8gd/g6tV1g4lAF5IAECcgfpAAKQAmuX6pWhAxnQ4kfICT/M8k4UO1v/HR1R2k8wCBwmWsRdRIHZjSjSjS+HqXDh3eAJha0VRW1vTIoEHaFGjDz5/yZKWjyiNYmTsk1dg0VlbVODQ/55dYzp2/uvSiTwA021zisgXm2+ObEIieMGtW5xorf4tlehN5CIRS5SBUrPSZZNeBq5y0TalX0E9k1xxCF3gI1TN5DZnnEHiPRJ+tVGO3PTx27OdtSbTa4xcVHjC0QGiB0AKhBUIL/AgtEALNFnbqzXDVfs5pl1uscJXJSp0tj+NNCzqOiHckRU2ek31XrQ4WUlZQyxygUJREz9LzdlSWGlGHOyPwXN5xWNGF3xxpz7Jlmly2IRUHx6kAEwG8OpwGQMorMpW0gYSSXGA9UeGGOorAJlOU6KGYQwKiJrhLzTA8UVJc6GOmUaioPqqoHyJW8TnJVd9N6t02Hn/ZIGPZsmXS5qamTqZuHcU59sEAYp8PqCh54aaRI6n2d3PlyRZa5IfbbOoHH5Q8vWzJ2UY08lvGYquQXoUSlYUYTRLILzCaLCMBdYoOqgfBeFZMYrL5LCOYttcuGl2lcN7vzxs/8e9jWNb44a4kPHNogdACoQVCC4QW+HFbIASarejfyR+/0/W95R9dvjWnXZJ3mfaRRJJjKc7Sx2lwhwPgEEtJANAwdBee9fpELP6SZWrzoryUUxWlERUg26MSEMChLaL+ODzaYjlY0Eqgoy4AS5VIVmmfSMQrcqaR1HVdcG2btz34hF2XhSQPWDvEIgJ2EuikCE/HLrChkEoCm2r6IEuRZBOSP+tRAfPThKK+iVSk1y+ZOPGzmsWLzWXxOIpjZiKgYa3GxsbsntTtbIUp27wpZZ3/bfLkYXy75O+2ZpqOVbmIxFMmP5WbxFF9oOnnYIHNRLeIPjZ3mQYH3nHbtDvHE5tLOWGqIMsPPzhu3NY2NyTcMbRAaIHQAqEFQguEFtilBUKguUsTfX2DX1ZX995SX/8bjed/pgtCR4RD+hqOfm0gHs5rSOeovGBYmr5G5pklvOfN7ut579x00UXmHKo9WXzFgExRc9upo+RosI2NklRSn2+qWLWxto8sCQPyltkHbvPKdM7o7ApeCcOKJSi5KMNdzpLLns5nAWzKsgxgCWYTAJdecCL7sZ0ozOiJLCpk2m69YHtvxiPRJTIvrTWj7Eex7t03Hz9okIuyk7tdeaiV5tvtzR94883ur3/5xS8bM7kJjCKXSZzIorC5L4hPQD8AmhTKQPjf001GTcS9rKMbKsd/mrTt59tx0aeHTxj75f54/bttwPAAoQVCC4QWCC0QWuB7tEAINFtpbGLUnp/x9KGbrfwFWca9CG7ZOGk0gjQr6Ddajiez3ErVtu7oGO247Ng+HTeMGzasRXXEqfTk4rq6SF1dXWz9xo0l67Zt62A6TieDsftlPW9QOp/rCha0naRE4mI0ohpgRBUFTmDDYkTQeNCG9AXJbSTCuGA+s8hkjyeTnp7N6jInNYkCvzkqcM82ZMwlfQ47oLY3w9T8x5FHZveXGEWqNz/1wQd/pnHcTbrL9hcVmSc2k14uQhgCRpM+U+Y/yUshS5+SrQyxJPov2fKerHKZFweNHbspBJmtHPjh5qEFQguEFggtEFqgDRYIgWYbjEZgc+r06SPqzOzDOcPuK8ciSApCogmApp03vDjPv927rHTs3WedtbENh9++C1X2yaxdyzewbGna8zqs37Cm3adr15WlNfMApKEPQQZ5J9dzu8mCHFc4KG7aHjzmoPGo5CKAJsUmZnKoYBSLMWZeZ1QZVYksqzadTq2KRKObANPe6cLzrw/r33/1+UcemdmXYzWrFy2KvbJ585C6TOaKRs0YA7AdE8HmUlwmAWu/+ieumQHgJN1MKjlJckcQDkXGudOkRiOPyx6H3J+xa0KQuTujMtx3f7FANZIYqa1j8WRavnw5jwpY+1XS3/5i57CdoQVCC3y3BUKg2cYRcv4TTxyYYcyZKc08TI2B1CRgh+zzfCrlJXnuzWN69zvrNyedtMeF0In1vHLGjHLkDXVHdGY7VmYOaNJzQy3HHa45bnuHZwWO51gTSUPRaBShmAX9TgeJSxTfaZNSPMQ9MQVZEifUs7z9QVySFpRo5qsnXHDpqn0RhFGW+YWzpw+pT2f+M5czR5eWty+Fz581EZdKQNPyHAoT0CKRSA7u8lhO01RSAqDrtQyNUeJKg5KI/aWDwT40+cwz/bKf++OLgAOBBiJsd9X+xYsZfuRIn+T1t0XYBte4fDl32aBBFC7hTVm+3KeCSxFCgbdC3dTiC+dA5MXXXlTjc5fn3FWb2vo7jXnatyjbBYEFX74rqO7a/LAeXeeO1xNsgOvffg2BHei3oq12FUbiy7Du5Bq2P0MDWTGyFY3Z78tmvidk8WLuPbO/LEifiQjpKctlMmx9fb2adZxSDjc6A3fIAYcf3sSapg1ZLyvNcdlDjj46ry5e7IwcOdIfJ99Xe7/WYYV+3H7u79NubR2PtB/ZnEKhgvsx6HMapsFY3Z3jh/uGFvgxWSAEmm3szYmPPtq/xs7P0BzmcFWJsBwJt3s2Aze1V8oIS4/u3Wfs3gCaxYdcISgU/+ZDvuj56dN7NZn6CE+Rj0/l8gdzqtzNsF0unc0wyWSpnwFPsZw+2wnsYUIyiTLjG7JNHkJKzVhEXRcxmfcjhre0X8eOS4445ZSV+0o2tg8y58zplGet68Een2vmzIoo7K2jlKQgUwIWSUHZBi/J78QT0Y28xw9HH3Q2NB3Yn4A18APvNigR6b7OfPTB/Q1o0oR2z8KF5agO1W/Nuk3lallZOm9pHoXqxhRcHyAhFAy+cR9jqQE0JqHDv8JP0IBlRYn3TAu/QEiVxtI30RXiXU2zIPiKY/MCBBE4M8c1IW6jqlOd2mBbXZiE1nPsUHtvy2JR3z84Z070E4bpnc6lSpSYwuRzhlte2THXUFsXp/51JdRw9V+FEAoJsg4WZv3C9X0NP3/tTucsyweNgYCq6MmexRrYU4lwnm44tuAwgo2QlML3iPlVBda1PFf6GivoMFnEB/NRqEToUDjI6QjUFpDFR8l2iMGuG9ujx5ZRo0btCNzb+NQp7EZ2mT9/vrRQ08rUpFpas2Vb74zpVXiC1xP1soJAdgAAIABJREFUaeFQ4dtzoqhm9VwSGrKyJEusZzimJPFpT7dsaM/qUUWp0/V81lOFjRFeRjy5tKZ/jx61Q484IjUKsd271cBd7PzYggVlizd90dWLlJV7GJOc5OQFm0V9tMLL4XlP8fgNPyst3TRmzJh9ThVi1tKlpe+tW9fFct0KD+MMIUkOvCtePp0XTMmOcrakOYaROebkkz++oGPH3N60ZXjs0AL7gwVCoNnGXjp/5hMH1uq5Jw3NGayoUcxzcNNiXstl0sjc4ZYc06vfuL0FNHfWZAIkN774YtXWpqajmmxjLCeLfRpzemdImMdAF/Bwm7O5XI5RVdlPGMpqWR98umA64WpGkSIHtY3YbcmoMl/V7ee7dOq6/Kdjxmza25POd5mfJtTfLVnSZcXWNRfqJntFYz7XKapG/eQfyDQBBKGuko2gWNZbI4ji/aIq1sq2+F9aJj0AX3PI3mc002B4iW+MJNT72rvC5P0NaE5ds0b53/dfP4Ll45MMxz2KEyXW8EyajFmAauRA0S0MJYJiFSR/oibFf+iH0gv17cH3Uu33AnYgoSwMB/9vASBdJthU5Ok8zPQ2yC9Eu1IdK4o7Rg84Hqqtph3XWg85rrRn2xrH8+tZ182ARV4ft7n1FZ6x6diqquxeAFTc1dOmtW+KKRNMQTgVrSqFjiyIfMJaLopA8RxsADsEFaBYICrPB4IY918xjRgnHK6Eyq/Si6pz0RaUOubztAi3oNKwhQ/gyMliLBWRDUxDBRlIyABH949Q2B6QFmK6GIOQIkOIBmorcDZjowSDrRuuaW6SPHt2RInOh7pBto2Pma/tRvcDmGj1lWXLesll8aMhhNYzIkR6GKbZJ6vnO6F8WMJE56J1LENVGVDBgBaZfsUsMP+eRbE1GBPodxdSDIjndhPxWFaRxQZO4NYAZX+AqhBfCBazIimKX5zTtWvDXuhT4bpnpx+cYuVL6x3jhIgqQzCCR4ALB8yGnrRtNptNZ1nTnlvuWk8+ePHVG/aE7fbkMa6bNW2QqyiX5Rj3GJtQPA0njDo8Z8jE8B5hoWFZb0l69olHL7rynf0lBn5P2ig8VmiB5hYIgWYbx0NzoKlGYn6FIBJWz6RTXjtOWHRMz77nfZ9AM7iMR957L7Ihl+v+6caNHQWBO9Zm+ZMymtZbb0qVJEvLeBEARTPymIRoooXrmQI58QKF41cgUqKShvKUayXDWtCppPK5M04++dP2sVjT3mavdtYNxHwsqNl4bsZzr3U9vg8vSoxug8kk0XoAqWwmC5e5Wy+r0kxJjj4kSFLvTGP9naLDHxRVY1xOyyNuE50isnUlZZH7VJ19+PFx4/arcpvTt26NLnx5wSkmy93cZOgHEIBChSdUjPJBEcBiMbu+CIF8kFUscxrYlMAGsdn0r/lvgGyMTDEI/qEgD0X/gFGomiqoO1/o3sdrFP8KdIWwC/ConCMKnsYBokJjoV60vNUqx7wPinVRO8b+THPdhimXX75HYgH9MJFp07rVyvJ/ZV3nPNO2owJAJcXjWgDO/sglrIdmEgTEgqoAuHEj+sAKf2MB5b8T/e9X8KJ98Bu9k112FRFQ8AJ8Vc40sKmf+IdTURIaqY+J1A+ASxSqggpgriBxW5OCMCMWEx947KwJuxWrTXaY8sor8Y82relS43oAmOJ5GUPvJ6vROG8Yqo+N6frQX2QVwt30zyaQiUUlhZcENsIagnp4ux4vJRD6+wI3m7aVtaG8htjtWoUXlsY574VyJ/HhhAlnpgaB/N0TgAnXIv/HrFnH1fDOb2u13DAcE7gfLDqSGFF1oZDMaOsmnlNPl/LiXdWTLv/sh3Dpf9e08PPpTxyX57m7U/ncYRBG5mjBTnJqVIxDR7EID8+opCx9WsEIvzph0qRX9sVwpDZOe+FuoQXaZIEQaLbJbAiwn/nwgXW6OdPTvcOI0bRRRpKIonwTgCbLvwxGc+IPATSbAU7x9RUrujY6zgBZkUbmG3PHoEpOdzOfT0RiqsCoEm8BXNJDXuRBDpHYvF6oRMlB59OyzG3wZX0U4YSlHmvM713Z/vM7jx+b/r4e+ne+/HLygzVrRuQF7waQl0dBKxSOTLBHfgQe4jKzeUYRJJ039NehInpnvEPnt7Jm5icyq9ylp3MDJAFMCZgcjaoEyVxtLBm7r8LJTpl85oX7VYzmI54Xeat65k/zDn9bYyrdmwX/Q7qplObhl9TENRLACQDRjsCI+tUHRSSLsAMI9X8rlkX1gaZP9KGEKlWyorheKhbg0zUFoAoKzE94A4TDOQnNICBWiju8wG3Dxy9d1n5NdLkXZD77xenjr0zviQn26see7b5ZMv8r59njTd2OijinAKRpgzwMatr710VSVj4mpv8RsCwALgJW9Jl+92veN/tcAN47d6/vaMfgc/PHBQFzm/hDwDyRasXirDaAEthWRlHkbe1i8v8Iefu+qePHf9nW+2YREg+/WL680yvvv3sc3PI/ZWX1cN10u2paXkhigWsbKEKAxRQtwvz+I2a22JcEIP1EOVp4EBiHBUiD1//sl2SlKlpU5KAwPqi//WpnkgSu3EnBVqskwXtdNJ2lB3fq+uHJJ55Ys7uAk4DmdTPnnLSV0/57q64fjvFVCOGgSms0HmE/B3V4haj4j06ufMv0Sy75pK22a+Oj/Tt3I1b5itmzT65zjTvqs5mDUXqYU+RIQdsY/6jgBtAyUxaLf1HO89eecf75r+0rYUh7wx7hMUMLtMQCIdBsiZV2ss2FUx4YsIG1/8fT2QFIgKbMGn/CySEZqJzllxzT8/t1nTdvIjEg0995p/QfK1bwQteu+fau2y6f0g/ObK3tDW9ZHwCvIVnP6sspYgxFinhiERRMuP7kjIekPyEj7I9VeQNOtkYjl38HepTLS+LxZcO79P7gupEjkQhP/sa987rrjTfi//vhh2fkPW8CJ4hHGgwbV1UF7kBM5iROj/KemJDSbj63qJQTnxw7fvzrTCKRenrOrFMhaX97uiHTj3yfxDTouB5W4reVxNW/JgTloSk/+1n93mn13jkqMdRLVn1xJrK3bm5M53rSkgAq/1AVYBnDNjDkvgkgA/YyAJb0vjMA6jNyvgMZtCYACjFzhZfvmy5UpSpKvyK2wv+LQGZQTx5fwaUMdhntyVoafOxeLWJA3zOaMm93iUqLzvvZuI9Pq6jI7I5lxgNoGrJ1g+5xE1B1K66iFVDoB+uKkYkhaMEGAUtbxCzb207tJzYveO0MLPrArHjNBeDqc53b3zmEEtC1k4pBAXAX3gs0b4FZpoIAPqOJe4giFqB3C+CHMSfJMxBH+udZbVSfmPrBsqqX3l1+XJ5hD8vzwnAhEum7rSEVUXiRTapxxtY1sIC4Rt9ZjgUCgcUikCSXvn/9YDSD/qcFCVYWxc+wH8FND2oZFGgQpDnBtgQ26ZpQyhWHdJvAMK6IceLHqml/WKrGPxkx5sT32hp7SEDz17OeOa5WcG7cpueGoZFIXSQbFwCwZSLO3dIsQWb/pxMj3bWvAU0y3qVz5pzc5Jl3ZHL6QA+x8CpAvkc3E+4fjWLC8S8uKp+XsM71Vx544IIw2393ngDhvj8GC4RAs429eP4TDx9Yb+vVtsYOUGNJAE2wB9A/pxjNckF4Y2iP/mP/6/jja9p4+N3arbq6Wnom3Tim0bH7epHEJ4f36PHB4OHD63Nr4Ulm86XPv/b34TnO/YnGOEMgCXQAYrsiEsK3EqjRTnqcxHIhoo0xaILFPIUqRRYozhxKaX4cE7g5vSur5vcoL19Hmbt7GnASyHx31afH6hZ3HVzjR0diSZ6XBJYAI5XkTDc2ANw4ekkk/garaX86LRJZMmnSJJ0ysqdPfeRsWVb/oOtuLwHimQjeZAzsh3m5MZ5Q/lbKq3/bP4HmqnMBL3+3rSlbhVhAMJoACMDcJkCWgIpIBHyau8QDwEWDiCpIBZ+bf++DDx85BmU7iwyg/4PPC24HKAFAA5fqu5q/DjQBEsCqOlhoWUChkM6yyxORJi5vvhmznSfPHzDw1dOOPrrNYHP8Y491T8div9YddqKpm8kIuftx7ahE4Id+0Av87vb7pTnYbMlNVGB86ThfAczmn323bvH3Hb+n4/tlT9EmYjQJlCLaGWVhkUck89uisjyjs+vee+9557UqzpBYs7+++mr7d75ceWOD45xuyWKFxfGKIEtI3XMYAjYyg+RDxB8zPHklyBKFhQFKy/qXbQPskvICsfr0+gqMNwsFwLUhL6zQ38RuFllvuiZadBBgRjkKHNx2m1LbjM5lFfWq7XwY4bj7Tp40aRkY6xbpAzfvB7RRunHm08M2ss6Ntfn8KIBfkVzmtKShtiJhjcnbmsVJ3vRyXrm3etKkfc51fvVTT/2kQWDuTOX1w528wUkI5fG5dCyCDVqEwI4RgV8Vt/nfPHnx+c/t6WdkS8Z1uE1ogX3JAiHQbGNvENDcpunVri0MUCBvZCDBd18Bmo888khkPsfcvlnLjpGk6Lp2ydIXOivtl1SVtN/6m5EH1kKWQ542d257znGGZPTcOLhBh8Al2UlwGYliHylZQqQymnADWXhwUnY3padruYzh6PnVJYnEvIQcX+C57vuzxo9P7akH6cx58xLVG74coTvM5Q6vjkSiS5zKbpKrWEP0GU2nrG7kS0T5bUG3H7rwysteglsq7WMjTM5jZzx+tiBFbs/mzV6YQDHnguXBCOdZry5emri/jBMe3h+B5tL1689hXeH325pSVcjuQCIxLhg2sVwATZqkKbmDGKhiLGYALOi9EIdYdJcWE4aCWM0CpiwAlK/YvgJQCQBL4Hr/Cqx8fVskuzB5MGueiPYAmOQtYlmBJlgmqzru+5W8fO/oiy9+sa1u9LHV1d2QmHw9dKsm6HktGQMmlMhlDaDpIE5TxjgNrp1AdfDy4xJxvTvaZMfrKbCTsBEGCjGk9O4Xdy1+JjvQ98E74ND2z9sBPLAasrYLMXrwDhhUsSumpsujkemi4/z1sbFjV7fmHiEW++X3lp1Tn9HvUMrL2mctRE7iWkiuTAI4tA2UmkXFKyA03/NAIQ107X7iD9hBGhM+WKTwh2Y2CVzktL1vHwAk+p0YRT+mlYjRYrwuMYwEXokjLdiSxgR4TsPIqbL0quyy044dPHjJVQMHNrbmEYo2idc9/fQxWz3v5tps5ihcjyDCdj5HjHZQVTPN0mxOZue0c9k/Vl922b/3Jdc5Xeuls6uPzbLM3Wk9P9jUNA6lhf2xhpQw34Pi2CaTVNQ15R7zy0cvuOCfren71tgy3Da0wP5igRBotrGnSEezQUv7QFMG0NQVcplBRzOd9ip46aXjevW76NofiNGcXF0dm7tp/dQmxh7DRxLQs7GbOiYrVqu8+Cbix6Z26dllzb1Dh+oT5s+Pp7Zs6cHL8gDdsk61HecEw7JLWCQMRVXVHxsRVWV0VBiipAp8D0xjuZZpZeFdW5WU5XnJdPbpE66++vO2AonA/CTI/tTnn55mMu41psse5DGSGkskkWGNids1Ua8TiUBgyxSX/SRqmPeWdez4AibwxuaT0LgZj5+lm96dGsP14lCakoAmgR+ecxqQXXt/uSBN3h+B5uJVX/zU5OTbGptyvUX46NA9kDQiJo2kndAvfnyir934NbdxYNsAaDZ3n9N3pJJAiQsUaxkASQ6ZQP52AFr07ksIkbuc0C3l4RRd0QT+iYHS8zlfvcBGIywwaKKsMJoGrtyxPTj4jTjDLVBM64Ezr756cVvGyGUAmrWed4PmehMM3UoQ0JRx7RZnIf4QUvw2tdNPb9l+/c2BdXOgGYDPwA70uQDEiIUiRverd0ruIJBFwI2+p8/N34PtEZfq205hsSDCtjqOR0BTlcV0STQ2I2lZDzw+YcLKloINgMzyJf9efrHGCRObNPNATpShVCQxxJoZeY0xEDYSUVQ/yQehBD6nS31P7CUytuFhkCxFEpBJLunoNEdRIhoGCn4yI/Bc8BktH4F6gIL2IDSb5xRJZClOktjqQmBEYVHi25RCAhQRCdQWAKDBKLgH4ef2mhrr9ZKS0s8E2/3rId3bz7tp5E+3tRQM0hrkhrlzh6+z7d/WGfpI2XFAykOmjJKUAKINVPLS7LzFKO6Mrg5zz9M/v+rzlh67jY/yVu921ezq0VmWu6NRzx2iGRonwUbUdloKawCZ1BdlivxlCeddNWPCz19tad+3uiHhDqEF9hMLhECzjR3lA818dg6SDg9UEgnGFMFoAtRQjGZHUXxzWFXvvSLY3pLmnj9zZqK+sX6KJounuZyoqGoE2oiYNm2nCRWEFiiOe9M1fbqtRqlLD5Vy3Dlz5nDzTPNAlLk8U/e8oYgzOgiSIxXI8kVakMfKmOgoAcPCQ5RehVgwh5Fcpy7hMK+qovjy4P79X716GDxirayfTkwkdCIr3lm/8ixDVi7N5o2BHNKTStSkL01kgrFBCU4wrJxj57RNvJOf3s5TH66+4orNzScgOs75M2acAXmXu1Km0UsQVAQyFPoEwKyxNBK5v0SSHtgfgeYrKz8dB7L595Cr6gGmEJddcJ37yVwkbSSKniQIusRyWySGgz8VTBRlV3CuYAVICJwYVHsIS2C1AOlCgYOpAKZsk+MARIA7HJDWBcSJeEPotBQc06wruwjko0kUAX2luusoJkkLAd4Q0IRepZ/BjPwNRlYBMsGCUwwpS/dCNkvvecVzZwyLJq+96aKLSKjyKz93CwYzuc7z8cj1hs1OgBB/QiXXOUAWpIX8OEIEiIKZk6E+wNdxoleP/F9YBLgJ/6dwSUoAJ5gF4lYABehgUIDF9dNmfObe0oFU/Wv2cRaAJQlyAnoVPMq2BKYW115oNVGbxKvTMYGk6SgsUtQMy+J5l7VEGQGTnuAYtkWFUbfEFeX5iOPMmTx2bE1LrvufAJlPffjhaTne+UVKsw5SonEESZCpySVO4ZWwMRh+A/chtFQBAhU0kUPEApsSeXEz4nXfQ1b+KtwrDaLHNWEJUg+nronMnoRpuF2wkPQ0K2+ZrtsBx+krq5Helql3d2273HIcCAjQyQCZcL8XXO4YH9SfWGwg4QvJgrrv3QBoZaDo4CSjkU9KOPcZhXGqJ064ctWoFuhvEtD85cyZwzaK3I3bDOM40UUNMwBNG0CTzklZ+5qtW8DtM7tYzN2zL7tsRUts14KhtMc2uWbWM2NSLHN7o5YdqLk6x1PMtK+GAEaWFn9YAMUkYWUJ41458/xLFoVAc4+ZPjzQfmqBEGi2sePGPvzwgU0cMwfhiwfGoNcI/67v2k2nmrxSUXjzmB8QaF4FRnPl1k0P5jgeMYsycKDMKJLCbNlay/AR+dOoqvz8d926vYuKIBRj6U/8lEB0FyRUtqadXlvzdSdkNPvUnK0PlCXQJyQRJ4s+g+KzQHCPqoLE2BCN81B6B2zLSsFzX1QEYe4Jxx//yaQePQId7F1a966FCzv974Yvz8gx7BU5x+svyBE+JkYZUcP0jgk2B9xkgZK1PXMLRBLnJGx22j8u+wVlon4jGemc6bPOdDjvjqyp9fZTRqhqEFxZgsA3qUpicoWu3v/wBXu+WtMuL3I3NvCTgb74HNcl3LytKdNTEAH5AT8sSjogPVEQkoIguUCOHyVF+fESz93i6TorKAiG8Liozlo58HLAnBYwCFYBPG8S90nldXywBYzp938xQM+zXIEVOWAS+s2CD9YrSecdUTN1T4xGDwIAOLAuk+sXjcfa0UIkocgsNCMBdwpAQQfDR3hMBuVNySr41rPy5r/jPHfZT4844qPLBw8uSBu08HX1s892X5/PX4+AgQm5nI7TgTn04xFJ5gpJGAApmulYyXblLwiWPkvNasjDIaV2lbF4B+s/IeqIJvT+3YgpCwhNpuulZVJBzp0iLOgD/R18x2MfYG0kXrtZuibAPAw9mIjHheLFWnzEEWzYFfsDnBdYZUAN/CMpXdGyZPxtxjhu89G9e68aN2zYLmMZEWOszpvxyPG1unsdMnyOwhpLlnHrIdfEX1AQi2kZBpZgkCKzTU+SeQ2+hZqYoH7K2+a/0MPvDEEstuK6jRWy7IwdOpSEzgNQz05bvJiyfhgzHnekTIZf2dBQmnKcqpSRRaC1NBgLsqqapsZurKIgxFyMwA2MnEGedTDAEtEYClHk/Gx6FmMPCV+MBtCJRYiDTMK1cY999CeHH/U4+naXiXZUVnfWzKeP2sx7/1WXyxyH8rlioYwswhPoHRJrhm6CDhfndOT52/a1GE3q5knPzj6Z8aTb6xubBuIZyamRCCzrr738UCMLShcIp12R9IRfnH3BBYvawuS38PYINwstsF9YIASabewmApqNHPs0JvyDUfqwEMMFUJPKZLwyiX99aO8Dzv2hkoF8oFlbez9KUpxbVppUKaYLmtJMRtMZV5U+4T13wpuXXvrRzsAaYZB73nqr/MvNm4eu21LzU7iuD1Pi8W7pTLpdMpnEXABmAy484FefZSGWQ1RkaIR79RZjLYrwwvOiaX829vTTvxzXvv23ClXTxDrnkUd6ZN3czwyBn8gr0X6kpMeLiHeCN1JCvjtN8VkHDIyjfaZGxOe7ROIzRww5et3OgCxNAOOffOpMXXBuR0WUPiKn+G0leRfEnzVFoomHyj3rfohnb21jl/8gu1V7b6nPP7VqDCJl76hLpaAlKoBxgjubsukpy9mVKGnD4UVvfu927a6b1GGMr9m4elCzDJkdWp5bu9aLVlX5975eU8Mh3Yozyst9H3Dj8tVS6aCeBeqagMnbb4tS585+6vKcxYsreIPt4sjC4Vub6o4Fk3qoxTLtZfwRoRhFYLgcploP0kMq2FIKt8hkNYRvyk2ioD6GMjVTxl4yoVW15i975JFuTYnEdTYnXtDQ2ITwXMq7p2m9IIdjk46mJCKEk3ussle33x9cV8eP6Hq63/7vssF3dWbPYhlB/xiAD2Qv+rtDVZX/XrN2LUv2C74PbBl8pm3ou57Ll9styTjGvSAtmzP70NWp1CSL5cYxklxqaBaLimPALkj6KSbqkCSsbRtYftmfu6b2bjIRe0M13Hf6d+++tc9PftIIQLO931oyWIldnLZ2bZnR2FiWdrKl73y0spfB2oPqs/lD1ERJP1Df7VGxFhEWhQRBBcUeaPGnm4iYJgknibOMVGp1TOKnVvKxx6Gf2iKgOe2pp0Y0et7v6nK5EWBPcXviPkXYEYF6Bwg7b4ES5pQZnTzrT/sao0nPx4uQdY54htu2bWsYCLUFjuTt/NAKyuJHX1Gojyjyn0cl+5rRfQ9bDAC+R3RlW9Kn4TahBfZFC4RAs429MpZqnRv2U7pnDVSiBaBJSRmZXM6rUMRXhnXtMeGH0tG8+Lnn4hvWr39c4/mfqaAyfYkacC1UetLk2H/DGz1h0SWXfPhdl06TEIL2O6xJpQYwKjc6b1ingP3pAkYI1eEw2SMDnLyzgHN+3FgevjkxImEGcjZIvPPvzvHkk7LmvnPqxImpHXXkKLN88WcfDAE1co6WyfwEutNVOBayAojBQewgjkltNnUNXlrrk6TC/TWeyr8+dMSITd/20KYJ4Dwwmgbr3p4xEMvYDGhiAmtQ4iV/KXWMB/c3wXaqDPTqsjdOQQDAH+ugo4nYSF/eiIAmKFvG1T0wQHk7kVD/fsQBA66/cejQtW0c0i3ajbL7AT6jryxf3s+NxX6GlcQZecftBzpQJLrNAePmMJhoAUwowYQD64ihAbc8/wnGw5+O7dDthV+eMaqpRSfDRgQ0UyUl16Dk6EUN6Uw7FfcaEXWUEESRmXZOZ5RIdBsyfh98dvz4m/dHN+UdTz7Z7qN8/qqc4F6CykzdXMR6WHAhy9BnpBBaP9vfV4Kg8kbQt5W8m0oF9eWIKG6BWz63p1zLpFbxSmNjuxpR7CHG5VNzhvUz1uV7gLFVfWa3mFxUiNlFWpqtr4ya3tRSVZ079OCD17YEUNFz5VezZx+DWILfNejG0ehMHBou8yLQJFc9AU2WlWeUeNZ9/9gHk4EurK4+BfVtb6/b1nBw3jF8oOnH7BaBpu4YjCQJkDfi/uN/Lrjgtf1xTLb0/gy3Cy3QEguEQLMlVtrJNhMnT+5fK4izNUM/VE3EEMNIpA9q9aHWebnILRnWvdf3WoKyeRMxOSfXudbjWdf9KRIJ5DhiNGnFnc5kEbDlfCy7zsRF11zznUAzON4iCEY/+tBD3UzWPsESpJMwLxyXd724q6AeDGlvwo3u11FHrB4qizAoH+dEVUmDY+/dhMjOLeXU+VMuumgVMY50TMSDis+6+ZFNrnllLmcNi3F8GWujrhIvMyolVeUQe4bjmZ5tZrc1/rsiIj9+/gljZ59eVUISOeT93al+Jx3/nMdmn6xL1h9zRv4gApr+BAZGE4RbbVSJ/iXB2FP2R6C5aNmbZ6Mbbq3JpKoIaAaMJgFNklDUtYydTMTnHtarxw03Dh21V4FmMC7ISzz5tde6vLN54+kpm7kUVNqBpot4R6xiSEAc2SO+YJBmwI2oxEkRvFE03ZlRxrr/6csuoyzsFsVqXlb9SLdGN/6rnG5emM3rJRSmgmICvmseeSmMgThQANqtiqTe++ykSX9q4+38g+1G4/bKGTMGID769xlLP8NgEW6KGEkgLX9xyMN1TnJGBgoUuN7/Z+864KQoz/f0tuUqXXqRpqASC4qUJBZssRyIdBGM2AuiookmihiN9Y+KjV68Q6UoikZBaWpibLFhA6Xf3d72nT7/551jDTEod0e5O7PjjxDuZmdnvmnP975PcSopPEEVvVuGB5tsI351TcexNgdI5xaTzJa7XHdg2rKGRVKpkzCJCJIAzBe9kEiI42Lg3s4Iy+aM8S27fVfTqEoCmtcseG5gBePcFjEzx9N3+RZRuK33rGgKnLA45Lp3N1SgiYfLXTvLK44wWSQDofLs21sQ5xn3IzimjKBwXxSw3vUlI8a9kmud1+bqy637Sxy20Le4AAAgAElEQVSBHNCs41klMVDMsJ6NW0ZPevmRhx5VmaqSaJ1z7OsDOnYZXl8VzauffLLZZ475WMJzzgjImqSQ0TkehJFIFFpu+V8FkjTihX1UNPccFnoZ/q3qm/DsZ1ccVc5yF2lFTU+JROOtwL8T8sMaE08l8JIgmx009XTwyKiFGons7NS6zRIuk3p09iWXfEwvRKpk/uPrjafiRTUhoqePV0U5oCCGyG8NApygC1qtcGdZS8+k/96pSeGTTSKxlx+8+updNXmhljw597eW6PwlbqSOlHh1T6C5fTfQfLqxAU1qnb+ycONZDqdM3RlPdCCgSS98EmTQC5pM223YwRTmh58/tl2nQwY06fqgKvIV06e33ikIl+qadhW4sQF63wYhCoLyDEIj8GPBDUZ8KBOJxS2ZY//WVFFuKRs79oOa3nakOk86zo0ZlxkRTSbzFE0lRTvhWX9iRwaQiHaPYigeWjZy3O013W5DWW/mqlXK6s2bR1kCf11lInG4FMDxoVltE78Yam8omfy4Vds0LXBm3wjI/LSrO3VdW1Ngtz/HSe4Vf7esU5KefUGG406LpeIFfhdDU2zRYt9AxOZtE9u0+Wdt9oWA5tWLFvWr9LgpVaZ+MqjBewWaqITPb6brf1k0seGpzseWlZ2JZ9Rduyoqe+KkcBJoRGS1itSuH4AmVTTzJObascPGrMolA+3PVZj77C9hBHJAs45nceT0J7tVMe68pG0crYTA0fGj7Fwmmop7RYK8tn/7DhfUF9CcMHdui83pxKNx1x4cVFWkyLGMDHVuNBoFd0heC1bf6JcmTgT9rHYLVR8uWzSr9XdJ80JWDF7gSVwnyzJCyF1mg4rKogrhQRTipmPxhJFOrWjVouWSfJl9KyQIcZQjm0czqTPx2rw4mk71AFoSVFkGpETPFUKHGNpNcT3jIbrNAvHza9itPzTprPMWnFSLZJmSJxf81pT1qXFd7y1zgNe7K5r4qu2KEr6/uZ16+rHhw2vl+1e7ETrwaxPQXL7gqzMhbb37x0CTTLV9Y/1Mys4LaS+c0KENWuenH5KK5h6VTW78rFnHfucY93mSdEJ1VxXKGVQdJXhcmmgBw3SH2oqO63gfiWbm5teuuOK1mrYTL4fqfIcsT+ZFeTjEF2EyxRZJEEQ+4hBdoKPABDStHOblj68cd9kfDvwZOLhbnDhzZvNdgjANApiStKFrwQK4LeC4yJOR9FkyOiWSC0Kk535mm5lHWMcrxb17yK5haqe/zjCdKq3M2KpM5kLWsZoEAsF3FZd/cFD37str0i7/0aS1Gmi63BRUNE+mZ0q2dU7q9ixHUxSVuYW29Ujp+PEf1mSSeXDP0n9ufdzyxWdxDjoMFZVHgjrFiZhM/Rhognr6ZaHC3zSoU/dXaiuAO5THkvuu3AgcihHIAc06jjIBzZ2e86zumkcQb4xe+r4YIgOOpiSt69O24wX1JQYioPldKvVY1LUGB2CUp4HTJ0FUEEdFE3nGrxax7A1lV175cR0PnXkYxupryst7xB39fFcQzwB/s42IxEfXdMwAr30OsuXStu3aLZdU77M8w/De27mzt+i642Ctcobg8s08kD3JDicMWygbVRuYBDJopXt40WbyVOV9qyryTLumrZbPHDKkvDb7OHTWrFN0jp2G1nmvbOuc2vlonW8PqkFqnTfKiuayBRtLWEa5nVrnWTEQgaxqEQXEB+mMXRCQnj+2y6GtaGbPzb0rVwZe3/TNBCckTxYcvhkRC21yJoAHK1WpTfxPMgPjLMf7Nj9fueuw/CZlz5xzTo3Sgqa8/nrbz7dtnsyyyvDKeCLMgQdKNkpkiu27CsC2Ky8YjHmm9chzIy/6Y00BbG2uq4O5Lqnqt+r6DKQungJfVMwIRVjkVBuq0wLbJiYaqTA0VV4CU/g7R4fDnw0ZMuTfzvQHc+d2b3sFYiNXPv/skdtj8WGWmTkSnqGLTunSbd7YgQNr7C6xx8REum7hwkG7GOEPVenkcciLr+48/IijyfPigqaed8+iSy5pcD6a418sPZtltDt27So/kjiaWaDJoatD3ZmUmYaeS/SB5vltOr1cE9eBQ3Aac1+RG4F6G4Ec0Kzj0A+d/kC3CKfMRxv4KHrx+VG3eDkk00kv3+PWndDqsAumnHNOvURQEtDcqqceK7eN0wOI+IGdESMAzyVRVwSf8qUj2ra9Ztppp31Vx0P3P0bt9LvXvN7tzc829jU9bwAUIIdzHv89zwgv5uWF35o4omTTO9980/Ktt97qzkrSUPjunanr6cK8UD6HeGi8TyXwOZPwYZSZFMwM4ZcZQUVjA+fqZW1Y7ZU5o0dX1mb/aH8unDPnDIP3/hzPZHpmK5oENEWe36lqoYeb6eyM6aPPq9V2a7MPB2PdH1TnHn/3rlisEwFNP+scJRSiaxjwtrYM3c4PB547rmvXmw62GGhvx0gt9NELF/bcZqYe8myvX1CReWTR+xVHBxU5EgTFcK4VVdkJa5wnWwbFx545Z9i2mozXwsqtrV98ZfXkpOWNhOAsLCpQt4OfmUknGRWpRLh0GMETY5irPPLC2Iv+0NCqX/s6xuGLFv1qayz2KPoBfSTcp+ndABqkZV+1nwaVRFXlOCD1/4XNxAMLL71hn8rufX1nXX5PNls7t3/VmbXlgqImTbYXn3jiV3XhHlLr/KqyshMqbWdKZSo9EDSQ/1KdGyZMXAV1SRHj/HnxbtpNXfb5YH3Gr2h60p27yit6UkVTwDOMKpo/Bpr5GnvD2JLRlF5GVlO5JTcC/7MjkAOadTj1BGp+N+ORbglWKEVFrkcwGKTQOr/VlcgAaHLS2n55+SVTLrqoXoDmNQCan6OiGfGM0/NUTaI4bN4EusPLH1rRFT0PO+zqaeecs19AMztseAGJb777buu467ZvdViH7Xye+h2M4J10XO/IOe6YmJnpBw5rV/A4Q5qmsqKMdiqEIjC5JtEPgobsNH72Ofz6/sbzxuKuxW0+fmTw4Do9mIc+Of88U3HuTFp6F4APCjzx85oR1VepyIGH8lhnemPkaC5Z8Al8+7Rp5YlEJ4Asfwz93G3MbljyWcwYdn5Aef6E9l0mXzvw4KrOf+p2GbZ8efGOnVvuQ4zpsICkSNWxkDB994GmyETicUYLh6LwG18cMI0HF48eTxnWexV27fkdCysrWy95+aVJcNkZFUcEJQeQjb45uZf7AjxQVBmNV2Ii6zzy7NgLGx3QvGjWrJN32N4zvGN3JKqBQ6lPGDsFxU1aSFgCg/ldrOROzVebPF02ZMhPWobV4VF2yD9S7aM57/hdHj+lykj/GjRv+HVV2xv5oiBQLnTDtHlJKS1ynGkNMYJy7PNloADxd1dEqrqTjyZxNElsSWIg4rCSvZGiSBvDHnN5TnV+yC+x3Bc2wBHIAc06nBQfaM6c0S3usKWmkekRAMeQcoPpQQnCvFfAimsH1CNH88aFC1t+HK+aWeU4A2VEhgRgRSRBkKHHk5RD/fKAww+/+sZTTvmyDoe+149QRYt+QcDhgVXv56/49N1jA6H8M6sqykt4WSxGGwmTfihpUaGhCiOlzEjYJ103dHgsvonIwsWFzYpfCzjO9tKSEghua6ZI3nNn6JwMm7PofEsw/xw3jM4ENLM+mgQ0VSX4cNMMM72xVTTJ3mjVutXn2Yz0ZwDN9nsCTV/I75AxumHnaeLzJ7bvVm9As6R0Rl6kyr5NZPjLeE7QMPqYSBBH02JS8HEFjID6XInLAbGMj6Yeef7iiynDep8t4OcqKw97/pXlk9I2NyqpG5jD/RtoUuQj/L0BNOUYx9mPPD9m+G0H6po+VNsZMXfub7dkzCcQLdpOQWa2DzQxIVRAN/DFdThcR3C2O555Vy8mNeu+UZNgj9t4FwKac2eXnlApWFMiGX3Q3oAm2RtJkjo337buXzx+/Kd1eR4czBHaE2hmXNNvnWd9NHNA82COfG7bjXUEckCzDmcuCzTR/ikFN6wHJWcguaQ6ycZIezCmXtObk4ZMHT++Xiqalz8xu8s3jvEEss77ZoGmApvDZAxiIM5beXLHLlceSKBJQwhLJdFu3r6JFSk/2ZHFi6qiyeMFiStKWwYnk3gDIJxAB7VRqdIIRa0BHtbnpuM93LxZm2ULzhwQwWa8IYjDRNVmnwBkb6eNkoFsGLYndgNN39D73/ZGBDQfb4xA87XVr5+FqJ+pu5LJjnsCTaqiw14RimTdDqvi8yfUE0fTP/9orW7++N1rZC44GS3fMHEoiXtHCnkKCmA4XAM8GwuG1fl5qeSjs0aPJ+7dPs8ztc5fWvH6tVCdj47rRqFPG6AsbsrxAX9Rh7JdkZUYmpePLBsxotEBzeFPPfXrrZ73pOSx7QmYg7OIRCZMxAyqCCOOkVItRW97Wk9P7cHIz8AUvVbJSnV4vB3Uj2SBZoR3bq3U0wN/qqLJCuriAs676/lx4ygFrEZWWAd1x/fY+J5AMysGytobUYSmX9HUhC/CDndFrqJ5qM5K7nsa8gjkgGYdzg4BzcFonWe46tZ5fggyE+pM46WXNjNonfNrOgNoPlRPQPOmmTPbfaTbj1QxximhQADx2PCoo0hnVEokz32192GHXXn7GWdsrMOh/2RF84xZs5oqSGeLJ/URalDpALNnJOghfRv+mj4XE21B8tusjMQ8hRfilmn/Q1XDM4u8/JUTugSjL5mmHC8qMmccc4yfUFOXl8tPAc1s67xQkx5rbFnnxNH0W+dMYFp5PP4frXPiBVsAJUgBtUOa9MLxvbpOvq1X/28P1HmtzXbgt6o8OP+pazI6Oxl2Q/lIKgSwpLzwajCc1n3gWRXQ5BktJOWxGSUlW2rSOi/9+us2S9avnWQ6/MiYkcnbE2jStnVMXtCpjwku98grI0Y1OqBJFc0dlvU4NPkdSHVNIJraAzLuApq4RuHGwElchSSw94cyzqNll14aq815aWjrVvtoLhhY4bB/rLL1Y2FO9YPqPNs6p4omXAbmF3jeXxsy0IRhe3fy0SSOZtawnYCmiXhUWeXho+levjCXdd7QLsHc/tTDCOSAZh0GnYDmqU/89XCXC89BKsuvAgEkQ+z2kYwjGahQ4Nb07Xj4kPpSnd8+c2b+exlzToR1Tw0GVYni4xyovGVKanHsF/q0bn3TgQCaVMWsKpCK4hmvJ2JqzrANazCiKTuiclmdM45WOQ+gyQN1ZBDyY2UyTkgNbUed63m0m5b2+3X/d/s0a2bc99jsXo7M9WZc4+tQXt4/6spD+8mKJpKBAlroocbYOi9dD6D5xacXoKJ5ByL72oGf+ANHk4AWJcjYUMQEA/KSQR063Xxd34EHhHtb29uiBCEBfGF4cjSevgJctRA4an48KUJuADaRjZ0GYGLcHSGJfxRhl088VcNJGAHNZRvemqy7/IhEOhNGedwHY7iifa6mDzRFMapBm7Zs1Ji/1Ha/63v9sc88M2iLZz/uuF5nApqUiIUkBAickLIEfrEB1Kmbejw/oD2qmPb9ZRdfXCsnhvo+vh9/f7aiuYs3b42YxkDYwvliIEqf3xNowt5oXhPXubchqs6pognjjLsj4GjCxdZvne8JNLMVzTyXQUVzbC4ZqKFdhLn9OeQjkAOadRhyAprnPfhg10RAm2ea+tHBkIYXX7VhOdS1XpEor+7bvPmw+lKdXzZ/fsHWeHpxJeP0C2qqSEkttg7ZOTwrUWNccsxhXSbffka//apoXrlihby5srJdwtH7S7JybjqtH4sXZR4ZMFPLmsA3iUGomgkw7sJeCPaA7heyGlghmPpTx/IdfVrBZ+LOIzK2c2nKMgeg0f2VkHFm9+5w2Ct3n3FGrCYVrz1PHwFNh/Omxq1Mp6wYyG+dV0dQPlwscdMbW0WTOJqvrf/bYIYNTKuIJzplgaZvVg5IYkF84FiGE9LEJce163Ljzf361doftQ63wH99hPwgN2bif3QF7WIZ3q0eQBJcBqA0h8AFImIX7GDXMLcUKOq9bRhm7oNjx9YohpKA5kvr192U8Zjhsb0ATTI1lyQxpnr8I0tGNb6K5kgAze22Pc3mmD4SULlEAi+iBgCcm7h2WYDPTDJhSxy3NsTzU8dfcslbjVnF7APN0tITdlrWlEozPQiuqD8AzWwykC8GEuUyVDTvaogczd8DaBouO7U8UtUjCzSzHM1s6xx0oc8DvH3VsBGXvFnbDPoDcT/mtpEbgYY0AjmgWcezMRQRlFW8t9B03F4BAE1EdVerztPE0eRfPzo/f8TUelKdX1la2mRTRWJeFWcP1BQYCaFtTQKDNOyNgoq0om1h4bXTzzuvTkCTPDRXbtvWJukJR+CAB+SLUn/TSLX2NRmwZ8ELE4pLhTFgpO3alhcUJMtMZ77JpNPvaFroJVGV/tGie/ed3//r+xYAoj3NTLREFPjfegJTjEzlDGtY/+Rdaxleqi9f0aPHFzVNHSHwf9HshefpvD01aaQ7CSzqt+QziZe1IIpVmhJ4sEAVH22MQHPlujdO5zj1nizQpPYx0dYoJMC1UCc0DUdV+KXIm77xxj59vq7jJb1fHxtbOq97xLT/mjacUwCSUJTzyJYHDgM6PC+hPoesmHftD8KCOPXCbj1fqam34M8BzWquL4QzghyDHOOR50YPb3Sq83FPPdVzK+c+YHjuACQMCDJuIJ/PDG6rQRZW+I/HBJYzjFhQ05bYyeisi4qarYeXJm65xrdkgeY225pSZacHsbYgwH7Mr2juGUGJnNU5zXj+/tKxY8mdoEFxNMneiDHZO8uroj3JRzOrOqdkIAKafta5yv8rzLrXlOVa543vIs3t8QEfgRzQrOOQVhu22wsNxuwlIRYPwhbitTNVibgXdLw1/Q/vWm+t82tLS1t9EYk9HmOdUwOqKiIDEPVWlolXVjKBUOi9sOeOBderVobtpCx/5OWXg3/7/vt+yFC/yJVCx6JK2irPdWQtoHIW3gU63GpctMl3t0wRf84jetz8WrDcuTLPLzl//PhNyDp3jDh3ZJUTvxDgY5AksZ2QXRSG3REE8Z4Xgnw4HovuYgP8/DxGeeLqCV02D2QH+rzNn1sIaA4F0LQk4+5k2ugoMAqazOAH4j8CmqqsPJDHeo3O3ogqmm+sfv13thK4szIW70AVTUGizGmqfFUDTapoarK09NhO7SfVR0UT6TH8kni8JC5z9xomexgvyX41GwHnfu454YR0Kp1AWPYy1bUeKL3ksg9qIgSi8/0aKppzN6y7IW274Gga+QK27bfOYYfDEiCzkJ4DoIm0aajOG58YaFxpaeFOPXWvYVvncx6XJ/p+jDBtlxEvivFjce+Cv8lIANSwdIpbTmZNm1Dx9ReMGLGpMVY2iaN55bx5fXcKzC2I8B3koQMiQii2N6DZynXvWzBhwhcNDWiSYbtjCn+qrIoekbU3wnTAJz3YOF8ENAWF/xh2atcOGT5udV38Rvf1vMv9PjcCjWkEckCzjmdr6APTu8U0YR4qmEeHiwrg1SiCL2czlbGIVyCKa07uWL9A87NExYyI456iovylQenNgaMJY28yu/6X6jFjlkyc+F5ND70UMXGfrl7d5MOvvjg97nklPK+ewHt82GM5VmV51jAyjBxSmXgmyWhBlcnoKUdPJmOIk1zDOuyrkiy/WjpixDfUCifAeu7sxb+JJRK36J55jKCg0RpUOc/IsGjyM3oixSiBoJPQM5tQIVhYJIuzS0aM+HZfD2va7pD5888zGONOuP10ZtBsVNUA+G0pTAA4tM6DDyCo+dHG5qNJQPP1N98825GUqZFkogM8FYE00VqFtREZtpPQBlVDpyigLftV2w43HGqgSQD/uhdfbPn5tm1/cFh+DGpyEqpRgEho6ftpL+DnplNuWOI2So5xrxTVly28oeam4wQ0F7yz9rqkw42CwXcBUp58JTuP1jxZTZIE27bMWDNBvWfJmFF31/SabijrUcTjQjc9nLW4qxPR+BEhLQyjVIFJQLnsAqQjbIvhAdThT0oHCsaEl0SLfXERK72iBIMbhpWUbAPRcZ8TsYZyvAQ0L4MYKMrzf4jq6ePxQIBekJKBIFhEZdMFzQJCQosV5DmtXLNBAs2Lnys923NZmvj1yCYD8bDagq0XnDUcRrd0AE3usyLeu/K8HNBsKJdebj/qcQRyQLOOg0+t8xjLzbZ4/lf08vNfqiR6QeQiqjZruvGBIQ9ecsmu+piNU0Xzs3TFjArTOqVAy0MGD+bbpoNkoBijBLWPAgJ7cdmY8fsEmgTebnhjRestW7YekTDc3xisO5BzhU5Q+KgBWWNNE+83IB0N1IGqZBQPWZMRJdZ0XWtrnqisYEx9eXsx+M457dolsy1wn996/zNHOkF+pCXyp1ue044RODU/oDqV5RV8YX4+G02mGfQFHcu0thUq6vwA68yFCOLTfVU0L1yw4NyklZpmWE5HkQ2gAwlDb9diWInbFVJkRFAyTzRGoPnKmvWD8RKeVpGMd2IEpGCTOnk30NQNOJbDT6hJUFt+VOuO1x9KoEnn8tL33lO3f/XJb+2UfR/LSR1d24XoHFVMgCUy4vY4GFgnYobkOC8HTfOPQ6+++pN9TRr2PM+vf/NN2znvrJucttnhkXQ6TD6a1FoWQFMhG1ECmqooxgtc74H5I0b8qba83jre/gfsYzSGY2bP7l4ZT93sctwFkhaQdYjoPAnVMYB1UFt9c3qqbNK9Rv+ETjslcMInqO2ubMmLG1qr6sftHWdXY2inE9CcOGfByTGVuzWSzvRrbECTztclzz0HMZB3V02AZk51fsBuldyGGvEI5IBmHU/eJXPmtP8ulV6UMk2Yk4eqrVzQOk5AdV4g8mv6tjsMrfP6iaD0k4HM5OMViKAsVPNEETnnMkQGFZW7GDk/8LljecNfnzDh/Z8DwVRJW/3aSx2TkngKy0tDI/FUD1SroLkg6iPm77D0IDsnipPEVJ6JZeKuoskp1zO+ctLJZ9o0bbHknMJW0SEDB/5XkglU8coOhmleIUknl8cil6QgJCoK5UnhUB4b0zM+QHHhFyXwnGen05GgLMwOBgJPnTV06MafAikEioehoplxjbtgEN5JEcIc8aXonKDYENEaaUWzdL2nLts4u8SR1DsqE7G2WaBJQiDU9RgWx4g0FQfJQMuPanPUdZP69zpk9kZzduwILF++vG+McW6CeXp/z6W7ACATeZAsqo4WqlQ253ixnVu3tVHz/3ze0UcvHn3ccbWKACWgOX/DulsSHn9RVToVJABLlS8eYMzHYMgKEB03FnCFu+f9fuQ9dbyd6/Vja8EYWTBvwehtyfTVOu91sCW43QKsCxhDapv7NAQK0QZlwE9F4iCswo/hJpGQLOabwsL81zLR1OstgsLnVcFg5tyiolRNObCH+sAJaP5+wYLfxDnxjxE91Qf0ikZV0dwb0CSOJt2NHKgsFs4XVTRlVdwYZrwbnh055qXGNvk51NdE7vt++SOQA5p1PMcXP/ro4VsYZn7GcY/REEHJ4q1H2c7RZMIrlIQ1J3dqV29Ac3Jpad7HsZ0PlxvO0PxAnizh/U+ApDJaxagF4S+CvDds6ahxH9Ch7wk26SFaxjDiq88/3zRasesMQVMujBt2D1joFJP0REBtlCgCHAzYk6kMPLgF9G0NF5UlZBOzO/RU5KViVVnSVGvyzhNDhvys35//wC4rKyjf8f35rKxMAAutu4cnNuqPLHHvgBJh+2n5rVdwPhFdKDx7dOe295064NRNP9UqHDl//mCDd6eiItpTYDVoKKptcHiJq5IC2v2ItGt0rXPQFtQlsxZcwCjinyriUR9oUgXdr2gCZLnwpyQfqYAqrTy+c+crJvU/+D6aBOpf2Lq1YNnSpX0zoeBVccs+GdVtdHSRdI+2OV0fxNnNIB8ylYjZTQLKhpBh/b7k0ispH7tWIhYCmvPe3nBr0uMurEolg9mKZhZoci6BMSsRhI/mvMvGTqnj7VyvH6PxvHLWrC7b0ulroqx3ARMOFwJGsmRLJgNwAmn6jhbAMv6kDnVNPGscVOsRVckH8E82lo6lthcUBD/2bP1bpG69Gk6nv0VNP3H2qFF6Ee7SPiyLvnv9L37rfO7ck2KiMiWip/vjIHf7aDae1vmYxYvPwlPqz8TR3DMZKNs6N3Ddk49mHudde9qJg1aNbd8eiQW5JTcC/7sjkAOadTz3Q2fM6Fjuec9Zlt1L0zS/ReiLHnTdawqO5tFtO9abGAjWQ+GvN216otLOnKvJISmgaH7lMYlqIaPJG03PG/nWqFH/2A00XVKC7kIHcskTTzSB58wR0Yx1TDgUPiOtZ3qKoiRS+ooYUBkbx0cvPOKikpIYm7QMtMl5wfuXZDpvF8mBFeNatvx0cA2zyglsPrjm+eYff73r1C+2VJyrFjY5kRPkfMux+bxwAHnout8+hM0LNP38dolhFknp9MIRxxzzSckJJ+g/AsnckKfmIBnInZq29I6iGOZIoKWbmSzQ/D9wNB+ZOWRIo/IhJKD54pz5Z3uy/JedsarWewJNFlVq4obZhu7IsvTKSUcddeWkXge2oolzJKxmGAGW1GyqqkqKR6P5i197rbWhJ/oq4cLBUcfrA15agCYgCiYixLUzHJsxOQeAyDYcU/9Ms9mneha3eOaBIUNwAdZuIaA59521U1KuOOzHQJO2lErqTFFBfjIEsdfgC353RwmKnPjxf6iUDwZ9ha7dnzgS+jn9AZm25mppAmDjFiw48ftk7LI0ww7E3KGwIK+AY2FLRqrzavEXxG2EO7F54sBCi455nodkJCSTYVLGOrbDOk4kHFQ+jscjX4dUDRZimS2wENrhmuaXvQoLYyeedpoRCoXSx8Cesz4qbX7rfOHCE6IMiwjKDOaMHsT2e+doNuO9Bqk6H1tWdibO71RqnVMyEHV3yN5oz4qmpIhf5nPM9WNGjnm1MYq2aneX5tbOjcDPj0AOaNbxChn65JPdKi1rASKJe5NnJAFNqmhGohvBFiIAACAASURBVFGvSBDWntymQ0l9+Wjes3RpaN3WrQ9EHGtEOK8Qgm+AkYwFsQ5ikhX+a1UQL5nSrt3aR8vL6YWsqpbVPZFOHr+jsuqYJs1b9EYhpR0Il0GUzjgHVRNqg5rgiVEbmkeFBbZFrqqpiJ5Of4SEvBc1jX35lC5HfXVpnz51isejl8+I+fN7RaLxSyyWOxvKzSZKQOF5WWAQYQnuqwQAb7m2nqkqlKQVRaL1yLwxEz/Ei/I/qmMXzS87z/R0AE2jk2vzPCwmfT4fL/FVmio/3tRLPvzokLHo2jeehYDmsoXPXsjxwu0END1EPGUrmtRN9SMobdtRZWF1j1Ztbj+uwzHfBcWk+Pn7n7LfG3HQXy22b79+buz7XaguJljkwDO74nEGwJE5+fj+3ve7vmc+/+YbtkWHDl5k61b/99i+ByMBNlzQnNv45ZdQQjvwR2WLK410e6Cnwy3XPRzAtkvCMJHUI6O4CIshgHoCmyZAJhlWW7xnIoj8PdbUp7fgQisXXnppRV1GfeXWra3nr3rjprTLjozqmVC2dU4Vb38REAbOMIbsuY+0CIWe0VMpl8+4nlQcwjUP980fLTaObV/7QWNDiwNNij9Qey6gxGYXQYUUDt9BP8r+WJJN3tRFUbOs8pJ27Spqas9F24QwSC1LJk8wJH6sbnu/BXukqeQzP6rTgmghTRD9IZhLXpsSpyAMAcb4dF/CyguWUl4yHnV5RQTF2dThbJYIBLVkKpn4ytWt7YUBrcLT7S+LNO3Do3r02HHMMcfEDiXoxL0uXr5w4XFRj7m1IpMZhNsT7kaNSwxEQBP3wV1V0VjPHwNNEgNRRdOPoPT4XATlvm623O//J0YgBzTreJpLnnmme6WeKTVttwdVNKnFS3+glvYKYK78q3adSuorGYiA5t93bnsw4tojGE5BcApa3jA4SsBAmw9qm/FwvxTK+FUFVVXCd+HACaZpDPd0Y4DCSC1FQRLgTchD88qoFK2Jl5cEzp2ewmdRQxFYL+XZ1ibLNNcXhAMvhtPG34d16VJemxfq3oZ8hefJj0+b1t0pKL48YVmDOZFvqmgqxO1kGQJCGl6qVlp3Aem3yaYx84iuXZ++c9Cg72hb2crR+U/PRRueuUt3rE4OOnJk/0MgiICmFFAfaipJjc6wfU+guSMa+Y+KJnEWDPJYlCVPk5UdkseszrOYpOhZEJTYTBBVaIOxfK9J1vZYRdPcXbEKjxcVpkAKeC7MzllJ8hLxOBsM5UPAwwEXwpkAZSbTpsxSRrIdRwHgQstabhmLxVrAdT+oBAPQoog8hG9MXjAMPIkMe6iFqX7ncKi1SQx4udZHnmHO7izlPzd99Oha8TL3vD6Wf/FFq2ffXj9J98QxVUY6b8/WOa2H/YEKXfCK8/LfR0zQh8FgkPUMg4ObAZtMJDHLwFwJREe4Qnk2+C0cquPYS9AOqquNEHXgMuEEz2FtTKgE+j2uNcJyEjLH8REiRf57wWSLhP8iPoXirQ22JLYLqbQpkTQcFme6wSHJx/UEb22LYIsXa+vbSj616zdt6mWGwhemTGMkcGYIFzKSglDR9Dmpu0Hm7gonwWyqJCczaSaUF2SisQTjon1BtBacO9g/EV9Q9RwDBBjcDJqkZkCz3uba9seYhH0e8MxNoqx8dnq/47Z0bn14+cFusVOF/Mr584+r9KRbI3ri17hF/wtoZjKGDRrNs0WsN61BRlD+BNCk6QBxNHNAs44v1dzHfrEjkAOadTi11DYbMmNGtwrHKQVp3weaVGfwUPWLwEeziOfWnHh4+3rjaM74xz+0N95/f1oFa40HekBpUGRUTkK1tYpRigp3srZzdTs9tbyqoEApz2Qm6WZilMrIzRSAB4RnQ4yD1xfApQERAlnIgEfF8PSeMoy44jBrmhblPwtvynfGlZRs7cuytW6H/tSQU2Xz/Ice6hXn2TGw8zkXoqNmMIHnEBQCsAjuHyWl4CXEW8ZXCus9fmKnLgtvOOWUcgJGxHM7f+b8EkkT/hRNJzo6NscjDhMgCxU6JANpmvpgY/TRJKC5Yu6Cc9Abn7ozGoFC34GPpuRzNKma6aBaDVAIjjDwhe1mRHA2VUUm2gFy5gE2UIuWBIlFBChVpD1RywPtAYVgUGtVfDZtGqiCqUT5QH9cIt8kUjX7FAkwcKFwl1gjk+Fg+k8UCuAqkHhlCRY01Z+jIACquEnAb55tuibHxkEKXouLZm5e2l4zd8KEnfvToi0F0FwGoJlxhR+AJlXAshVNF5eqby1mmDhAzrJQuZdFgaX9C4WCLFrQhMcpzhG6E3hR+hMTBvkA9DOgNupD8xxq9Rg/sIN98OliXUBUnvUB538sNC407UGj1CUIS2vA79KFgMfjZEzDdBhsGWmT5b2XWqnyXaUjLttYmxY6fRnFji77+ONupqxNQ4X5aOxsPhAx8GF1RKXfOsekFpp+RqAIThwMqp9MBudSCRHlpDqek/aVKvqZTAZoDt4T9P9N24+fF2RZd9GSUBSxKiAq32YS8Y9a5he81bqo6PNIZeW2+0tKjP05bz9zj/tAM+KKt1UayUF7A5q+vREnLCjimfsaItAcXVp6Bob7rmg8cQQlA1HHhVrndEaookmWVIombYT/2+XPjhqVi6Cswzs295Ff1gjkgGYdzqcPNGfO6LYjbc9Ff+ropk2b+vzMDFrT0VTSayqra0/o1KXeKpoENN/87OOborZ9jemxIVICy3iiG3j5yqFQxM6krjmvd+/nDLu98OpHL9xVlUmPCobDIU1RPBQ+OKpiotKDuo/HpHBMiqaYrGtv1hz7lZAkvtCsSev3Hj799ERtX6A1GWoCm+c8/kiPSNK+wea5c7XiYgUSW1YkgIMXJZRBaBOSCzvziWvaj53e+fB5l0PZXgLTcC7DnmmK5p9T6WR3jyVtCvwcLVguiXIkIEszinW0zsc2stY5VOdLNy0cgirkHeWxqjYuWuHUOs+2zYEmffU/5WRThZJsrAR/gACIUNkiziSBDqqG+d6WwFKk1uYxgyCQRKiDAIgPsHZTG6mCTD8hAOdge1l+oL8eARj8qeYIAuDg9QpKAxMWJBP47lOIgJbzivM3mQ1/WFpSQtfIf4G1mlwH2XXIR3PROxsmRyxvRCyTDotIn6JFJJCITROdwwd/5GcORJmlTtJLHxTW6v2kdf3F8/03ae8JsNFC40H3R3b597r/vZc//p0PLUj1T6AcFl9ppCDRz0wzYwMcrmguybcsHj3+07rcJ6tWrRKe/vbbYxFBeVaFnvo1TlKPuJ7RyMydTOtFZL6Tab3opwdBGIR9oPOVwf0hIXubrg8KaqBIeBETCgKplFxG+ekEsOkcUzRonqS48CUFW8VN257zveuYX0oc+49CSXtxsCR9CsukanR+gBZqnQNoHhthudsq0xkcVzVHk85VdTKQ5ftoYpo4t7ll37do4iWf12X8DtDu7nUzo8sW/hqcjXsgBjrKZB0/GYhcMvxrDv9LqnNJ4iAGEnKt84N5InLbbjQjkAOadThVBDQveHJ696gglXqm150qOzaqRPQeziB2MWCaazpJ2pCHxo/387wP9UJcr9JU7MYMz1+O9lsTqmaoaJ7raRirhwNxhRHuPGrgSc90kloZ85975uaEbYyXQoFiSp2hlykwiGcAMAsil4baOyJ67sfwLVyeFyx6cXZJyfb9BQ/7Go9VaK/NmbP4tM93fn+DJQp9mrdsrmWiETaISp6/ADRDSOCBG/u1ZKTuKO7Wc+lpJ56YLp2z+HRPse9MJKM90fDnZQkZ9KjyIJ2mEjGF9+eJ7OONzUeT7I0IaHKcfEd54t9AMwuq4O7tA02KGfW9FvGiphe26Vm+cITSqqii52cx+5U9Ktbh56A4+uCTPBpJyQzggeqfD1hlAjHYloXqnA9SCKLtBmt+FZD+TdvCLxyAWmwkFeLE1wA0y/Dly8qGDEnSPYIUKG5/gQpxNMvWvHFzZcYdETP0UBZoko8mGZlb8En1gTRBR7L/8V/2ONbdLeYsiKb9x8XtHwtL5uBZoLkbZP8UwKRt7u13PvjGd1CngCZmadz/GfwJh8Pw0s1Ylmcuac6xty4aNf7LugIlGsOrysqKdcvqtTMZP8/k3ZNhZN7CYt1wRrcRwCRhOgWYiTGg86cp9Bxy/XPmojPhVzRxnD/olvZgAfjXAbkyUCkUCwn9bFxAcHrwOM6thGHPexrLvSikMn8/oUuXr6499dQYjmO/QSdNJK+cNa9vROKnAGgO2BvQpNY5+v0vFDLOnxpqRZMTxTsrKyNHEkczBzT39UTP/f5/fQRyQLMOVwC9AE574IHuTjhUlklluoEXBsY+qUI9Joms8yJRfONXbTsOry+OJqWNlMWjlzFh7bryeKINSJqM7PA+z1JRA+mQpj3ZpUWTB9u2a7fjuVWrrk3a1pWyIjf328yoQIG/lUom498W54Xeh3Tig94tWrzcolmbLROOOSZT15dmbYe5dP33hfM+ePWkuGuOBw/v5GJNDcHDmtXRKhQDIbSnOFRb004gIKz3LO+v4WBwtZFm+suadWc0HuvusjJajfCDQRtR4sQKLRx8sKnAPI6M9zrzBWt7DAdiffIz/dvbb5/Js/K0HbGKDnuKgQhUCS7SgQAQJVgKEdCkVrYvrsC1CGKiX8Hajc79v6j65sMxzCYIcNF16/ePUSkj8GihKkqgBQnUvsDENwgnUdXuyiBVSgnA0Lq0fchlmPxQeBfnOHPMdHpDy46tN57ad8CW3zFM/EBMSF749tt2K95ddxOA5kUENDF78I8jW9Ek+yo6QuLjZgFndWWWwGaW0LhbiO53xKuB5g8LrpG6lFwJaNK2aLxpvMDT8BOLbFyfmUzSgNXDiwUs+4eyET8fNFCTawTHwU9ZtrD4k+8qe8t56kmV8eRxOIa2Sl5x8wzLaBJmUqCWsi7yP13DYlTal93KdKJBYMrhjwVNKKiamz2nZP7rJ1vSOIGHQdQf/xrBCQed1XE8K4FEog8hSHoZ//z7r08a8MnVPXtW4tjrnEREFc2rZs8eWClJt6OTchzV239c0cwCzWLPvnPxJZd8fKieOTU5F7TOmMXPnsVx4u2RaKx3Nut8bxXNsOxe+ZsuR62GSLJBWEvV9Phy6+VG4ECPQA5o1nFEz3/iiR4JnluEB3xPRVF81TkZK1dEIl4RJ6zr1739BYfCsJ1A7+5D4BD1wxGZH/ZGciRaXpLiuZvjGb0bmF2sjHcIVTSDobxMQNXmoLtzf7c2Bd+9vfnba8vjsSsDslzMsXZKdJltEst+Aprfs0cf1m1tZ02L15f5M1EA1n29+bi0kbq6aueOQQXFBSFQC8GKAilNRORlKomWqZkJaoH1Kq89AMyU53GZP0ailZ2kQD7e+5AMU3qR55YrcuB+lbVmLBg+vKqOp7xePkYiqdK5C861ReWu8kSkPQHNH5KBUKUkeyMT4ILotQQWCHSSS4B/Vfit7n+3hekAfFBBgIsqnNR2RUUSEZZYHwZS4HRmW81k1eJfWFjXT3GmqihV90jtTEAT1zvBN2o9QyzEAIzAlYerBKj5OCRKL0kqv7qt7m6+b9QoWB3UfSGg+eK7GybFTQ/JQKm8LNCkimb1/qB1TaDX95rEv3cfow88/SHA3u8BlP9tOFQNL1lU/34Yl73s5k9WMylvHev71WTcLPB6rea1gktsgDAKmseyDrw05cnRozfW/ej/+5PzKt8Or3vl6+KMaR6PydbAHabRHWXrfIxFESaFIZ6T4BfgsrRfNCachOMHwKTz7J83qmD7fPJqugELax7i+kL45E8msucY1U1/kgK+oYvYhLgmSl8KGfO1PNt77ZorrngXz5k6O0xcsXBhf9yEf6gy9BOwj76PJp1Dqj5T61zXTZuVlCUFrHtHQ6to0vP24sWLz0BF80+VkapePwk0ZeHzAsG5YtGIS14/kOc/t63cCDTGEcgBzTqetfGzZvXY7NiL9IzRUwLQlGDFg8ICE4nHvEJBWH9c207nH4qKJnG5Fn/3XZ4riq10IN1nhg//6on33vPe+vLLk1OOc3PczAwgXYPqQhEJvYSsqXpeKLQ0HoneK+ZpH0fdzBVbt2y9Ki+geYXh0GrBMNYFM+aHR3TpsXHyb35DVal92sHUcQhr9DF4fGrTn3xyUJzzJqA9eaooaZKJt5JJySlQVUMC7FXsLI+2K279gsA638iCOzKeina2eYVD5jka6Ggd2+xOtIP/GuSspxob0MyqzsHA+2NlqqoNiYGoSuVz8AANRHA0TZxXann7tAcAzWpwiYolRUASuMgCzGpE9QPYpH+KvnoZn8NHwPPzGYx+Wxj/h7ZFbXT/M7Rd+jj9YndCDf3t8+rQpoWfLJTNhod2dgaf2YT66gbBtp8bc/75684uLk7W9Tp6GUDzub+/c2PMcC76MdAkAEwV1uxCaTp7AkP/yiUURaOxe7Xs77PTs+p2+08vBNayS3bd7N8kyDHgF0oBA5ChQ1NEYhuDbM4yssCvCHni7QcDKBHYWV1eHvhs48ZW/9y4rZXFec0MUejisc6xUD61jiWjbVzTFcCtVoB5eZlCaLGvBD7p/HGYkRGwI1U6h9Y/nXOqcvrjROCdeLi7B4wq3FDX0+8t2XMqedv7QBaEuyZOmPD2wDpUNql1TobtSYm7pVzXBwAT+0CTzmMWaKZN2xIEpbSYF6aWjh3+WV2vnRo9YGq5Eo39mLJ5g1lOvRMVzZ9uneeAZi1HNrf6L3kEckCzjmd35FNP9dzi2GWWYXVV4aMponJAudqVVVVes4C6/sT2XQ860Jz39tvhVZs398bb/bhkxuyRicU3Ht+/39Ode/aseHbu3D6Gx92SNNKDwdkSNFS+CGhComoFQuHVQF93FXTosH7zvz48Gw/Ps3jP+lTxrJVd2nTbNO03vyFgsN98rDoO7X99bMY/Zmivvu+dAx/FGzhRO0KEVBYmPKjWQG1Mlu6QegopZkurZoVbHTfTuaJye5Eja1wwVMAkqpIAAuzOglD+9BBrPd7YDNupdf7GmjW/c3jtrkg62j4bQZkFmh4QA6gOTCgQsCB6KkfbM83AowoXo4cXuEe+kxwIl1TsA6CgMhZQJcmrqpXXrp6RASixCZjiQ1guyho0IiZrsayoirIKqx4RwhHR1nVohzwNAISQp//cyHIA6R9+UxpVMQ92Q0AwcAgS4grPvS179ow2kvpaXSubBDRfANCs+hHQpNY5gSOLKq4AKrKkJHmRjaC6xwkuy9ke/Jwc1sO1D/xJgwQUmAWV4A0Q0KIlC7Do/7uo3WUvPvAUf/7ZSIAMKxskugIxUoKahqrLumOQQVKFZ+jL2rP8nAfHjt10oO6DvW0H54BDmpf85euvh7/88ttudjBchCM9Iu3a4Uxa743z1RkzkwKgTNVyLHIVRwUWUn2f21ldBc6Kvaq5rdVDkP2Zn/aEDerpFC4gz7PMTCakKstwjE+17N1nwxO19M4loHnNggUDdwrMbVFdP56Cu/b00aSKZgY7KkrS3KYWc++CCWO+aJBAk1XurKiKHvmTYqDdQBNZ56Q6r9fJ+sG8/nLbzo1ATUYgBzRrMkp7WYcqmt855nzb5Y6E2tPv1JFOm7LOWwRDbxzVvAAczQOfdU7t5A82buxUZZrtLM873EJeuCeKR8YqKsLYiw3FPH/NovHjvzrv6bndOVW5uSoVL8GDTgxCEOTz7wTBFlThbahZ/7ispGT1iPnPt+Q5o9CORr//3WWXxX8qS7yOw3TAPjZx5szmEYcbXe6ZF+N4O+KYeOIIIgWICcoaU8gFnXQsahcVKzyiD/mqjMFCuYpWnC962CWrwQfDrP54Y6toEtB8Zc36wWiX/zWSjLdlRVhF+/ZDBBCqVbrUIw2G874Iq2qpLcsVgJfomPplR4JP/jkgkhgLBQjKlLCA9DL4C+JisDpTlgFvRXh5pwCSLEdGZZusItOGpSGEWgWczzfQG4dQSAZ6K0Z2+ZEAL+0hDC6wTVMliiepnT2qHBMPENMTG/tEOefYCR22+e8EdeehKzt3XV4Xr1UCms+/9/bkaIYqmunwnhxNOn6L7JVkyREkZZ2mis+iKsYLLPWJHZ004f4xon6HMcnzsfDuK/IHg3VCVHsw6KCEAXa0Rdwf/8k5QNX2h0Xc/Sv8jAq+Io0rZnSo6LquJqsQBqa8dPrTk08//eNRzZvvF3WgNjcQqt/ShrIyHlhQM4JB1XCcjvCj7YdnQKeEbjbzHK+rIAohnLI8jIrPGaDid7aK+YP6HrQK/3f4QzxdqoRS9VhA1yYOs3/cealwUfFKtrzq/rO6dn1v7MCBNY5YJKDpt84FB8lA5kl7A5oGrC/QOn+u0LX+vHh83VT7tRm32qybrWgyrHIHkoF6Q3QHUdZ/q84FhfssX3SvznE0azO6uXV/qSOQA5p1OLN4oPMLn3mmZ1pkZyfimSODiMYRUNGkVmNVvMorkpW3WkvauBmjR3+zP7NZ+p7gyy8Lb1VVaUqTJurWSKSVztq9oSQfBEvo7rppteZEJYiIHgGcOvhSO+sBKK95ZcLYD0Y8/3zLSEXsFrREx+FFIakAA36lQoHjIct+wMrSHcvPP/+lIWVlLGxo8KP9s6GpwzDW6iNUubl4/vyuO9Lm9VErWVLctHkQ/oAsS36faZ3RHIkhVbppVPmKa04Lg55ZXUiAH+KOQCj4QDAZf3r2qFGR/TkntdrpA7DyD0CTY+6vSCbbUEwMDOh9oEmWNdVA00PWufpSQNNuUtu02YykFyZeWenf2+Giov+qpkiJhPtReTl7ZJMmXmDAAHd3bCMDyoUY/7T6c9uUmNsyL4/7pqLCV9+YmEy1FkV3B8e1TyM6MJmK90/pxrGIBy1SQiGUTXnYs4KjCE6kX6ECOIGrJpMy0zossUo7iKGbZowYUWtPzZWbNrVH63xylW4N2xvQNHD8Ii8m4O35eOcmBXfEcbydcezbYjGXji97CsxQyEdPNC57jkl2nLLrbQuF3K4S/ET3si79zE4kOAHrZLeT/RtCOV8gU1a2gd/AbGGGdyix+/Sp33xxEhHdt/NVZcs7lcHN0VhbzLw6C6zYGmKbYy3L7UM6LoR/qXDoxKQNM2VUOVGshjifSK/VKn3fKJ6oFCR0AqkTlWJGh00aMmETLQKBZ4uTxvQBAIM1zbAnoAl7o19XiCxxNH/F2sTRJLsuyjpHhwKTYdiw2Xg+LS20rGmLL730vYZ0vxLQvLSsbDAcPf4UqYz0poom+fVi4ubbG9HYkb2RiIpmPstdecGoUasa6uT9ADyecpvIjUCNRiAHNGs0TP9eyTdT/uCDPts5ZzSjBi7ibEZFtEV1BCV500F+KNnuN5Ci3B9ynDW/u+CCzacXFv6k5yQBKIh4SLkg7opEhHfXr5e+jMUUDh0qLxgsyJiprqbrHsNLAvK7pWbJTKpY4qWmZkZHFokAjh6ECPDDA9SknXxPcPk/9labrt6sxDTBZK9NGfpEpMPkUWqRL5pAm4+XlG+UQGBqx2Sy9N6RI0lJXhfhbS1Hbv9Xp5fUyKefHrzLMG7itUAvsBVlUE99J0RQF31BA70cqT1okoIaL0aKRES2MzK3zXdUjpubH4ttGNqhw1c1zWPf/73evy0Q0HxtzZqzBFm5b1c82RqzCbba4aCaH+nb2IA6EFQDS4/pfcSkm4888pv9+8Z9f7p0fan63qZ0hy3JVH+dE07TPbYP0G8zpBRxvns4eJGCbycEhRDsckzL2laclzctpGhL5p133rbaXG8kBlr+zvpb46Z7YVUmE0Dij7+DJAaiRrcvbXGcRDiY/3+lw86/Zd97/7+7BrlRvFfAqMlt0Wbgc3eASL29JXrHY6rSK+N5hZFYKr+4WfNAyjAxhalOI0J+bbX1FSgqFN7gq8KwuPDBh//VLoRVzFVS5syJl166sSacTbqHry4tPXEn49xSnkgOgD8uOvP+HYzUMdB7ADR1Q0fXhV9a7HF3LRw37oOGBDTp2MeVLjgtA4s4VDSPgmgKIVkUJkEWW1T9RTIQJlhSUPyywGGuf3bkmJdqc73/716duSP/JY9ADmjW4uzOQzzc0q+/HpAUmJsTDHOkhhBhMr72H7x+Eke11QmsQFzZZSKS536ACuOi/kcc+2r7zocl8nd/VxISG7uASggMs3bDK6FvY5nmiiMdrvN2k2TSauYJQou05x0GtXUR1MDNbMYOYrugJkocgK2ffUzZ0uSN6CJsXQ3nMeXpJFmsfIvS5jMB3ntUCgZtrzJxRdo2rs+4ZiFcvH0hgAPFB6pOW1QtcDdqnM+imlnV0B7kP3dKZm/ZUvTyihUlMc+baPFCNw7eLkSBAv7ygSbquv7LkE4LiAJQ1aLqh/MCU3GHN+yKwwoK3maS9kMDu7TZUJuWXy0ukwO6qg80168u4bjQnyuS8TY/BproUVNV0wGIW/arHl0n3dinz9cHdAd+ZmO+EK2qqsP28vKhcl7xuKp0orUB1CBi0oMcRkAHVMQADKtSSStQVPQvL554pj3LLq6Naf7r33zTduHf3741ahDQTAd/DDSrVd9qHEmG058fNTQHNGt48n1B0erV/IfFxUXr33zzcKhvOkoF4X67quIDLdtuIaqahKQwMLVBoiTRFaJF/YnqbtcB3w4JD6WokdjaJBB6Ki9hPLXwiivIY/dn+YgQ94lPl5X1rXLdWyqSqUEs58Culyr0qITjPwJqOgzvRZldlq8wt5cOn/CvfW2zhod8wFa7ZMGCQbogTytPxI6xPBsCdABN7LsIeG6AyoH9Z3iN/6KYDNsvyiUDHbCBz22o0Y5ADmjW8NSRzcz8Rx/tn+KZq2GvM0DnOBTIMAfHbJy4aZCkVD+MfR8YFAhhUMc7bjogiB8BEr7L2FYlhU7zCmQ3EPMiWjlI/WpwwZB847VQ1VAXqKODWEWBpigEPrwMjhXMSig6rtrfUIZXogCVsQGbIhEqbHd/wAAAIABJREFUYzIuB2pkdsWjiDSX6fc73ZT7bFAK3t28c8tUatuOixEjeX3KSLemqgFVwZyMgb+5SlXTHoY6/rHGJo6hCvB1ZWUdPqkqv4ENBUogLC9AAA6LUQLYBMhHCwu8PF85S0pqtHZ9sIm3GVO5q5wJyGK0iZa3mk0k7ll02WXvNvRqQ7WP5rozYcyOF1uqw55A0z+naNgiatvRVGX5cd263XAogSbdOnQ+bl6ypM1nFRUTdUm6BLzhAokmNRlkbKMVi+RSH/C7kqwrDL8m4Fp3TRw7dl1Nql+0fUoGKvvHO7dEDHd4Fmj6NkK7K5qkuA+H82O64z364qhhOaBZw+fZnqsR6PzLunXBjZ9/3qnCYxF6IPUDYDoO0ab5MnXNyU91t00W+bP6Xqp07vHsSaYyluw6K1u57J/mTZz4z32JCP3W+TwYtvPSTZWp5CBPcP2sc7pZyVILzz+y27JFjV3WzBX+NPfiiz9qaEBzfNm809Oeemd5MtbbtE0faJIQTMLkn4BmWk8xoiJ+0VTxLl944bhVDf0ZU4dLJveR3AjUagRyQLMGw0UP4hFPPdXKFZwbEg47OuO6eaKg+JbNIpHl8dLzfeeoPU1/yESaZMEwb/bgCec6IEkKnAEbJBsTd4glHCHjZmRaR8IPkPoCXThKcx5kDH7CSTXfkx7uhpFhVI0i5aptSfw0F/o+SgABOR/qUgiPHU/Rghl8zdcFQmChaBkzIEG2PMs9x1XY65D73Iv86mjebYPPCEFuUlK0Ba045y/gkW7a18uhBkN0SFch0cPiWU8PTkrCrfF05ihRkDmK2ATg9IEmXdRZgYOJAaNoQElDbB9eCJUVFUxA0aKFobz7jmjSZMbtAwdWHNKdr+WXEdBctW7NeZ6g3IlWYzvYOfmtc1r2BJo4pqWDereZNPHIfge9df7jQ6D7Y0JZWa+thvFX3TJPJpcDhbzScf2TTyVNvsAvxdXNbmmmqvcfxjCzoMaO1mQofHujd9bfHNGdYWTYThXNPYGmPw4MF/MYefryccOm1GSbuXX2PgLECYd6vfiDbdu6JtLpax3e/Q3sjwJk805dFLqn/GhaElVRBwdAE8I0DwrIb0K8OO24VoMXTjr158VPvhho0aJ+MYe9NZJJn+SILmwCiAJC26cODSYmruWICrOsqePeOXfshPcbItCMe9KdVcnkD0CTukvZiqZpG3jeCKhoAmgOzwHN3P2WG4Ec0KzBNUCk+jGzHz++0mPuTOr2SQBpAg9+pERm0AA29OKDkwoDPzs8gP+tbGXJEJuSVdDSlZC0QksG8TWoMvpVNt86BEDTF75iJg9nSNi0IPwN6xHQ9O1jyHMb1ThKHKGfWY7JIHqRScQStiQJJhTklTLPboPdyEeiy7/ZpKDp279JJr8PlpSwC597bkCKNW+pSmZOQJVPlBBX6KWht7VdAy/slXmyfOe1w4d+QCbvNRiGBrXK7StXNv3n95tujxrmxRxijWTKgKYgwmoTH3/5Ib0G0N9EtTOQF2ZisRhVHaz8/IJX2snyXRPOOeefDfn4faD51qpzbEGbCjFM+z2Bpi/SQEXTNkw7FNCe69+lyw1XHX/8lvo4UeT3uWD+3IkxXb9VYoX8AEC9lYGnN5lwU/53tfdmIqCIi8OceO+coUPJtmaf3GDiaL70zjs3RnX7ooieytuzdU73VXVSERsLhQumLx56Xg5oHoCTT2DwqsWLB+y0jatSuj4QjgMaJUkhlLx6Aofv2H0+fQ9XWeAiIVmdx8bjfym77LKtP7cL33qectecOaei3j2pykgfZ0sAmrh3fTGNb/6PSbRj2jIEZGHGurd0zHiqaO7zOjkAh12jTVAFf8yiRQPTAv/naDp9rGPBpxTWAxSq5Acs4RntoosC2/wv8g3r8oXjLs1VNGs0srmVfskjkAOaNTi75eXloauWPHdBXBYmJUyra14ImRUZtMbp8efHtlEkHwyRqaq5e0TpgeznDEOogwBh3yaEgCWZaJP0B1ATCSImHqw2oyCjmHyl6TNUn6FqJQFTcliBuhc/92f5sMsE8xxFhbxAqCKV0T9CAsiXCud8WBgs/lLj+U1Htm1bno2JxANRGLlo0bEp1r0xrqd+C8NvDXVTynAkRSlwi/x+gGenXjls2Mq+LJupwTA0qFXI5ulvH75/eXkq80dWVgIKFOcUu+3nfWPJXtgk0OIVyU++SaE6DKU+Ew7lwdyF/zRsOH+9duSFzzbk4yeg+eqGtWfwHjhhqURHIGmWJh6+lRBdL+BoEtCEGOiFvke3nTypV/9v6+NE0Qv4nCce7W9y0uOW63amEQfHz6++U3oQh1ADy7Fd2zU/Cjru1LM7dlleE45sNdCsrmjCR9WvaNKSbZ2TQbqiBGOamvd/ZReefWt9HPsv8TtJ9Fj28ceDTEW4ER2cEx3TgUMp70+uaaHnF03kKBWtIlZhgkL0Bsjk1z17+eWf/dx4EIi9bNasvnFGvilqpQbZSBzwk6wopYiAJpwiPJQ1RZlfUmybd50dLPhwyJAhDcbTl67zSxYuPKVKFO6IpdPHuKYFoIkiAlUYaFzAGaaiABSi7xdy5sR5Yxo+PeeXeP3mjqlhjUAOaNbgfKz69tvmDyxfOpkryB+zK53K15C1LdiAkaRyBi+TapjwDKqO59s9ogQyqZUL9o4POKnKRukq9OKlLGHSSmdjAgl8knIcfE0UZ9A+Mk1Q5kXXMTKmrIhJzzaTpp5K4rW9C0k3laxjv92sbYe1kIdu7scwkZKSEvRT/5OETw/ECU8+2S2mKddFHf0C1xPDaGkynEFJJqInyPxm1TTuHz5owLwz27ZtVLGMdMpuXrGiyZc7t4+PZ8wpIGBqBMr9aos//pR1Ur1ISD5JpVKMEgj64IziGjlJ9hRZ2xUy9ektU+7/TZvYcGMpfW7wnJkXuqJ2eySZaktKMGqd07HQ4pm4nsDRDGjqkoG9ut589VHHf1mDS/qgrDJm5mPtoqz0QMqwB8PZWwoFNdwj5JXOM2nf7gigX+QrAxz7aEA3H1546aX7pC3sVp3fXJWxf2id7wk0yVlAFuUouLrTV14yKgc0D+CZJbHX9C3fjquyjGvRb+kCmzBWwRON6CnZiQ54nLBME714qur9Jqp45ZKxE9/+uQokdYdGL3yqh26pU2JG5mxXYBUwLXYDTfCqd6dQqaLwkcq6t16gBFYCaCJpomEsRC9YNm/2+WkxMCWajvfEUxedf6rykrE971d4LUNnQkFhbZtQeML0c4d+3tBa/w1jJHN78b80AjmgWYOzffEjj7TMhJWb0i43JilwIVi5MKJdXa0kNOmi80wJLQRy/HYmubdTZQ1/qJ0Lw/DdvnS783yxKs18qS5lwkWZMqbhUGOiWpNG5zeFlJZYMKBtQ+7Id17G+hSNpW28Y37SWgxs7TtmTKImvmzEm5u8aFGL7ZY1YoeRudwVpNaoqqKMujtCUBRjopWagYrmX08NhXbVYBgazCrE0Vz21FN93UBgUlUieSrCv4na6qvN3WxEIv7pVzdxXkjMQP52VFUGSmOS6bRXmF9UqTH2g/mC+9gDQ4ZEGszB/WhHfNX56tdLWDF0R0U62e7HQNPFxIGAZkhTlw7o3e2m+gSatyxd0OyLiHGzzjOjoAIqoDBt4q4JkswQUkBYEcUzpmGZ82x+nnvH/PPGfbevlzCpzue/swFtVns42vL52YpmNhnIQPUItl9RQQxPXzrivBzQPMAXMgUlbGLM36c573qWEYMENAVqc1M2OmgRCIFCOhLs1Rzje433ft+5VYfXHxk8OOuHv9e9+f3Mme12ctwtCUO/CPdtwI9PdXe35X0OusNokrhLtox7WwXD03F/NpiOCwHNBbNnj3MUZQoqmq1BEYGLF3LlydmLfHx1gzEwsW1SEFjdq0mLi2879dR66TAc4Msgt7ncCOzXCOSAZg2Gzweamnp9hmfGpEWx0DAdxn/gUhWTQ2SamSKLFZ8oTzN9RAH6KnGqZJICmodSHOEqlEriibKCSbubSGXSUTxRk3gZ22g/If5P3gkO1Cbbsr4NwKYIn/9OCXJberfqnOrQJuGUNBmQri1XacWKFfKc7dtP3W6kbhd4pZekgWqF1jnto8t7CcUy5w7r3fvuEfXE66vB0P/HKqtAB5hZVtYslUl2c3jpXNBbz9HTVksKNyEyrB8auDtmkMW//aoy/nNBXQCZr1o8gw9lkMkdDuV/F7Cc+7rJ2vybh5/ZYCu61fZGawajWTwNPpqdeOT5UOs8KxajiiZ4Fw4CaZYO6NblpquPr7+KJqxriu+bPftqXeDGZQy9hW0ZTBiVZBiEw3pLowxMxsjotsRzLweDwh0TW7b9cF9pQQQ0Z69fd2PG44ZT1jnFjhIFhSexnB9Bib8FOSayyvSlo0tyHM3a3lT7WJ8oKis+e+8iUwxNgfCwbQDTNRIUyvRco1kPqnixdIKxWGt7WGJ+PzrU7JV9VSCHzZhRnJTlyQkzfZksQWzkF+cBNv1JOmgWFGjqeSnRMh9q1arVPQCu8QN8WHXe3JV4pm76/vsppqJejaz4MM1vydHCwcOHni9wtgM3OcM0DSkvtCtscundgweX1/nLch/MjcAvZARyQLMGJ3LOupVNV329c0wVa/5+V8poFw6GWdEmXhGqKWq1Mry6Kkn8HJhVY4ZOovOspZCv1iQOkih4yPCtArl+g4k/AZH7nOfctJWyxfxmealkIrWrGa9WhFOp+IEwUqeq5vDHHjv6ez1zDyOrA5DJziMCBEeMqqYkQPbuvNyU425DYsunNRiGeluFjgN5zuLKsrI2lZZxWjQVHyoIaldUlAsBOjgBlQSijmWBfjUhH6p8nAeqHFNFE6p+PxqRwA5M3ZF8LX2Ux7hTfzdu5IuoEDeYismPB7k663z17yxWvRM+mh1+DDSJo0lAU5WU+gea8Xjxg889d0VKVS/+bsum1i1bNod/qeEnGEkyBGzxJLoAjqep6ttskJ/SvOPha5GV/bNCNAKac9evvT7l8SMANAv2BJo0VpRWg+3HJC6QA5oH4Q4lrvclpbP7VjDi7WmPOdFJ6xL5swXBlQU32H/eEccSXlaVvJm+rlOr9s/uq6J5bWmp+lll+e8NiZ2CKUMRTQbpWUnXCZFeyOhfcBhHcIyn1KKiO+eff369CNz2NpzjSksLd6STd0fiqZH5BQUqAjAAtolCJVY/a/AgAunJ5A394fN79/4zJvENBiQfhMsjt8ncCNRoBHJAswbDBI6m8tSrK05OisJNKY85SZIUkUdzSAK41FHNRDsQHpZQHmI0ST3p+8IRnKOOOakR6W9CngCaUFiiNW79y3W9N9QA92JXnf2o88iRPgdpgl93o4k9oBA4lrWtYP74UHxbppkzu+3KJO5ltPCpeBzyfvUAs26H80zRNd8pNs2b5k68asO+Wpg1GKaDtsrlz88uKk+6fav05ClyXkHfZCLTQ0GWJl5LLPA+FUOqQSQqtTJ8UXwAQtSE3d5/sqqgqpbyaQ30YkRGt5FfWPhCu3D49gdPO+3L/R3ng3bg2DABzdfffONsmw9M3RvQJNU5xGZOQFaX9OnY7sab+x16e6Ps8f8j7hU/WDbrioTCXxzPpHzvVhJoUeILJ+AcxFH5x8kKBgIfxBj9tnY9eqysCdCcv379jQnMmfasaHI4v7TAbQEzOiHGscr/vTzmwlzr/ABfjD7Xe9asIxOqehtcD07DNA18aEocrX6mEQcXkZG4p/RoSOKmKJ4wv+zSS2M/txtEfVkw+8nfRU3rDkmQDifHLv9eJe9birz0oy85DxPh1yWJ/8OCUaPeaQj3qM/PLJvXfms0OQ00grPwnIfxBzomoOuAfex3GVhclyFZrgTQvGVsq1azG0sC2QG+bHKby43Af4xADmjW8IKY89VXTZevXXWV7ji/txm+UOEU1m+PIwnaBUeHKmb+iw8Pm+zig0vM0rNAE46XRBpHgJCj45m6g+e4D0XLWtaxZ9v1vVt13Ty2fXs9+1kCifsL/mgbQx57rEulY/5Fzi8ebJgmYnSockDkdbjBW8Y/iwLBKeOGjVhVUwPtGg7XAVnt4bdXhD8pd9rvqtzWP+MyF9qy0N1xhQBvIzvJIIqCyJgofRAl1kJ1hfxFNLRoSRYFhXN1RCPFUZKfKWStfqUZkwJbt7YGVeGe007vPPPypgOTB2RnD9JGCGiuXPfG6Ryr3rO31nkWaGqK/MIJ7drdOKl//ajO6fDXRKMFTy5/6bJy17nCdq0WBjKfNVUGdQG0BpgvAjyg5Y1XNBS5juD+oUUNgea89WtujjvcRaQ6z1Y0s0CTKposL+aA5kG6/ghoXjZnTi8nv+i2bZGKUx3H1Ui8mHGoUs2BS6kx8WiU0TQlpjrGlL5ycNakUaNSP7c7lA50/4I5/SOWOYX12L7g8Up+14eeSnhYUs9FwrWi8OwmTxbvaJ6X93xDaJ+vh4XXw4vm940Yxh2W4R4fVMFKpTACAE0T17jve5xMMs3y8r8IONYNp6vqq/uiERyk05bbbG4EGtQI5IBmDU9HtQBlRn+owSfHdPNEQVRl24N7pgK/QET5+C5HWBDLBr85WK/77XM8hGjWT7VJv5oG0vju3wNuenB7MUOi8A0qbG83Kyws7XjSSWsnNf95w+Ma7u4Pq924dGnLf23adJublz/SsG3YGBIgJv9Bx0OL51ukF911Ru+jF13apw9MD+t/IXD8xHvvCX/fvLlZxsmcHDeM85BX3heFyCZ+jw7DqUgKw5mUToK4NwixeBlsWSofo1IrAlmiWuyrV4nOQJ6lBriCTZs28aIV5YyE1Lzi/NBKJ23fM3/MmA/3F8wf7BHLRlC6rnoHKprt9tY6RwRltb1RB9gb1SPQJI7mX2bOuSHueBMcwSsgEiXBB3oBW5CFy7zCmBkLtwy3VlDFu69u1eq1mnA099Y63xNo+hVNQXnklVHDbjvY5+Ngbt+niJSVcXtzkTiY3/tz2/ZV4o/POcYtCt2U0s1T9XRK4xAU4WmIdsWzTE8ipQwzPbATdyInd1Krww4r3VfrnI7zgqceOsJTwtenTftczBRCPyQPkV8E7l+FJiUCazKiN6dFiza3PTpw4I76GoPs996yYEGzD9LJ8ZaqXWHGUk2DCnTx9OAnPris+s93K512wrL0NzYRmfz8ldd93BAqsfU9brnvz41ADmjW4hp4GFnnX8XjA7fFqy61WPFoRPHkWwjqhcMcABDatmh5wygQzXMnqYpaleWaqOa4ReiqBJGgQc0hOGFWt9b9qhv4a/RHVVQIdZkP0Id5U2X4V0868jcfTTimBSWnkG3RfpkV4+Wv3fP00+NjLjfJ4pmW8JtkAWyxX2S0zFYgTejeMCPM2Fe7qxbDVOdVqWIwa/bslklRPD7tmIMzDHsSxFEt8AAXCTSSqCeohaCyhiEyWYkAUXq8Y+mmUckh7QhZ5yiC8EWoLssuGPpUSZZk3quMRUGetVL5qrg1zEkvcYnkwrP79Nk4pG/fBsvNzA4i2RvNmf/MYKpo7owlOsGW6r/EQH7rXJGX9mvXbvJ1Awd+VecTsJ8fnDh9eustrDyV1bRzdiUioXB+0K8g06TL1C1E9EmMhUxQRZFXKRY3bUiYX70vj0TiaM57e821SUcYhcjCAl6GXyrunz2BJrh9aZ7X/vrS6KF/2M9DqJePU9Xw4pkzi1jT7JRyYCDA/H97ZwJvVVnv/TXttdeez4QgoDKImIkTOJUDlFI43gZQzLEMu/bWtbLpve+9Wjcru5X3ZplSSppicdI0RcUBcEKxcMjURAVREIEz72lNe63391/7nBOZ5mEQF9vf/nzwbM9Ze+/n+T5rr/V7/qPy3Jn77LP+7UT4jhisWB//F729Pc38T2QwHoL6pegxoSolaED4BiQlMhKGTqXyyi6mdd4XJ068dyjjvvShh3LLnvnzieVaIHVwJ6AOJwpCwP0s9TmxYTRQuF0ejh4+OyyV/OK0CXs/gM3wu9ZYQup/njV//gHdeu3L3SX7xKxqplOyaQcLacIhQrMDXceyqZQ9Ip+bh17C/zX3jDPW74g14meQQNwJUGhu4QpJnM7tV145uaSrh+pNhaMqjj9BM4wRUJcJPdRKqIG5FsHhD1jJ7FOoi64hT+MDlUr5I7hQ7a7D1wu3eWTdlFI7UeZwZKQTV28tdG27WMhkVimOvazZNG849cMffu743Xfv3RaxKZnaV//imo93hMG3qkq4VyplSWokrH9RcJ+j68b1eyT1b/3s1HPWvhvWPbnJYvqJz7e3N6+t9h1XU/WTkKW/j1J0R9fCWkpFMWRkyCNdH8ISY04iFKFSccIkCphCYFWtjPECdNaCrJl+An3gR1er7nRk+uyn68kWuPfUql0sNzU3vej19i5Lq+pDh+655xNfmTq1a1uYbuEps02HD7jOVUVc58Uo61w3/9aiVLLO+4Xm7YeMGXPBN6dNe3mbPnAbXnzGz3+5b9mwflFVg4N9HfVqonIASJYQt2jkPpfysQk3k7La1WL1ot/POWvV251zizrX7XbDwvu+itJiZ0pnoAGhKVnn8pAQCRTjRzfSzGU7o9AU696n29vbOjZtOqnk1s7IDG9NIa37DwWr8Nsjx41b826KK+F78bx5Tc8Yxlklz/t3u+IOG5bJwwAZKl0+Yp7lu4mLV7mvGOQKuWeay+7Zvz3vvMeHcgrJvM+54YZ91/X1XQ73+BGwaOpaFOoSBX8qOoSmeH+qhl9N2M4Ne4TGD6/+1399EefLDi/eLmM9b+7c3bqT+py1tn12qtA0MlUNBIM4zhU3xCYKtZUrth2mNPU1bIIu+vK4cdcORXAPhRWPIYGdnQCF5lasYOTi2rQpc/u9t45DGbgDA13fE5mY0rC81/D8F0aN3nXxPsmp5ezhSrDorofHrHvt5RPKXnkGLDv7w+PbhDA1GGUgNSORidaViPWExRMXVrhg4I/yHae7JZ1arAf+shHp5ENHnXrGM9uSGX3m1VfPqBjGJXD574f4KoSww6KKu36xUoYx1lgyOtd80Um6/qd3I57o57fdNuqxrq4Du0PnyJqVOalcqYxWa1rWxO0kCYuBE2X2W9Cdlbol2HECdJwp1/zay0lde0oPnEfGjZlwy6XHHrv+hq6u3BMPPzFxU8eGQw1da0bAq5ZIGFWnq3PFpL33/MvI8eN7zx4zxnk7cbMVp8Q79pJ6MtD9Jzl64pKuYt/4utCUln2ID4boluQmZJ7X8qbxh8PHj//Ku+U6lxaU1//0pyeEVvp/UKp1pCR2iLVHdEMUHwu3ealSlk1VJZu0rhiRTv1g3qxZb1v6ZdG6dbtdv/SeC8uecmZv1WkatGji/BWLtQOhiRjNHvS6v3zhWWfsdBZNsew99vzz00u+fy4Ct6d6yIvJWKkXk7Z/69h8+rKfzJzZ8W6er2fOn79ft1K7oFKsnmLoiXQK+0Kpc+mZuHJh81dBqbdMKu1Uir2LRyj6Bb+dM2flUL8MKJ206+2PP35p1UjMRAKQJcZRpEBGG5OEdAhC+Ava+gZpzVyTLlUun77H+67/9HFHve05M9TPH+pxi8Iwc90vr5rRp2tfcy3rINcL9AzcQ1HDjqSu2GgLDB+RAm+RrVXcJXlD/c5vPv3pZUN9fx5HAo1OgEJzG1ZY3Ep2R4dlB0Far1RUxzBcdfRo5yOqOhgMLzFOl7UvKvyx57VJelqfvaGvchQyJHat+m7eFOsiElVQKCkSDVJUXIUhKIC1plqpVnJmcj0ioZbnEtqClmz2z5fPnCkFrrd4R3/JfXcd9OSLa75XrNWmWelMQloCSs90uUmjNNALI6z0f4+vmO0Xn/MxcdfvkIcIqPuXLdvND6rHlcPgkyW7uo+azDaj8BAgaOiw4SPBIBvFPUmbzhpc/WizWQuQyJMxjQdVP1w8/bBDlq1+/ukN3zvttJ6Bm7GUY/nR7bc37b3ffhEnccl9ZPToEv4em+4iWwJYON27ZMnJbiL5nY5yz3jVCNC0XuJsxRCM5AMYpg0UESioym2H7bnnl98toSlFuFc7pW9pieQpQaAmTTXRX68VYhPCGHU1612ban5Hc2h9b+ToYb8cSoKHCM3r7ll0IVJPzixW7SZ0dYrauCLAGZZuZDzjORLcelJl7/LbzvvMTic0T7nmmoOqaeM/iyX7aE03CwgvUKvVqp9Q1XUFM/nvuxaaHz1rtxnrp0xRd3gMtVzfLrvxus91B9rnfdefKPZpC/GYUedTCCsHGwisKjaEib5Eqfjbtmzh2zecfvqQSxH9CTU6f/DY0xf0JNSvIM69RU/A/o2+vikkkIXSiAChMrg8KmnLcpActFx3nSsO2nvC3aissEPr3n72+nkHbyiXvuokrOMiXY1SXbon9T5VCOEaRCYqXCSlo1v5lebQ+OnMjx74q1m7HrTDBfGWXFd4LAnsSAIUmjuItly0//uKK/YMLWsfuKGOVDLJExFcPyKZMCzkl2tyURWPdhJZ09LGTK7mEFnSYLhoBP7zluI/PCbXfNMhY8f+ZUtrs13x4IPjlq9a9f96PecUG0031KiPutT9hLUwaRazqnHj3tmWb1188nR0I3pnHxJ6sHbRosLyjo5DK4p3MoqHTk1ls2MlDrNScZE3ZSjpLAQmLuIuLL0ipiwTEQeo+m34wZqcov8+Zfg3TptyzCtnHzBGwgrqvRgb9BG5zhc/PCM09e9vqnRPQCFUVUcCGupTQbhhwyDNqVC1vFlTfn/4nnt+9UvvgusclqnCoqee+GQtY36zUnbGmWhfbaEcAwSTgqw4iBKEiKDfvOM7YSIM/lJww/88Zc6cO2Clf1vxv+Cll3a//eGHLqwE4RmbC02p9CB7EmzylJrjFUdZ1v8sOOecnUZoSsjIrPb2pOvb3yi71c9VSk5bLod69BDSFSTYaKHhYzuxosVKLPLc0i0fGT/+ubOnTt2h1vjzFyw44NWGw1hHAAAgAElEQVRi8VJoqqOxgghBh6UR22L5KdnWHr56RTQnzxqJF8LOrsvHpVK/nvs2pY02/5qKZ+hfb2yf9tfu3h+ZqcQBIjTNTFLZuPF1ZZeWYUqxt6TIhsWXFhdqUDY09YGCrl8+c+LE+3dEfLUkgC6Zf+2kNT295+qW9UmsSpuLnZ2F5hxYn4gDTPXRpj1QESdtBPe1FN1v/+pzn5NyTPX6W3yQAAkMtoQmih1AQG4udyIecf711+9md/ZNN1pyH+5wvaMRn9ms+oFWyEn8k6aUUPMxmUlFLkffc8PeDRtrw9taugqJ1J+83r5FB+611+++Pn3oohBCs/mev/z5bD9jfqOv6qNGu6bkdbx/VNQ8EcAbuzyn+F+66owzHnunhNtARu3Ntj0FOmQGLDhTjVT6/V3lvmbDRK4P+rBL4dEkCh9HZUI8Fxwq+Gn7VjbbnTeTDxiuu+SD++9/31cmT165s8RYbutpFbnOH3roE0i7+FZnpXucBqGpITZOrcEODhOh3IjdvrI/PJn8/f57jfnajhaa4jL/w7W/OLFb076KPJ/9NQxU+stL1xhpxy5uRSNtKRt7OhTE8ZXD0LlruJH5/o2nnvHEUKzzC7pe2v0PC++/oOqrZ/U6Tou0s8QJgvyTeuxnDSamZiPdmwmDn/zqMzuP61z6iP94zQsTq643z0iaByHUAEEtUvQbwhm7B+GHDaeXSugbEOG6HDlgC983epc7vnvMyRu29Zwayuu/f889uz+6etXnUTf4vMAwCgihrBdVl2QdWVhITbFQ9xb7/FzCXDwqnf7O/zn99EenqCgDsQWPi+++e+SDa9Z8G+73WeVqNSdx6/l8XikWi0ohh8Q/XKOkrSNiIZGDVCsafm1xvpC69ORTzn58Jgyr79T1SkTmHTfcMPH1cvGLCLz/eDbXjJaqkLtyzURCmrQ+lbpqiFtVLCQqajWvrJR75x6wy6gfXnrqqevfqXFtAVoeSgKxIUCL5ruwFCK6VqxQUj//49UT13n2+WinOAUJHbublplz1dBIZS14hn2lhJpsLbi+yYW2XCyFtVLVG9Hc+orXZ9+6a6FlUUuh6cnvzpwh7m7/n13YpOD85XfccXjR1L7bV6sdmjGTaiQ0YUVFm2zFMsy1zRnjy7885ZSbtreAE3H9zfnzC+tDb58OuzTRsFInw2B7OC7NLWXXQYMelNDDTUxORLi5kYWPVjeRkTJwkkaiU1P9V1E+ZWnaq93wofHjX4RVx93eY3wXToEhf2RU3ujeZceFSf173XZxgrjONUM6TUk7TVDE3d7u6fNHFwq/33/8BAjNw18e8ptvxYFy7i6FEfXpO+9MP7du3Zg1fvVwNZM8JzD0KaVSRUcSS5RhnkBd2aglHyRCTQuUimdLg+y1+VTqyuGl3qt/+dkLhiSYxKJ5Eyyajlg0HbdJukDJZkxu+CJ6VIRYmIHe12QZP7n27NN3ivJG/QlA7+uqdJ//Wlfnp5rahhXgfkbSORKbJOMaVmCJR5YaoS5kHbrP+LqReDZ07NvGt4283yiXV0w77bQyhJZ877epKsUbLIzarzdsSD1w9927wIL5mfXF3s8EydRwiehBwmMk7OWrKTGawh+emFCt+b1ZTbsGm8AfL/jc517bUoG1YNmy1A1//euBCHf8oReGB2koSRAljeGzbGRzy+eYaPGIzTDOeVSZqLmVpGndpieTN7WE1Qenzz63e3sJTlkX8NDOnz8/v77XPqysODPhYjq5AoeBhQrECKuXPU5UN1M2wpaFmr2w8VY7e/yk7/51VDrz3c+ee+4tH4hxp7Gt+MrzJSSwzQQoNLcZ4ba9gVg2rnzhhXHYr3+8pPjH42I73lODNjFpZNJpFR1WlKSZQukkuEtxI9IkdqnqVLVUugsFfJYlLe2u1pzykOmnXv3xzJn2W13of7ZkSfbuV17+dxS9/hJC+rEnR9Y7rEEa3OjoVNTbls/Mm5hv+t7FH/nIxm2bUf3VIjAXvvJK4ab779qr26+e4IT68X3Fylh0VcqlMzm9DPGcRQZrCAuOxKeWy2U45wwYWX0vlUx0uY79YMr3f7P3uAmPItFHauhFHZO2x9h2pveIyhtd85vjdBGaldJeKiqeq/1CU8IKfOmt7Dq1EYWmhZNGTfj6N6dOXrUCrCZLQN12fOA90fKlvbnP7muGv3vfPs/Z3/fDaWhz9f4Eanl56O2CtUW8JFzm0gs7jbqCUrpLiupXq2HKSvQ6dt/N6Wzqf6fvdeBzQ82mFovm7+68/yuup52JfVaTWJMkyUisaiJGJPwD9Qx7dc+99AtnnfXf9//qV8Y+mUygzJypQIAM6SG85MC3Y/bPuPb/Td5HgmeV/v+XEhNvKgTPQSmonkL6/G7XPRdxp62aA4JQWBkwRLF7pSLdxnIZpezaioPvfT6dUUKYh3XH35gx0rfldOOxvKWsPGDkyFfPOeooEe1bbd2TuOZFipJfcN11E93QPQA26Bmvbdx0ROuIUU2uh32dSHqI+wGXuYg/eLNR08gpZw39Vt3zLpvZ1vb01iYTyrXiU1dfPQulIL5Y9IMpehI2Qlh0Ue5Nen9B3OK6J4X5sdYBrn9InvQ1K7M+lzTv0Dx7aYtSe/KIGSe/esbw4ZWtvUZI+aLTb7hhF1QGmVCqVI7pKVVOTuXyE+yan5DKS5qB66WEgKDphpTskjindDqtdHT1BU3p1CsjwsQV433/un//7GeHtIEa0onJg0igQQhs15tRgzDZ4dOQnfR377tvl6dWPjvJaB02raO783goxnHpVDpjB9K1En26cdNOJ1JRCz+3aitlu6o0tRSqXq2yOpkylxpl9+4jpk599N/Gjt30Zjc3iY285qqrZgdp69tIohijeTU1idpvDlo3irvKMtUnhyczX7/6k5+8Z2sv1gPgJB711+3Xj1vnOx9GNu10KMlDyqXq8Gw6o2nIWpUYUZQkqidA2bDgSPKPZweGZfQhVGCVHnh3p1L6TUe37b7yCzNmSCLPdrPa7PDF3cYPrMdoPjpDhGYXhCaqttbrDfqwLuHm74hrseaFGT2x0lSV/2k2Mq8qTp+ERaCSUEI1cBNHrVfklEkMsAvDo+Tz46GjMiligD1ZBMTdyXMoeemkN/iowUsN/QjxpEssXgFKY2JoqHIj3t+xgxGGoeVQHgvVXCAEcI6qcCVK1ayoI5N0oMJNGcXkYY1Czo5n348i3JcdM2WK1EMccmJL3aL54BfdUD+7XLFbJes8spRC50hhrLJTVXKZVBFVam+1gtq1CN20kMGsGSgtho4zoRWNv/7QwASDqz8Hm/pvZe6go0fzr7f3wu8SUQcA6fQFC5aGT3NrgZbAVHGksB14T5TSCmFnQ7isHepBAkUSvKQ0kk1pZrlQyKz66LBhr71ZmZsF4QJ94Y09e69ztEug4adiVHnN81QLrWxFaPY5ZSWB8BmpTOE4qEqBWaCAJRJOakohWyhhrB3oKvZSixk8ppeLfypXqmtO+sSpG3bJZsupQsGBaEaTXCVciqlO7RfS+H/5HmkQwdruCAffUC5n5t91V/PrlcpwPZvct+Q6R9peMAWNHUaLzhVyiajBQ7TLA+96IwQJW5Cnuuv9pUlRfviBlpZbPj9r1jZ12Jp91VVtdip1SlnVz+utVPdOIWhT4nDBHKOGsPMd1P1NKKgWH4UXVEAdK1hCR6L1vlN6El+C27A3f7LVNMvHfehDfR8bNaq4mfh/4wZVxd8kQNh4qH1p4eXeF5v9gjWux1OmdJfKR4YJY1/LTLchxhhFOUTw1ptcSCwmTqroehW4TiS2ddPo0Gzn91NG7HbFf5xwwjOMzRy8fPAJCQwSoNCM0cmApIrExo0bd3++s/OwLtf9WMnzj9QNsxnX1YRYcuQGW6lUYAlMoWEGCgWXirhdoF68ZXbbnv18IWW25z3jjmNHuq+eM+2cwXaW0Y0C98J/mTfvcL0pe3FnT8+HVK+m42KOXu31Pu1Bze1qyZrf2rtSm3vR2WdvddKBxOwtuvmGgzqK1dOhaqYh2my07XlpKEsIW2QMYywiMk0L92NYJ/yqG6Z0s5xIGRvDwL0nk1AXBz2VPx19yCGvDtXqFaMl3O5DEaF5B4SmkVC/22VXJmo6bvlRqUGILYgmB25p6fdt6WbVCMIX3Uo5sPQkzH2umkgmYQjycISaRJlW3CBx5w5DP3IBIjMcYkHKtyYhCkX+wyImEqn/kiANWsSCLLfoKPkj1FHvsNXUjGxHbw+iL5AZLPUOITItnEeSFNFXKss40JEpGdW31FD6pejYoakFrzUrxqX7jhlz40VTp3ZuyUbm9jVrxv32/vsvsH39U312pQXWrrr7Muq4BcUUZbRXZIhdiHVc09fTrRYKeR3udPwZ7lbPA7AaGr/COoaUEsjzeva7IREahopADbCoWzSB9O+uhwjIkz4L9b/hxSi9Ez2X30ffKfxzRWhqNekbAB83DqkJTSMwE8l1OS11y0i3tvCSc2dvfLM5f2nBglR3qB2zsat6FqzUx2A5ch7ezULWtWhCidGWTWAmk1FsW77OEDj4ZElIwXFhPpPyKuXubsQ3dmIs6zOGuVJRzRfShvoSXtqrB4GDYo8we0Mw6zhxsCpaTaSrYiJoZVcAmFC13f07i927GBlrV4TwjHAdN4N6tEoK8aJoeVZPeJEe5MCAkyc61yTjH++xFgGVl00aPu43F5107DbHJEbJUXPnjq7oiVlF359j6MlxsBjqLiy6VgqbGHDwULlAztSoOmvU3TdyryNPTq1alvkSkLyIJepoyuVfDDz7r7B8d/oeKoEAGXZckMzYLWD/ESTUVGCrWZwN6Dam79PTV5yIGr1jU/nsyHKxrymVzyV7enujsKUA8bJRuIBk3Um3MbARJlFYg1OtFArW7aNzrT/5t5NOWjFWVf/umrvdLwZ8QxLYSQlQaMZw4cRdeu/vFk5eXeo6seT6R2jJ5Pt9TWvyAl8Vd5KOK19QcVAhHjce3HXLuADbYc2DFWZlIZVa3qyai4+cMmVp6157vY7M3sFySCfdeONI13H+b7Fc/HQ+m4OPLoRx0YxuZj3FbsR/Fm5qUvSLjxw9es2WZriKSF65Zs0Bqzo6PgzleGQ10A6zPUmGFj2goWOGaE30EoFAsNJJpbO7S0klrRoyydcj7PDhTNJYjiL19504e/bzM+TG8B50k7/ZqTggNBE7cWlPpbInahnBjycWPQmcgwVRTEuR2Q0lsvAGFYg9SaaQjO9BdydURz2BA2EKdUeoWKSih7xWlGskKCIpU/858P8i6OS3kdUb7nAJcWjGDRiJG4jtTUQbHrFcikqVOrCmkYw+W4RoxUPWuYlmoU713gltwy+48hOfkALtW1SeS4TmggceuLBSU2cXbbtJRKwIHxE7IjR9KXtVyCkiDBC2Gok/D52jojniOaJYITKjLoGDD7HMidgU0QbtudVXAHkPXz5TBIgkJ4n4xHN8YpBKZjuQJHPD6ETyFx845WMrN/8ebv6BD23alLvuruVHdZQ6TveS6pEl2x6hJdBuACEHkZiOrIqI1xSrsWQ4Q+DIc7kOiEsdAlLp6u1REK9dCz2/Wmhq7koYxmuwrFaxclWx38LCWxfGElMpz0MtCQdwG37V5hT7Wsu+m4CIRhdPhOiIHKtUlYKFyg/wokTWYwi6GjYnYmn10M4VQypainJTazL7H9d/6lPrttd3VcTmaXPn7tWnaeeXq84sXJuGYb0RHgqjO9zmwlasi8JFSrNFHaIws0qlJHMUhe/h3HTwnejDrzdWXadD8tHEeInzHnZ91YeZH+Uv1QyaQbTAhl2A4GzBLjsPEZswdU1taWmBO3yTkkZ/JjnnJXpcys2pKH4MrjCsSl9zT0llMnbaTDxh1pxLjh8/fvGOyILf6hOVLySBd5nA1l9l3+WBN/rHi/t5cfvS1hW9r36glNBORJeb6XD3teGSa/q42MtFVlxJErOE20dkQZKNdk0NHMTFvQBr1m24+N6HzIKn22fN6hJeFy9ZYj2xcvXpcP5duqm7pzBy9CjdsdFKDmWEUKcySFjJp3O59LfhcrxvwcyZfUO5gcjN4UsP3jx8/aripEqtcmrFC2egSnezlkjBY6qpJkQM0ggUH5bTBHokV+ECc1Vc5hW/DGvRKjMMF2dryk0zP3nqs+Py+eKWZq02+nmwYFmYal/V/lGn5vyg7LjjEbMGSyU2B1HNVXHyRnYunANRaKCoiagJgDwgL+tCYcBIGYkgER4QnGKlEaEkRktJxupP9BiIgu1/t3pXn/4uLfKe8n7RsZFgxfv1CzhfimvjhpyE0JS/VaolJEtYLrTRk2q59LPZ55//m6GUM3rjei5EC8rfrXj8y5t6ymegoFGzh5hUif+MfPQYrDbQIUjmCTEEPSA0oreJhGYkhN8oNCNMeICUJBW9wbE6ILLliIHndaFeF5KbPzSZr7SVldpkeNjYTLkwt5nJbFdLyvp1czW84qdnfkw62rxl+IeIzWtuumPfouJ+rKxqJ3mGOhbtVRMSo40WsZGwFOGJLQXaeKJcFKx80nABzcCxV8S3C9EPUfwk5oKNHNz8sFxqsFljsPWNRH29Bv5hETHkAOVXUXUK1xEXLuF0Hp1tEJIjWESk65hDVAIN80GzRaW70g1LNUJcqtVK1jDvNhz/xxe+b9Ij27v7jWR7/+GKn0zp1PQvVPzgo0YyU0iitqgmCyvrgRNekstQbjiy+KLKQX19Zf0lYQgMPFiX5YlEciCRCme77LCgpGUzhe9JFEIB/e6hmbpk1qFhG/ZvOAqc07CYV2x0PcLVS4S1LFoSm2QbG3u8WxSDjOTE3lQq/UcjcOftN2a3275+xBFwLfFBAiTwVgQoNGN+bsy56qo0ghT3Qq/ID1Y87zhcOQ8OdK1FTSDaDm5KCxc+cYrJzajqQMTh4ghXuq+nrD4k1Cw3kuGNlVLt3gfmzNkgN7uZ1157eMWv/dL1a3uhR7iBeK9ImEBwoMRnohNX4Xkj9PCyuZ94+z69lz50a+71XmXiC2tfOUFNpafj8j4RPWCaURMUxiYddh3csnDDguEVFihYQ+C5RbmiKgRnr2Zqf8xZxm2mFz44Z+r0l6eNHUu305ucixKKcNOvfzujr1r9QVWtjRMPqLikJetcx40T5V4ii10UsCjmnUg+1d3DcjuN/OzR7bL+EHEoYjJKasDfxRIZvU6Ea/8xm6dcyU08SryJhGzdlRqJLck6xntE3ZrwO7E0wYKEPYah2GUUhKkiUSRh/rkpoV/Z0lJYdPkQugC92VfxKwsX7vF6T8+XHUU9AwkazSKMxZVck40V/olFVcYLi39UVxOe0UFhLUwGrJn9DvDoI0SQwLQXPUfAZX1e0vFGOm3jZwhNKOev/BRI8nPg93//UzhC5IlFU9gCURXvJ9a2hJHalLcS17X6qSuuOO341W+3aVsiCTnz5+++znWnF33lX3qc8pQwabVk0tlB6ezAUoycFLx3NLqo/SPSYiC++oWmxE9KPd5+MTwokqPzQAyZ/3i5lzhIEVpipROxJgEHvgPhCeumB2uxzF06ifWUeoKabZfbMtnHDN+79Obz/u1+vOfb1kHdmsureHTmzf3RwRUt9YXuztKxSSufQ3gGKlsllbJfhfLD5kFiN0U/osyXuPgjS7KUX+pPFKtzEPE/cN7+Lfh4gEsUCoDzQEJ60NkN5xPeB9nkIrDFayBi0wEfNGvDMSkpO1UrdfVUsmbqgXw6N2+fQuq+iz+245pcbA1LvoYE4kCAQjMOqzCEMUjc+Zeuv36XjUHw/mLgnYNiydNwBxgm4WGu7SKWDAkMkpEr7lS5CUuyBOwZvaViubWl5Xm0wLw/aZjzsma2t1qpTEeO8AWB4+wroWyI95IuhiJH0Go4WJk30985sm2XWy6cPv0fsjjlJnDzr389sscufgCWsNPKZftALZVq0dHOw8bFXYSG3JyRhgKhKRpGXLtihwrLQa3ygqXpt4wcNvyuNk17+aITTthpeo4PYYnekUMQkpB+cOXLM+Ay/a9S6O3tehVoHVjuYOERy1O9RxBAi0DqFxJSyF0edXlZF1V/Jx7fZKQDAjLSXfKqflf64O83Ey9yM4/qKYpQhcUMiVxiXQ0Rv+cbqBiAkI7lWU1fMC7fvGRGPr9xW6xe51533diSqX+j4gaz+2w7Z0AUyeeLC9eCJS8phk2MN7JkynhEcPZbdOUvdVEdGT/7/9M/ebF+9c9TLIUS+1fPKpY4SLFy1n9KTpC42uX/B34O/l3YiycaZ7cp1lVgl045DlhBFXVnTPPakeXgx1d8evarQz05JGnvqTsWj17fsXZkp6J8A3Hah6KeZhMWJIFwl6gQmAOLplghRSBG0bUyv/71GrBeb/55g9uMNwhNOVbWW8r0VFHdQlzDct1wsGGNXPcSjwGTYOA5pXw2/WhS83+xR5hddsns2W+acDjUOQ7lOIkpR5mhpmIQ7Gt76icRS3pCkNBHOXotEWDacs6JsISgh+iuM5BybRJHKeemJOzI10Cs8XVA9fjWaM79A4DJF0VfQ5TjqkTv48Ozk7YyENqwneN1Yg2W0BQzbaGasduret6y1mRy/jAze//MYcM6tuW8HgoDHkMCjUKAQnMnW0lxLd17/bx9S1ry2JLvnQjD1qSqa2eMBNpZRgYn3DARuC7xm5L0ITFdxXKfNIZel8xnHkHO8cKmQku5q6P7LJRMmW57jiWB7QGsJC6sorg1F/VabSGScX4w3Pf/Mmfy5KhGp7jIf/Xkk/mFyx+eXE7qJ+IDjnXK3gS9Bic5uhlJO0C5mIvYkXqA8giDWuhWK15zLr/ad4tLd7FSd75/97EPXzhtWsdOhv1dG+51r7+eWbRoyYyS615ctCv7qIlAzSB+LITvUMIREJc2OLb6s3pGtjw2Dz8cOCz63YCbHU8l3jdaq2hjUhdfA4/IPS7NysXyIzddyVyX9+73AodIhIGxK/RQugClZpzWXP6pkmvfa2rWnQdMnfrsV0eMGGzFurUARWhW06lvFivV2RXXyyJXPorLlJEmsanRJfseekjiM+E0rsdpimWv/8pWTx6phwsMPiLBFcnzwbm/1fgia+7mbufNDoww473gilUSEJsi7ZGLjE5IcD0nrZ6mpHVtq21fftVZZ0ls6hsc9P+ciHzfPnPddYf22vbRajZ7MLZqB6I+6UiktWsQsaj+g9Yz4lIXdwHmH82xf5yRhVo04qCk+tu5EOntzTYRDpLEotjHyCUPi7SEAeC7bFeqQT5t2sm0uaIpk3rAsN3Fk4bt9tjnp03bpuzyLT0PRHgvuvrq/SqhfnRJU48o1uzJgR7saqCxuOd7KoaMcA0TscFwf0s0eH8IiLi5ZQMwGAYhG4v+zcig4ERcbRiifBRi3HNodxtGXgKEC5TBAVlUqOvrJ5IJGyL8iWzeeijtB/cUAu3pn511FvYAfJAACQyVAIXmUEnF7LhbNz2Uu3nJ6qM2uNUTUV5vcsbITiyWqxkd8UwwUqrIJ4jKkEQB8+LSQ2ZuxXHcfLbwnGFYT6Pw9e5IHjhEcxxUhYGIwHFiFYJokBz39Xh2HaKXFjflw9W79oSdPa67m60Gh1UNdYafTh5dLCMxA05xVNuJuvmIC1M+y4FVADGYiCTVAyeo9TTnrWdK6zv/cPD4CXccOWPGS8epqpRd4WOIBCQZ6JGlKz7qqMG3SzX7fTXcGBH4KqY7CAlkUqM2TxD5zgcsmFJWSITV3yINI8vUgKiS43AzHXhAaA5eA5AkMShO6u5lVDDEpkW0pqSRyCdgzWvYk3iIh/RwRFUNvJ6Er6xuCs2X06a+eMp+ox4Zs8/UjmnbqQWfCM2iVrsQSfKneq6bk/MLRRYV7KtUv4q2BuK6RzEjGRui8SJTaz0hp26+G5j7P1j6BgWodHWpIxBv6ebLMmDNHRRwm/1RStsMCBfUjlITLjLr4BWoSoiIOAbMVE9zypzX1Gv95Ko5M1/dUqEpHyVis33FitzK9esnPrthw1GuljgYwZ9NpWppn1pNa0XAS0q+2/K5A5uLgVjFSHxvJjQHhr65yJQAFxWdlsSCmZLyVJ4fICLHxb8S6qK/lDOtF1K6f/Oo1t2Wn3DssZverfhp4TAXHDZs3Dju2d6Oqagne1QqVxhfKhf3QCxsuub46NKL74EIftl84JwQHlGS3MB5HwUg1B+RVRP/xIJtwKJZQ9iACgumhSYWqAAW5lJpZNKpG7CgL6LCwPNpw7hzfCLx+AnjxnVOmTJlizofDfFrzsNIoKEJUGjuxMsrCUP3PLp01DPr1k4uVZyZvUX7MDObG45YtSTKF8G4KS6/6AYcxZ8lUAzallTVUEfJuhxyNG0L9W/giZRYJagHXJclYxexULWOvq4NbW2F1YiDW9qaT620e6tHwow2rdd2dq0EQSrd1AJrgqcUELukorafFJOPsoA9L0AMIZz54bqE6j2AWL2Fx0x63/KvffBYKfHC/r9beL79Cdn8P3/yyX29WuIL8BVPkBaUtrS/8/XASqdRhhSyXvy3kVASs7I8YNGObDvR0/6bq9j76gIz+pWEOEhH+YErAMyZIiylho+kitSin5KjLFGI4h4PAq+Gsvu1oNNIJTegjFExgVqOnld+vS1hPXfwQYe+Onvs2B6s8XbdSHxnwYJRz5XLHw/UxEdQx7vJg1sTrQjRQh0uZAzIRWcpaCqUCkUqTKDmILTQ2mBAVqIM0KC4GLAobnbJE0EOJqg1upnY7uc28Lr+nwMH4O1hKAMVfCqMqZGrHHnQYVq8tuj7bcPnWpVaOLqxIa2Y945LJBbC1fym5Y2GeiqI0Jr/9NMFdGLapbtYbNnUV/mwlrLGd3b37ptIJ0bDI5HFSiVQ7goefNlh1EMG6lbqvxlSB0TmYMUBQwux93TxCj8V6BVYMDvSieSLrlN5ttDcfK/W2/vK7OOOW//BtjapZbtFFtmhzm1LjsH8UZMAABGOSURBVIuE96pVuSefe263lzdtOjCZy03t7ivujWIcw5Ey1YzLHNQy9rxoS4X4Zew/kKWPjckbs7DqGxHZcCGDPPBCWHH9fCpTDdEIw9T0Dcg1ejZfyD5ULvU8NSLXvPrYmTM7uEHekpXisSTw9wQoNBvgjFgUhplnH3104oPPP3dMnx/MsIPawbBqpmH0Qc6Qhhp8lajLSBX3P3FrJ3Xp4GIoCRh9Kl4FwhKxbuhPLXdOSTAQCwdcRqHjVr10Ibmht7e32NrcNNIvVvN2xddyra0K3FhRoHwSwlQyYyWPHDFj8OuFryNucJla9e7ed7c9Hvvi9OmrR6jqNrtQG2CZtnoKEqf5+FMvTnA0L5+FwSY0zaBqo88jHlGRddGNKDaOuuKuGRVgj0raIKsjER1jGKh85Rk110RNAg0tP1FkAOabhGgM7DZcC/VzVEczAt1FtAMyfHXceVESQA90v6rano7KL/CMQ2GpQcYySsOGDetpHTHCyeTz7rDRo92pqDCD+/pbZlVv9cTxQmlRuGjt2lF+xR2OmMccrI+o5IUCkRirhc90MR/PNz3DRMH/QEujYGh0TavL6LrKHtjdCDf5fxd7MFOHRRI/Nx+b/E7+Jr+T56obIKlZSgihLmn/Q35fc92BpHyUFdORt1wLko68d1WpWUatHKBfkqP1JbLZ3o+eemrH1mTbvxkziVuUDk23/6q9dS32ip2+P1ZNZcfCtLw7dgy7QWRNgCV3hAHnOiyd0lZH4ihgX5Wy8ij5iR94LgVF0XxM7UPMwSZ8jVfVqqWns0qiEyG2XSZCbDLZ5IbDZ87ctL3GvS3r/1YcvtHeni/1GMO9gj7KLhd3QZb+BC1pDkd3gNHY5O4Fw6SF3YAlcQDCLbJW+4jJHAjRDEIXTPqMmvYaQlDWofPPy0YtXI3N9EbLL6+dethhr502aZJct7a649L2njffjwR2VgIUmjvryr1h3JIsdMkjj4z489NPH1wOaycgsmxa1fNGogSfich+3F5w54FFUzrKQBXCAVpf+hCqMOrAEZUJwTEQoFFcmthAIR5LQTXMpKzQRV9yaBwlDZEq7SMdBOdJlxZdChn7Xg2t2ipJI1iBVpmLm1Vl4f6jxjyPZKLqOyVAGmTZhjwNsebg4M2/rwPiZ+BnPb32b8fIsQPiT/62uUUqii7s//CB17zZtUCOi8L6NntfMZm9I6LyrWBsNveBFPp33bq22VgHbcKb/W6Am8QIvmNjlUz1G1esMBPPPJPqUHKtCc0ZDhm5F7okIScbTmSoSXynpZq9bC3gcVDzCDhQ0ba0avhhEXnWtq+6L04xzVfOnzlTMsijQNMdvb5D/hL84zVP2Gt3Qnw/MH9+uqtUakGFyzY/q4+CfRuVrdBDS5obyIQ0JaMGaPSD/MioQgCKc0Tto7q91xDru15rS25CC1+JPxUG0jr0HVu3rZ0vX0cCOysBCs2ddeXeZNyyc8ev9W/On5/rtO3Dunxvmpc0PtDj2PtoVrJJrJUZZFXWpK9yf69BcahGV+sorm8g5ViusZKtWU8niBJOJMwPwfUJlFRCoWOUGUEFP+jXROB2ZUzjCcNT78kFyr1TDjpoJRKIpOf6DhUjDbSMnAoJbDGB/u++eueddyZKpZI27OCDw6ljxsh3cFD09m8u3rhBaRhRNcBA5rkU/9nU3q51jxsXKitWKJPnzJFe9srcubAJ4wmuUZtzEC1KYbnFZx1fQAJDI0ChOTROO+VRd9xxR/KWat/71/f1zUGqwvHo6dEKh7lpoed4uVhWpV5cPSt3QBP2lwLZ7P/FLW4h0zeK3UStRDhXkWmsh26o9FSKfU+1mNotacN/JDPpiGeumjxZLJi8YO+UZwsHTQIkQAIkQALbnwCF5vZnGqt3FLfj19rb91tr27Pg5P7Auo6uSUkrVWhtHaZLO8F6wep6WZi6N32g+iJMo3galT1BNx8VvY/R6hJR9GoFCnUteqs/3JRNtzcnE3+5/uOfeo0WzFgtOwdDAiRAAiRAArEgQKEZi2V4Zwch2em333LLqDV9fft314KTio47y60FmUwqhYhMZKQjzTLq2dwftic2SamYI+37anCTuygQnW0uKCW7WktY5iPoF3IjUkeWjR03aeXcKVMq7+zo+e4kQAIkQAIkQAI7KwEKzZ115bZi3AsWLDD/4PtHbyzZ16MOYisyLaXcdtRmrm7NlBqM9TqMJgqC1zuOSBs21AZEBD36KHtIWP1lsqZ9f9zkyevhKo+KuW/FUPgSEiABEiABEiCB9wABCs33wCJvPsVTr7zyw69V7fmI12xpHtZmBDX0DsZDLJoiNKU/uR4iVR3KM5KQ0KIuSrxUIEhRgNNFG6H/bWlu/v75w4b1sQXbe+zk4XRJgARIgARIYAsJUGhuIbCd/fBTrrjisDCf/9mGcnmSntASqEWIKaHXOQrNRZ1CIDKNSGjWM9Gls550nqmhAF3VLlWtUPlBobn1hwtmznzHaifu7Iw5fhIgARIgARIggToBCs332JnwlZtu2uPlro7PV0z99IpbG5GT/i8Qmw56JovQRHTmoNAUi6b01UBrGKXkV2qo6/58OvQvsTJtv2ufNUvq7vFBAiRAAiRAAiRAAm9JgELzPXZySGH3z1x11SHdKe3ivqp3pKVblrSXUcwEOqbAfCnljmDNlN7H0qKthtLPnZUeOM6dYtZK3JpXEj+4/YzPPMss8/fYicPpkgAJkAAJkMBWEKDQ3ApoO/tLfrhkSdtTq148vRj4p4c1Yx/fTFpeLVAz+ZxSLlXRSCihOFVbgWtdQS9t+VdFB6HlhYQxL59Qb2+fdW7Xzs6A4ycBEiABEiABEnjnCVBovvOMY/cJYtW84oEHRi5/6a/Hbar6c8Kk9f4gmTR7ir1qOpWFVTNUkuJOr1Zq6GTu1Xzn8XTO/FlzJnPPMeP26zlvypSohzYfJEACJEACJEACJPDPCFBovkfPD2nX9tOH79n18RdfO6VbUY4vB/6+iqElqp6fyOWyqu7VvKBUeSnhu09YobownU4vu+acczrpMn+PnjCcNgmQAAmQAAlsBQEKza2A1igvka5BP1q6tOWJlSsPck1tfyWTNMs1N1Pq6XVbraydrakvp2rhk1fNmbMaAtNplHlzHiRAAiRAAiRAAjuGAIXmjuEc60+B4DS+3N6eKHd3q3l0C6pZVlAol8OLzj5b+lFKUfaBZuixngcHRwIkQAIkQAIkEC8CFJrxWg+OhgRIgARIgARIgAQahgCFZsMsJSdCAiRAAiRAAiRAAvEiQKEZr/XgaEiABEiABEiABEigYQhQaDbMUnIiJEACJEACJEACJBAvAhSa8VoPjoYESIAESIAESIAEGoYAhWbDLCUnQgIkQAIkQAIkQALxIkChGa/14GhIgARIgARIgARIoGEIUGg2zFJyIiRAAiRAAiRAAiQQLwIUmvFaD46GBEiABEiABEiABBqGAIVmwywlJ0ICJEACJEACJEAC8SJAoRmv9eBoSIAESIAESIAESKBhCFBoNsxSciIkQAIkQAIkQAIkEC8CFJrxWg+OhgRIgARIgARIgAQahgCFZsMsJSdCAiRAAiRAAiRAAvEiQKEZr/XgaEiABEiABEiABEigYQhQaDbMUnIiJEACJEACJEACJBAvAhSa8VoPjoYESIAESIAESIAEGoYAhWbDLCUnQgIkQAIkQAIkQALxIkChGa/14GhIgARIgARIgARIoGEIUGg2zFJyIiRAAiRAAiRAAiQQLwIUmvFaD46GBEiABEiABEiABBqGAIVmwywlJ0ICJEACJEACJEAC8SJAoRmv9eBoSIAESIAESIAESKBhCFBoNsxSciIkQAIkQAIkQAIkEC8CFJrxWg+OhgRIgARIgARIgAQahgCFZsMsJSdCAiRAAiRAAiRAAvEiQKEZr/XgaEiABEiABEiABEigYQhQaDbMUnIiJEACJEACJEACJBAvAhSa8VoPjoYESIAESIAESIAEGoYAhWbDLCUnQgIkQAIkQAIkQALxIkChGa/14GhIgARIgARIgARIoGEIUGg2zFJyIiRAAiRAAiRAAiQQLwIUmvFaD46GBEiABEiABEiABBqGAIVmwywlJ0ICJEACJEACJEAC8SJAoRmv9eBoSIAESIAESIAESKBhCFBoNsxSciIkQAIkQAIkQAIkEC8CFJrxWg+OhgRIgARIgARIgAQahgCFZsMsJSdCAiRAAiRAAiRAAvEiQKEZr/XgaEiABEiABEiABEigYQhQaDbMUnIiJEACJEACJEACJBAvAhSa8VoPjoYESIAESIAESIAEGoYAhWbDLCUnQgIkQAIkQAIkQALxIkChGa/14GhIgARIgARIgARIoGEIUGg2zFJyIiRAAiRAAiRAAiQQLwIUmvFaD46GBEiABEiABEiABBqGAIVmwywlJ0ICJEACJEACJEAC8SJAoRmv9eBoSIAESIAESIAESKBhCFBoNsxSciIkQAIkQAIkQAIkEC8CFJrxWg+OhgRIgARIgARIgAQahgCFZsMsJSdCAiRAAiRAAiRAAvEiQKEZr/XgaEiABEiABEiABEigYQhQaDbMUnIiJEACJEACJEACJBAvAhSa8VoPjoYESIAESIAESIAEGoYAhWbDLCUnQgIkQAIkQAIkQALxIkChGa/14GhIgARIgARIgARIoGEIUGg2zFJyIiRAAiRAAiRAAiQQLwIUmvFaD46GBEiABEiABEiABBqGAIVmwywlJ0ICJEACJEACJEAC8SJAoRmv9eBoSIAESIAESIAESKBhCFBoNsxSciIkQAIkQAIkQAIkEC8CFJrxWg+OhgRIgARIgARIgAQahgCFZsMsJSdCAiRAAiRAAiRAAvEiQKEZr/XgaEiABEiABEiABEigYQhQaDbMUnIiJEACJEACJEACJBAvAhSa8VoPjoYESIAESIAESIAEGoYAhWbDLCUnQgIkQAIkQAIkQALxIkChGa/14GhIgARIgARIgARIoGEIUGg2zFJyIiRAAiRAAiRAAiQQLwIUmvFaD46GBEiABEiABEiABBqGAIVmwywlJ0ICJEACJEACJEAC8SJAoRmv9eBoSIAESIAESIAESKBhCFBoNsxSciIkQAIkQAIkQAIkEC8CFJrxWg+OhgRIgARIgARIgAQahgCFZsMsJSdCAiRAAiRAAiRAAvEiQKEZr/XgaEiABEiABEiABEigYQhQaDbMUnIiJEACJEACJEACJBAvAhSa8VoPjoYESIAESIAESIAEGoYAhWbDLCUnQgIkQAIkQAIkQALxIkChGa/14GhIgARIgARIgARIoGEIUGg2zFJyIiRAAiRAAiRAAiQQLwIUmvFaD46GBEiABEiABEiABBqGAIVmwywlJ0ICJEACJEACJEAC8SJAoRmv9eBoSIAESIAESIAESKBhCFBoNsxSciIkQAIkQAIkQAIkEC8CFJrxWg+OhgRIgARIgARIgAQahgCFZsMsJSdCAiRAAiRAAiRAAvEiQKEZr/XgaEiABEiABEiABEigYQhQaDbMUnIiJEACJEACJEACJBAvAhSa8VoPjoYESIAESIAESIAEGoYAhWbDLCUnQgIkQAIkQAIkQALxIkChGa/14GhIgARIgARIgARIoGEIUGg2zFJyIiRAAiRAAiRAAiQQLwIUmvFaD46GBEiABEiABEiABBqGAIVmwywlJ0ICJEACJEACJEAC8SJAoRmv9eBoSIAESIAESIAESKBhCFBoNsxSciIkQAIkQAIkQAIkEC8CFJrxWg+OhgRIgARIgARIgAQahgCFZsMsJSdCAiRAAiRAAiRAAvEiQKEZr/XgaEiABEiABEiABEigYQhQaDbMUnIiJEACJEACJEACJBAvAhSa8VoPjoYESIAESIAESIAEGoYAhWbDLCUnQgIkQAIkQAIkQALxIkChGa/14GhIgARIgARIgARIoGEIUGg2zFJyIiRAAiRAAiRAAiQQLwIUmvFaD46GBEiABEiABEiABBqGwP8HYZ0VyN4UHpkAAAAASUVORK5CYII=;" parent="nqaRFmGrHPNLgWUz6itO-102" vertex="1">
          <mxGeometry y="58.041666666666664" width="73.5375" height="41.40625" as="geometry" />
        </mxCell>
        <mxCell id="nqaRFmGrHPNLgWUz6itO-122" value="" style="group" parent="1" vertex="1" connectable="0">
          <mxGeometry x="658.9" y="370" width="120" height="60" as="geometry" />
        </mxCell>
        <mxCell id="nqaRFmGrHPNLgWUz6itO-86" value="" style="rounded=0;whiteSpace=wrap;html=1;verticalAlign=top;fillColor=#dae8fc;strokeColor=#6c8ebf;" parent="nqaRFmGrHPNLgWUz6itO-122" vertex="1">
          <mxGeometry width="120" height="60" as="geometry" />
        </mxCell>
        <mxCell id="nqaRFmGrHPNLgWUz6itO-89" value="" style="shape=image;verticalLabelPosition=bottom;labelBackgroundColor=default;verticalAlign=top;aspect=fixed;imageAspect=0;image=https://upload.wikimedia.org/wikipedia/commons/thumb/d/d5/Rust_programming_language_black_logo.svg/1200px-Rust_programming_language_black_logo.svg.png;" parent="nqaRFmGrHPNLgWUz6itO-122" vertex="1">
          <mxGeometry x="3" y="2.5" width="35" height="35" as="geometry" />
        </mxCell>
        <mxCell id="nqaRFmGrHPNLgWUz6itO-90" value="" style="shape=image;verticalLabelPosition=bottom;labelBackgroundColor=default;verticalAlign=top;aspect=fixed;imageAspect=0;image=https://miro.medium.com/v2/resize:fit:1000/1*Dkp4EfAuRFsQppa3y_9Usg.png;" parent="nqaRFmGrHPNLgWUz6itO-122" vertex="1">
          <mxGeometry x="37.129999999999995" y="30.00999999999999" width="71.38" height="29.98" as="geometry" />
        </mxCell>
        <mxCell id="nqaRFmGrHPNLgWUz6itO-91" value="" style="aspect=fixed;sketch=0;html=1;dashed=0;whitespace=wrap;verticalLabelPosition=bottom;verticalAlign=top;fillColor=#2875E2;strokeColor=#ffffff;points=[[0.005,0.63,0],[0.1,0.2,0],[0.9,0.2,0],[0.5,0,0],[0.995,0.63,0],[0.72,0.99,0],[0.5,1,0],[0.28,0.99,0]];shape=mxgraph.kubernetes.icon2;kubernetesLabel=1;prIcon=api" parent="nqaRFmGrHPNLgWUz6itO-122" vertex="1">
          <mxGeometry x="70.74000000000001" y="2.5" width="31.26" height="30" as="geometry" />
        </mxCell>
        <mxCell id="nqaRFmGrHPNLgWUz6itO-129" value="&lt;font&gt;Elasticsearch&lt;/font&gt;" style="text;html=1;align=center;verticalAlign=middle;whiteSpace=wrap;rounded=0;fontFamily=Helvetica;fontSize=12;fontColor=default;" parent="1" vertex="1">
          <mxGeometry x="671.65" y="250.75" width="60" height="30" as="geometry" />
        </mxCell>
        <mxCell id="mbkqs_LI9Vs-7NMcBApT-1" value="" style="group" vertex="1" connectable="0" parent="1">
          <mxGeometry x="505.9" y="370" width="120" height="60" as="geometry" />
        </mxCell>
        <mxCell id="nqaRFmGrHPNLgWUz6itO-85" value="&lt;div&gt;&lt;br&gt;&lt;/div&gt;" style="rounded=0;whiteSpace=wrap;html=1;verticalAlign=top;fillColor=#d5e8d4;strokeColor=#82b366;perimeterSpacing=4;" parent="mbkqs_LI9Vs-7NMcBApT-1" vertex="1">
          <mxGeometry width="120" height="60" as="geometry" />
        </mxCell>
        <mxCell id="nqaRFmGrHPNLgWUz6itO-88" value="" style="shape=image;verticalLabelPosition=bottom;labelBackgroundColor=default;verticalAlign=top;aspect=fixed;imageAspect=0;image=https://upload.wikimedia.org/wikipedia/commons/thumb/d/d5/Rust_programming_language_black_logo.svg/1200px-Rust_programming_language_black_logo.svg.png;" parent="mbkqs_LI9Vs-7NMcBApT-1" vertex="1">
          <mxGeometry x="8" y="7" width="35" height="35" as="geometry" />
        </mxCell>
        <mxCell id="nqaRFmGrHPNLgWUz6itO-95" value="" style="shape=image;verticalLabelPosition=bottom;labelBackgroundColor=default;verticalAlign=top;aspect=fixed;imageAspect=0;image=data:image/png,iVBORw0KGgoAAAANSUhEUgAAAPYAAABPCAIAAABXta8iAAAACXBIWXMAAA7EAAAOxAGVKw4bAAAgAElEQVR4nNS9aZRd2VUmeKY7v3mMWSGFUiEplal0Ou1UOmWBR3AX2NXYLmNDNdCYprApMF38aKZucP3o7tUFhgbKgLELyqYbJ7UwNh7SeMRpW5nOlFKZTik1haRQjC/eeO+7873nnP6x37vxJIVkzOrVq/ooVui9G/ede4bv7LP3t/c+D586darb7SqKcuTIke3tbdu2fd/3PE8IQSmtVWuKqgghOOfHjx9XVfXsmbOB7zuO43neoUOHDMPAGEdRtLa2xhh79atfXSgULl68aNu2pmlxHHc6HV3T9y0uLB08EIbhd77zHd/3jx07ViqVnnnmmThJ5uZmT5w4ceXS1QsXXs7n8w888ABjbGVlJQgCSqlpmlLKTqfT7XaTJJmdnX30xAlVU1dWVlZWVkqFYj6fD6MQI4wQ8jzPNE0h0nKlbJrmjRs30jQtFotzc3PddqfTbtu2XalUTpw40el0rq6sxFEE3dR0PeFpGIaqqh48eF/OKnS7HSllp7MThkFrZ0fX9eMPvsIwjCiKhBCGYXiuN7D7mKDhcCiltCxL07TBYBAEAZEoDENCyP4D+2fn56MoCsNwdXW13W4fOnTo4MH74pQnccwY03VdCCERkkKcf+nF4XDIGMNS8pRTSqWUCCFCCEJISkkIEUIwxhAl0GyepARjQgjnHGOsqqqUUkophEAYIykRwQIhjBCSSHKuKArGGG6GagVGhJAkTRVKkZBwXWCEEFSA04SbplEuVyrVmqppgnOBoEiEMIImIoQxzhpJMBoM+isr11ZXb0RRZFlWPp8nhMRxnKYp5zxN09teCCEAY/B6XOvtpVYwHjwwU8qpKQ8YlVgSiSjCCGMMHUcIMcaklJxzxhjnnFJK5+fnHcfxfX9ubs4wDNu2YShLpVIcx0EUEEwopRjjOI5nZ2cxQlub26qqSol837csizGmaZrrukmSmIZZr9W54LBIDMNIkiTlqTMclkrFarXa6/UGg4GUcnZ21rZt27ajKGo0moVCcXNj0/d90zSnp6eTJEEIc55yzgkhlFJCSBhGruvmclalWtV1vbWzk0RxoVBACNm2nY0aoTgMw3w+L6WM49j3fcoYwQie5ft+uVy2LCsMQ9d1CSEKYzzlZs7CGLuu6/vB3OwcxjhJkiRN/DAolcu243R2OrV6rVKp+L4fhiEm2DAMRVVgcJMkURQll8vxNFWYIoRI4rjd6XZ63UKhUCgUcrlcFEU7OzuVasUwzDiOFUVJ0xRAzBhjlPR7PYkQlkgIAbMAfYdZJ4RgjIUQgALOU0KoHN8DwE3TVAiBEBKcU0K54JgQJCWSEskRFqWUsH4wxlwKIQQlBGOCpEQIcSEwwQhjzjkhGGPCObcHtuO6CGFVUxVFEVJKiaSUiBCoECBIMILlappGs9koFotxHMOyB5DASsAYZy+gU4QQWHKTS/oOhGM/SrY6NlWUYtEiBCOJJ2/L6sxGFcaN5nO5XC4fRZHrutVKNUmTNEmjMJRSWqaFpEQIB76fpqnj2KZpLMzP286g3+8hJCklUgiFMUVROOdRHDFGa/W6qqie52GMkzQuFgu+7yVxHEbhwsICxnhnZycMw3q9rqrqYDBI4pgytm9hodfvu8MhF2mlUjFMfTh0CMZBEDCFKgpDSCZxHMdht9tr1OuVckVwvr6xbugGLDPAtOu6mqamPEUIVavVMAwxxkEQ5HJ5xlgYhoCAhX37Bo4zsAdJkjJFIZRGcVwoFiWSgR84zhCaJ5BACBFKOedD2xkOnUqlXCqXwzAMgkBRFcPQGWMYY4UpQRBSxlRFsyxL142UiyiOwigcDAZpmuZyuWaz2em0+/3B7OwcITgDh6IoUgpdN4ZD13U9inE29yDesreAY0opRggJySgBEZ4tCYQQpVRiNAIhkgRjKQSllGACqzGbe0IIl6PKeZoiiQD6ggs8WmkSIYQJwlhyznvdjue5GCPdMBglUggEW8QYshJhjJFEEtpcKpWazaaqao7jOM6Q81TTdNhJANPZZpKBHi5mV+4AOk6F3O4N/SAuFQuUYIwlwkgKCZ+C7iOEQIojJKUUtFIq5ywrTmLXdRf2LVBK7f4AYxyFUbFYZJSlSUIpdZxBmiYAzXK5NBw6juOINFEYFWmqqSpTWbvdxgRXyhXTtFzXDcMQIQFt9TzPdd1KpdJsNjudThAEuq7XarWdVksIEUXRwsI852lrpxXHsWmZ9XotSWI/9KUUnudalpWmKSEYE+x7vud6U1NTlUqFp7zf7ydJkqYp6EtSypSnhUIBY5zL5WB/TJIEIaSbRpImYRS5zrDeaOim4QdBmqZRHGNC4jg2DMOyrCiKBwNbUZRmsxlGgRQyDEOFMYVSdzjcabWKpVKj0QjD0HU92xlompYv5KVAiqJJIVPOwygmlFardcqI53nQd8dxFEWZnp5xXS9J03q9nkENoAkrrd3uYIQIQinnI4VAypFSIcQISUIQjCkhUsg0TTNYjLQUKTEhhBIuBUEYCYC6JITADg7ye7QtUAJXoIqRKJWSEoKkJJSmMs0wjJFM02TQ74dBQAkxDYNgCq2SgEiMkJQYE4yIRIgLoapavVavVKpxHA0GA9/3QZxDmyexngl1aF52ZS+FBTte1OkNTdPMWzoSgmCJkZRotCQyoSClkEjQSrmMEdJ0HSGUJEmlUgmDAAZL13VN04QQaZoahp7yFDTRhYUFQki/34cdOU3TKIpMyxoOh1IK07ByuRzMK2UkTVNQY+I45pzPz88HQbC9vc05r9frnPMgCMIw1HV9enpme3s7jmOEULPZZIwN+gNVVQEKlUolDKM4jhHCrutyIaaazWq1CipKPp8HgS2ESJIIpi2Komq16rouoB+PFTUpBFOUWr0mpQw8LwxD0zQZY3A/wcR1vV6vp+t6tVZNkljX9TTljBCEkOu6rdZOoVCcn58XQgwGfVjMhLJqtcoFF0IUCoUkSTBGqqZalsm54JwPh8N+vx8EQaPRVFQVIazreiae0zSllBqGEcWx69h4LM8wQlyIERwwJoSkaQpa5kgd5xyPlAqCMWaMZco97P2UERDGsAZATsM+kHLOpVAUhRCCpBScgxSEPUFKiTCWE6KRMgaNCINo0O+HQahqOiAHFAuMEEZYIpnBFOrM53PNZkPTQJw7aZrq+mj3uxPEGeLvXjBCNErSVsemmFRKJSligqTEsDwmDANKEJK02WjwlFPGhu4wTdOZmZkkTlzX5Zzruk4pBZMIE0QpTZKk3+9blrWwsCCE6HbaIBjiJDYtS9P0IAhqtZphWGPjgcNigqUCenCj0RwM+lEU1Wo1xli32wN4LS0thWHQ6/U457lczjRNWBWqqgohGFMUhSmKgjD2vcAeDAzDaDQapXIpSRJQUVRVTdOUKRQwzTlXFCWfz4Oi7Ps+IURwniapHwT7FvelaQpWbJIkGOMwDAuFvKYbSKChO3QcuznVLJVK3W5XcJ5EsWVZGONub7C1taVp2uzsrKapQRD0er1Bf5CmvFAolMtlhFCaplEUC8FVTTUMA7pPCPE8r91uE0qllKZpKooipWSMAbAYY6qqdtttQBJCSCJEKeVSwpxBJaOFQTBCiDEGvzOTCxNCxtCnhEiJYBZAvGX1YJCXhICQIgizsdKfyXi4AUkEtiDISNBhMEKB7w8GdsK5ZZmKwoQQIHZHzUAos0SllJSSWq1aq9WiKHIcOwhCSqmmabDkMqGOblXQJ9fArUqLRIgISdqDoe+FpWKOKURwIaXAmGQLBBBPHzh2zPM9grEQXHKhaRompNvr2o4TxZFhmAPHDoLQ8wMpUZpyZzjsdHvFYimfLwwd1xu6ScrjKGl3Ooqi9vsDiVC5Uo7iyBk6nuv5foAwjpN0MLCHQ5cLOTs7Oxg4W1vbGJNmrTG0nSiIHNvOWWbeyq+t3uQp94bezNQ0RqTT7fV7fXvgpCnP5fIYkziOozhwPbfX75qmVSqXdcNod9qY4JTzKI6HQwf2HzAfR5hLuJQ4TbmmaYggzrlhGJVK1XW9JEk91xOCSym73V6j0TBMwxnatj1wXb/ZnMrl8lEUxynnQtabUzyNPd9td3YkknNzs7lcLgwDQmi73d3e3lYUpVarFYtFVVUYU1zfV1RNVTUuuGGahNKUp449wAjFUcQYA9MziqI0TcMwRAi5znBzfTMIwjhOoiQmjCKMhBQYYcBfIrjEyLZtPwijIArCKAjCIAjDMPI9P4rjOInRGG4ZSuCzIJIzuGCEGKEj43HMxmQGLkIICUEANUISQpCQBGNCMEKSEMxF6g4dxx4QjMychQkWkoMsRwg0lkmtGltWrtmcUlXFtm0Qo5qmqao63qVuATcar5C7KC0SISkRsv1oMPCtXF63qEApkpJgAutTCoEwYXNzc71e17Is3/eDMNja3Hr9G9/w2GOPOY7DOQdeJU3TIAgQQqqq+r6fJEm1Wp2bmzt6+MjazZu+7wshPN8vFIuBH2i6dmDpAMa40+kMBgMhRC6Xc5yhbQ+SJFFVdWpqulgs5QsFXdMOLC0Zprm5tYWQsKzc0sGlVPB+38EIMUXdt9i0cjmohxCiKEq9Xq9Uy9VaxXXdIAg63e70zGy9Xtd1fXt7m1La6/V6PQJbjWlaQgjHcaampra3W0LIKIpUVYW9aH19fWZmtlatBX5ACR26Nuzytm1PT0/X63XP8zY2NgzDePDBB5vNZpqmjuP0B4NavZ7yxPeDl176ruPYr3zlKw8cWNraahFCHce5ePHi+vr6/v376/V6qVzSTaPdbhNCisViFEVJkhSLRc91Hcex7UHK+XDo/Yt/8d8cPXo00yDDIBz0eiDFhUw//OEPb2xsKIxlM00JxRj/T7/+a7VqAwmECQbxTAgWAmGCbq6t/sV/+k+MMSxkmqZSSlVV4zgGZoxzDogHhSdJEoDVpM0KKh+oNHADoVQKAddhQ6CUMsa44GEYrK7e6A/sRrNZKOR5KoREhIw045HsxwghxHnKGFteXq7VqhcuXGy1tqMoKhaLpmlOquZAiYxUHTEy5+DiHZQiRkh2vejZ714/tjQz0ywg4adpQinLtiCmaVq5XOn3+6VSqdfr9Xq948eP//RP//Q9laH/14qUAiMspERSSKAvCE1TgSSwARQjDPQIiBiCqZBcyARJgjCC/lJKMCZSCCElEKz/3b/+yUuXLoFZ4ziOorBioeigYZIkIL+jKAqCwHGcWq3W6XQA+sBtbW9vW5bVbDZ939/abl27di2Xyx07diwMQ9/3dV3naVKr1vp0EATB6s2bXIiHjh/fv7i4sbFlmpamaf1+/8UXXywUCgeWlmbmZmFgfd9FCIHak6YpxhwhORgMEMILCwsnTpy42xD91V/91erqqqqoSZKAWiI4x4S89a1vq1bre37k+rWrf/6Rj6Scq5TCwgB8gO4ObIMYFxDqPE1hAVBK4zgGJQdnxt+YegfAUUpHn+ICU0qQkAgN+n2w4xuNpqJqaZIgjBBCQox3EimArBdC1Gr1Rx6xrl69urKy0ul08vl8sVgkhCRJMmmJZmYG9Av0JWh2hiD4L+Ty7OWNoRfft69GSSiEoIQKKTDGbHX1xsLC/MbGRi6X0zSt0+m0Wi0gmGFAs5Ltd2hy1wArY6R2jd5ioI7QSKu7h/UAfyKYgA0Bn1cUOrEIEJ18+08rqqrFScK5IGSklFersl6v9ft9KYVh6rquDwaDtbW1I4ePVCpl2x4YhmEYRqvVwhh3u13GWKPRiOOk0+lefPllQ9cX9+9HCG1ubgrBCWW1Wt1xHMHFxtpa4HkPPnh8ero5HA4xlqqq+L4/GAyeffY75ZXykcNHpqen46TQam1TQqvVmqqow+HQ8zzX9dKUh2EIyAOrDiEkpZAStFieJAmSciRHpUySJJVCVVXHtovFshCCEAzcHUKSc0kpcRxHCqEqKsEEqgWsZEYqGtMvgNoMTLtTirEkGEnJU2DfxjNFiJQSjGMhhBQCcSS4UDUVEyIFb7e2B4PB9MxsqVQEMyDTkhDCgBOJcJKkmqYfvf/+QrF48eLLvW4vjqNSqQzuwgxjsJxgI8oWGLRzAuWjIgi6tNH2wvjowbpOUi65RBgJTuM4XNi3oGlqu93J5XKDweDka0+ePHlyZHf/swrA/S4q1L3L93Xz7SXbGT/1qb/r9fop55ZlgqkXhoFhGZZl9vq9TIAlSdxoNnKF3HDowBXGWJIkvu8bhlEqlTBGcRz5vtftdivV6tTUFOjNlLIgjIqFkkYpTxLP82zHJpQ0p5qUEk1TpRSMUYxlEASbmxs7O61isTw/v8D5yPWo60a1Xs9Z1ubm5smTJ48fPy6EYJQRQkCVJJhQQjFGTzzxRK/dySQcISTlKaX03e9+d6VSxQhTSgmhI/YNYcZYu9361Kc+pRA2YvSkzCiX0ShPvADQj5RX8KcyijDmwMmMP54JONgEdtcGwgghSijnCSWEYhyEwcAexHFsGLqmKZxzjCTCSCCgPYiUSCIsJUIYl8rFWq3Ghej3+57rgT8b7aWC32aS4jtZc4kQQk4QdWyvVMjlTB28WpRSMhwOZ2Znh0PXsqwgCB5++BWvPXXqnwrxMWd6y092/Vbc3zbEE5/Et38eIYzR7dXCwhn96Y6HZTUi9LnPfa7VakkpBE/jOAbO23M9y7IMw0AIMcaCIIiiCGgZKSXoD+CDDMMwDEOQ67quJ0niOE6n061UKtPT04By2Nxr1QrGOEmSKE42Njc45zMzM+C2VFVV1w1wig2Hw7X1jTAMa7VqpVJJkkQIkbOsZrPJOT9x4sT9998/JrlG3Nt4lORff/KTO9stYLdGtqBEhJJ3v/vdxVJZIgnOSPgUsBOt1vYTTzyBxuYjHjv5QX7v+n3GOgAQtRmSBEIg7zOf6MglJASo9SDIgYHNoAZakJSSYIoQ8j1/6DiE0lwuhxCSEmFMoIWwWGCmOE8Nw6jX6ypTgFLknFuWBU2dBPRtQMok/W1AxxiFMd/uDC3dKJom5ynJ5XK2bbfb7X379kVRpOu6qmnfh+TE49+TP2gPcTzZ3Am4472qQGM831bzGNpjqN/ysIn1A5yjYRi5XD6Xy2GMwTdk27aqqgBQy7IIIVtbW57nFYvFQqEAYqxSqRBCbNvudrtxHFuWValUiqWibdvPPPMd13X37duXz+ehTs/zwDZVVQUTvLq6+sILLwghpqam6vW6ZVmFQqFarVarVSnlxYuXTp8+vb6+Pj09PTMzk3Luum6z2SwWi5PrHyE0kkhSwovMYzfSJTCilO4dxpFNikRMUcCrgMbSGjRyEMkAWUB55nBBCMVxLMdrQE54neQ4YAbagDEGn1qmQoxfI0IwI4RiHIfhtWvXrl+/DorNLmuDRpIJVFnBBWPs0KFDjzzySL1Wc1231WoJIYBsURSF3Vomr8D+M9l1AHyUyudeXru+2WNUoTNTM1LK1nZL1w1N09rt9qkfOPXqV78atqHvBfD/6goM97PPPtvpdIbDIZIy44w9z0MIpWlq6GbgB6ZhDYfDJElM0yyXy1JKx3Gy5RGGIQR1YYyBvo2jyLb7tj1oNJrVahU4e98PwijK5Qu6biRxknIx6A/a7U65VGk0mmnCKaFxnJiGqagqY2w4HK6srHieV6lUpqamOOfb29uvetWrlpeX7xxwjLGU6JP/9ye3t7Y1TRNipCtjhDlP3/2e95RK5TE0d8ljQsjOTutTf/spRghGOEMnHpMhGb5B7sIHM68n1I8lAq9+xuLBJgCLJHsQ7FEZ+uE2OXYxUkoowYHvDXp9Q9NMw0CCozFlPvIqkd2lmivka416mqaDwcDzPFVVdU0f0467shyh21/vCQSJUGvgSYkIY0xRVMaUzc3NJEk0TUuT9J8OKXlHQXvH0Nz141klaPzvzp/RX2+77fa6dl9SSqemp/P5PHjREEKFQgGCFpMkURS12ZySUubz+TRN1tbWwjAslUqNRiNN0+FwCLR6mnIIITJNU1XVer2Wz+db29vPPfcsF2L//v2FQiGKIoyJEJIQ1mxOmYapKGoYhM89+9zzZ5+vVCrT0zO1aj2fK2iaViwWi8ViLpfb2dn51re+df78+VwuNzU1tZcowTA6CCHwPo6C5ijlnAtwqO0xBNmoChgtIUc2GQBCURQ0gQlAPx87NTOIjzCajvRvEP947IJFCGWCHMyDSZ4RgCcEF4ILkQrOCcZpHK2sXL25uiqlpLBjSCyllBimFYFEBxXl+PEHjx49yhhrt9uObSuKoioKo0xht4hzkN+Tr+/cBiVCF9e7DMJiKKXD4XBtbc2yLMq+DwbjzjWU6Wd3WV53vVMiiSWWeI+ZA7cwRrfchm9ThsbEjhBiZ2dH17SlA0vr66tSInAr5nK5brebJCmSdrPZjMIISaTpuuu6Ozs7c3Nzuq7HcWw79jSertVqUspOp8MYM00TwkEVRdnY2Njc2Hzm6WdOnHh0YWEhieJut4sQgjiFZrPZarWAIdnc3HIc5/Dhw/Pzc4P+IE4TLriiKJqm+X6QJPGLL77Y7Xbn5+czA+u2GYKLlFEhBEIyTUcSF+QlupccgYBEjtFEGOAE35wZl4wxUMQzdQWsiCRJAM0AbqiBMZaOucVsz4H74zgGYz1zoCKE0pSD/YAQkhJtt1rD4XB+fqFQKsZJihDCEkOgmxjHUQnBKWP33XdfLpc7f/58v9+P47haqaiaFidxNuFZkzKl6+7ilZJCsUgpVRSlUCwQQrIokX9imZTfEM56C2rvMg1wf2YrQNywSAWHfynPfkQqsitpmkJAHKD8jkpRNpfnX3ppdXW1VquXK1XOeaVShYkpFAqqqhKCu91OvVEnBEshNU3zPC+O40qlUq1Wy6Xy0BkOh65pmlKidrvdbrellJqmIYTq9bquazdv3jj3/POUkqWlpUqlEoRBmqZxHKuq2mw2q9UKPKXf733zm988e/aMqimHlu+bmmpWq9VSqZizTMsyi8VCu90+ffp0p9O5Y6zG9ibGhmEiQrK9We4q5feSIJxzno7EMyASLMhMXQFAg7qSTRa0IeNPMmJuUnHP+KiMpYH1APtAmqaZgs4Yy0LNKCUE4ziKVq5e3ljfoBgTjKQU4+hEsGURQqO1NzM7+/ArH56amfY8r7WzgxHSNC1TxMHrNPka3t6pmiPEmWmZvX6PMEoxMiyz3e2AzvrPKCPHxJioQndnDCcXAIzF9/EYiUa73G1zLMfAQDgMwvMvnTd0fd/iIkLE833DMB3HyefzIGmSJFFUmsvnPN/z/aDb7ebz+ampqVKpJIT0XB8aNjXV3NnZ2djYkFJOTU1B4FStVm21tq9cuaQo9KGHHlo6uF9cSe2BI4TodrumaeqGXkQiDENMJCHkytXL129cO378+OLiomUaOUs3dIhLM4RE16/fGA6HaE9xIKWQcv+B/atrN1sbGxgJRVF5kgghqMLusUnCxgU9BTEMM5L1HY1DsjL0gw4DisfkJGYCO1Np8ESgb2aVwj3phO4upYyiCFCOIH4dIylSKcX25kbge3Nzc4qicCklF0hKhIkccQhUEs4Fr1Srr3j4FS/r+urq6lZru1arAWs+iZ/JYASgz+H1JGvOKKUzMzODwcB1XdBcMwfE9wbbxNYQRdHHPvaxRx555NFHH82crndTV7IPYoxd1/3EJz7hed7U1FShUHCHbqfdBjekruvlchmiBjzPQxjPTE//yFt/lDGWAXq3TLw1DBMhdOa5MynnS0tLGxsbdr+nKMx1XcMwYFNut9vNZtN1Xdu2Oee9Xq/RaFSrVc/zk3g0WAqmzWaj3e70ej1wwmualiRJtVrrdrsXL17Udf3IkSNLSwfWbm44ztDzPEVhisIgCch1XSFEuVx2HOfs2bM3btw4ePDg9PS0pulA13AhG42GaRhoT3GAMZjLh5eXZZpurq+Bhxtk+T0NnpHBl+EYRCOIW+g+oBmuw1vYpjLsZhssyGkAbgZ9qHnybWb8ZdAf26mC0pFkZYxxLhAmnU7H9/35+fl8sSCEEBMCS0qJRt5+bhjGsWPHLMu6dOlSq9WqVqtAAECnoNloIswYTziwMpQz13WXlpY8z1cUxTTNYrH4PXXo2wooYR/60Id+4zd+4/HHH3/iiSempqYyXe0e4hw++IlPfOIXfuEXCsXi7MzMgw8+KIS4cuny5uYmRNhalrW4uIgxWV9bwwQLLoql4utf/wYuOUW3LsUJ0NdqVVVVwyh6/vnnkyQ5dGhZYbTV2h4Oh5BYBKEXQJL6vi+lhBDf+fm5QqEQR0kURQghiaSmafl83vO8TqeNpKzWavl83rIsXddbrdaFCxcURTl06NDSwaWbq+uQdeEHPshLwzBAeVUUJY7jwaD/zDPP1Ov1gwcPGoahKIqQKJ/Pj+JR9yoYY8G5lHJ5edm1B57vg7BU6d0iTkeyg3OOKMuUB5iLTHhlrDYErgBGJ4WuoihiIqoRcAOQAnCjsYQCkGUMY3YnGutIjI3Dd0c6ksSEMMZ837+6stJoNqanpymlScoxpmjELwiMMCZEcK4q6n0H7zMM4+LFi91uV0oJscpA74AtkanWGc2CJhYb29lpTU01DxzYf/nyZQgYAuvnexboIShk6+vrH//L/9xsNC6cv/AXf/EXv/7rv55tat+zkiAIZmZmVFVJkijwvaWlJVPXmEK73a7kXFMZkmJ+frZYzEF42tr6Gigqd8Ahm2QZRlG1VnM9Nwi8ly+c5zw5vLxMCIZMNs/zarUaBLXncjnO+c7ODqW02+2WSsVGo2EPHLDoNV3TdC2XK0RRMhgMwnBr6PnFYjFN08APCGW20//a1/+x0+kdPny4WC6mIg3CQEqsKprtOMViUVVRHEVRHFPCFEWLo8i2h2fPPE8ZK5dKcwvzhBDBd020PQaZEM65ZZpLy4dfeOEFgZBm6CnndzE3x5yaRFIIPlYh0Bj3oBZmuIdILFBkwzB2hx4XfMT9CUkoydQbSokC7JuqovHR+gsAACAASURBVLGMxOO0HTIOZCfjLCSMcRAEcZxQytI0oYRigkfhMUgqimKYJk/51uam73n79u1TVC1JE4LJ7khIiTAWUmJGavX6/ih6+eWXV1ZWIKAFupM1frf/YyU5Y0uZpqnXr1979NET9Vq93W4nSfxPp8PlmBD9kz/5k6EzNHQjiZOP/NlH3vGOd9x3333Z4N4JdDzB0TLGcrkcxtIeDC5fvlQul3L5XL1ewxjtbG/3ez0pxGDQm52fp4wOXUfTtL3pMrybnqioikRyaqq5vbXpOM75l17yXPfhhx8+cuTI6uoqhC5Wq1WEEKQkA9yllK3WTs7Kz87O3rhxo1KppDy1bScIgqnp6QNLS9PTM81ms16vlUolsFiCIPQ8lxAyPT0tpdzc3Hzuuefa2zuu6ylMcWwHIaRpWj6XD8MQJ4mhG4UCcl0XIbmz03Zct9VquZ675yhlE4YxTjlvTk1Nt9s3b95MeKIqyj15WSmFgK2fjNMr0zQF9gzSRke+UsbCKHSGjqrq9Vpj3+K+2dnZYrGoMCULMUIIRVHc6exsbm6srq72ej3GGITOj9o2Xi3wYgy+9NSpU4sHliSXY1JoZNEylb10/rtnz5xRFBVLPLSdy5cuz+9byOVyUko8ZoVHIhmjNE1f85rX1KrVbrfb2tmJowhC8GFRPfXUU2fPngVWBzqfxRcA0JllWdeurVQq1YMH73M998qVK5k2c29wZyL88uXLn/nMZwrFAsaYp3x7e/t3f/d3//RP/zQTS3dq5JN0iu/77XZ738J8oPrtdvvChQuPPPLI3NxcGIay0Rjaju/7cZJ4QdBsNjkXge/vvTnsRuGjRqOxvr4ehlG9XodkiLW1NSHEgw8+OD8/DznzYRgyxnRd55zbtg2aw9b2FiH00H2Ha7XayspKnCavfOUr3/KWt5w4cWJhYeF7Wilpmu60dp76xjc+/elPf/e730UIgbs7DMOR/yiOGWO5nMUUxbIsTMlwOMz8KXuO86SYOHjwoOM4nutkNAjcdZtdAkwzRLMkY2TDxEP+Mgi/NE0HrjM9Pf0v3/72H3rzD99//7FqrXqP3gnBNzbWzzx35otf+MLTp09HYVgoFgEtI9f92EuqKIptB7l8/lf+3b/bs6rvvnjuJ37iJ1RVJ5QIIeI4vnbt2tTUVLPZ5EJktgRgLJfLvfe979VUdc+qXnjhBXjibTDLAMby+XypVHrxxRer1drhw8u9Xm/SiNxz0DNTEir6yEc+MhwOdVVTVZVQYlnmpz/96Z/7uZ975StfOYqLGC/K2x4PV3RdNwzD8z3Iednc3Lxy5crhw4cXFhauXL5crVbz+bzv+0Pfg7ZNMq+3lLEUl1Lmcrnp6el+vx8GfrlURggPBv2bN2/6vn/8+PFjx45dv35dSmkYRhwnUgpDN2zHhljZfr8/HDqFQuHka1/7Y2//sVOnTmXIzsI476REYUwopTOzM+9694+//Z3v+MLnP//h//jhGzduaJoGlhPcFgSBqqoQUsQYKxaL+Xx+b0whhBCC8zwAlJZlzc/Pnz37XIGxyYffPhIYj9A8JgEnLUtMCELYtu1qtfrz73//u971rkajmXUwMzSzCc82GErw/Py++fl9//K//bGXXnzhI3/2Z1988kld18HHKYTINHjBuaZpX/va17a2thqNxoQ5OKLADywtHThwYGN9g1EFTDIu+Pr6ehgEs3NzlJJkTARFUfTQ8YcURQGTN1vN8KBLly6dPXsWVMeMl8u6P7IQBv1+s9HESJ557jsEo8PL91l7eCJuGT4YBaBUz50799RTT+VyOdd1EUL1el1TtSgIf/f/+A9ZcFQWdXhnVQgh0zRrtZrCFE3TyuUytHtjY8OyrMXFA6lAfXuYK5QK+ZLvhd1OHxx296TMRK/bLuTNRr2ma0aaika9WavVCSHdbvfs2bO9Xm9qaiqKojCIGFUsM99oTGXnQARB8OyZ59745jd96Pc/9LrXvQ60TDHO+AICmBCS0bF0XPAormgUFvujb33rx//qEz/0lh8eei5VmOu5jLH5+flSqSSEiKIoc87dGRc6WYIg6Ha7nU6n0+msr6/n83lC2OUrK7snmtxRhBSQGcQUlpF60LY0TYWQA2f42OOv/eR/+dt/+29/qdFogkMDOgitgh4xyihl40hGKtEoC45zfuzB43/wR3/8B3/4RxC6B5oPHocGxEmiKIpt29/+1rdAU6KUMkoJobCZWFb+/iPHQj+gBGHJRRqLNEFIdLvtq1cup1HCxmwgT9IHjh0DN/7kmIOA+MIXvjAYDCAx4DbfZ/aaXLp0CSE0PT29ubl5+vRpTdMq1eo9MDTJ93HOP/axj5VKpWKxSCnt9/uapoF75cknn3zqqadGURCZ732vqoCrsiyLcw4URxzH5869YNt2vlA4ePBgPp8fDoelUsmyLClEGIV3wzb8RwhZXV29cOFl0zQXFhZ0XU/TtNlszs7OMMa63e65c+e2t7drtRqlFCMMVGmlUtF1nRDcarV+9Vd/9T3veU/mDmQTGTdZyZ6a7WnwYuR6RAhyoz70oQ/97M/+rOd5SZxsbm5ub2+Xy+VyuQyJm1EYuq4rd/clie6wMzRN03Udsr+SJHFd9/jx43NzcxP65B1SHGFoADgdEUJ47GZnjNm2/TM/8zP/+eMfX9y/CDGPjLCxAXZLXxC+tcsYY4IpZSCn05T/0Fve8pef+MS+/YvOcIjHFF6moPM0/Yd/+AecOVMnaEEp5cmTJydDaygmDBMspec4K1eu+ENPoSyNk1wud/ToUZylco5hA9D6/Oc/b9s2bIy3+fYzMUTCMLx582alWq3X69euXfvud7+rqgr6XooKbBOnT58+ffq0aZqQ7dLr9VqtFlD0GOMP/d7vjfxk96RVdF2vVCqM0VzO0jTNMIxSqRgE/nPPPed7nqEbhw4dgkR6IQShlNG7+YkytghhjLe3W1evXlFVdWnpoGVZju3kcvn5+flarUYIuXnz5urqKsY4CAN36Obz+UqlkrOsKIp+67d+86d+6qeAD4a97zbdLFuuk8ZGdj0DRLZ9/9qv/dqP/OiPQKyLbdvXr183TbNcruiablpWsVikLAsdwbfhNdtwIU7GNE0Yosceeww0H3j+bS8ybZsQwigVnEPwICVkMBj8+Lvf/dsf/B0pJU+5whSMsbyjhskJH1+UWEJ0hcQYE4opJUkSH7zv0B/9xw+Xq5UwCKDjWURkvlA4d+6FmzfXCCGQzo8xxnIE1lc+8qpqtQoJk4wxJCTmAktEJA5c/9qVq87AllIuLCw0m83MeJNjroIQsra25nlePp/f2dkBxjMriqJkvk+iMNba2t5c39i3b1+5XH7p/IVr167viaBsCjMR/sUvPlmrVhCS5VKhWCoBf+z7PijQX/3a17785S9PhrPdtmxAFlJKS6USoYxQhTElDGNdMzVN73b7Z8+elVgUivkDBxaLpSJVmGEad3ru72xnLpczTaPVar3wwrmUxwv75qu1CoxCqVSqVquU0sGgv93aCkLfHg76gz7GVDetd/34u9//i7+Ueel25dm4wZNwxxMGSVbkRMnCrH/nt3/noVe8Qkihalqv33v55QubW+tWzmzUa8VCnu4yWLdLcSFEv99HY6c6xMlku3A2kLe9SJK01WrbQzdK0hQhqmqIUImJ7brLR45+8N//ey64RBICXNEdu9OtG/hExPI43m8MBMQYS5J4//4D/+v/9r+ngo/c8dkRWVJ2Oztf/cqXEEJScjkOvQKMNqYah48cSZNktFtilPAUY0wVJpEQkq9ev7a+dvP++++fjPTCEzEj586dazaby8vLiqK0Wi3IS5xUUcZaJcIE4431dSlls9mkBMOY3inFsyEAXfOJJ544e+bM0tIBjKSisGKhAAd8AQ0nhNA17U8+/OHMi3bb/p49QghRKBQIYWEYG6YlERIC1WuNSrnS7rSffvp0ksSU0XqjMTc3RygFbuhumwyULAHRGdovvfRdITgowdH4EMOpqalaDeI2+51Oe3NzfW19vVQq//Iv/8ptIM6cKZPCO7NGJt9mN0w66mB68vn8L/3yL5WrFUVVcrmcQHxzc+P8hZeuXVtJk5iQSW5Ejv4fF9iIs+gLMpGec0fZxXoQhput1vrm5vZO23HdOE0RpQLh3/pfftswTSkkpVRiifDon/x+CiwE6CtjShzHp079wNvf8Q5nOEQUcmpHZqtC6Ve/8mUhIPdCojHrADe85uTjQRiCEQ89F1IKKTDFmCCERKvVWjp4MJMj2WjDUJw5c0ZV1X379sHZmu122/f926LJKXhWKaVhGF65cqXZBLNs7zDcrIeEENu2P/jBD165csX3/VwuJ4TI5XKg1Hqep2maZVmqqj71zW8++eSTWSyO3EuKO46TJEmz2dB1TVXVfD6PkIzjOGflTNPc3Nx85plnpJSlUqler4MLd8/mTVZsmma9Xgd9NwiC06dPQx5+Pp/P5/Npmtq2DVQGEALD4fD6tWvLy8uzs7NZdNF4TLGUED2BMqMz07kz4ZeRLQijEXTGEhG6f/Lkybf88Ft0Xa/Va5VypVgsQkTkhZdfBpky5v7wJFZBwl2+fNn3/TiOCSGZer1XGQ0vY6xQKOQsS0ppDwabm5vtdntzY+Pxxx9/7WtPgoSSo/QynB2+iSdy2G4rciJABSEkIfRzXKC2/+Hnf75UKsFRgbDJCyE0TXv++XNXr17GGKhxDIIeyolHH7UsKxMEeCJcTAoZRfH83Pzh5eWsbVkDQEtZWVkBrnB+fv7gwYO6rrfbbc/zIPwYnMqU0pFIUFQFNOmZmRnTtNDdxSSoQX/+539+8eLFfr9/7tw5UH1UVS2VSrquR1EURRHkxWCM//iP/xjmZrJCOaHLOo4D58gBYVepVBRF0XU9TuJCvlCv1zudzunTT7uuC5FScE7nPYs0DGNhYaFerwPTFATBmTNn7IE9NztbLpfBNwY5yJCYUygUMCGve93r5B3q9UjwjOkUAJlt23BawWAwsG0b0td3cYMwlqO5lBP6zGte85r9+/dPT08bhgHZQLVarVQq0ZHGP7Fox0MlpQRn5Pb2NujWhBDI5dlrgkYPIoRA7mm1Wq1UKnBU2HA4fNe73jUpaDDG40wzjNHIywH6TxiEcG4j5PjBdZxFhIO6Md7XAaALC4unTp3yPG93K5JS1zTPdb/0D1/G2Sm2oycSKeWBgwfvO3RfEASZGibGp5BKKYMgeOihh0zTFIJPSJxRft3zzz/vui7wUVLK2dnZpaUly7La7TYcGrWrmItdhwm6fPny0tJSrbY3owKkJqXUtvtPfePrjXo1juO1tbVCoXDkyBEpMMQbtdttSHwEr8fFCy9/5u8+/Y5/9c4soB5NxA8ghMIwXFtbm5ubg487jqMZuud6Zs4Kg0BV9EK+NOjbzz7znccee6xRqxv6XYKWxpiQUu7s7HQ6nbm5OcZYp9MxTHPQ7T1/5sy+xcWpZhOCHFzXdV23VqsB83D//Udf8YpXoFsPHMt0P4wx5+nff+Yz3/jGP144/3K/PwD9qlqrSSkZpQcPHnzr2972qle/SnCBMEJkJOsm6kGHDh0qFou1Wk1R1H6/73leFEWmlTfNHAzvXv1BhVy+UasPbafd2pmenk7jRCoSvDl7jkCGA6CDcrkcHAY2MzNz6tQpNOHvhDshplxwQRm9cvnKJz7+8e++eK7X7cJxwHBbs9n8wde/4V//1E/pus5TTtk4vm9iKUop3/ymH/7M3/09kkigkUhO0lTXtK986Us//2/+DaXA5YMwlpwLxtjDjzxy9vlzkEI+CWJ4DWnycrxg4FmgpYBHM9sxCCFwKOzVq1c7nY6UMp/PA+PO8DiFDvTXS5cu341wzbSUz332s5qmzc/Pr66ucs4vXLiQy+XmZhdc161Wq47jwAOCIIBR/uhHP/rmH/4hODk268akZg8nmVSr1Var5bru8vLyxsaG7/uVcmWn1YIky+Fw+PTTTy8uLrJ7ZmxgjIVAUko4D3ZqakpRFCZluVz2hsMb168ncTy3b8HzvOFwCCKqUqnEcfzAAw8CcYnHvl8oMNzD4fD3P/QfVlauXb161XN9QlgYBp7nQTIopfT8+fOf/OQnP/ArH3jf+97PBSeSYLnLVACkGo0GhIbPzMwUi8Xt7W3XdcE8yJqfjXX2EkSaYRg7OzujSAE8Pl9zr+4jhIrF4qtf/eqNjY1utzs6+4XzRx99tFqtZm6gTI8CSFFG/+aJv/mff+u3er2eqasIIdBlIUJ1ZeXql7/y1c9+9nMf/pMPT8/MjCAob1GoMMYPPfRQuVyOAh8TnAXGaJr28vnz51966cHjD0kpCKJjdQxLKV976tRf/uVfZmMux8EzEL7/yKsewWO6UE5Qeevr61evXoWFkV1HCM3OziKErl692u12Mca5XC6OY4IwwgRLKTFCiqI4Q3dzcxPtpahIiSiljm1/9KMfpZQ2m02IpAvD8OyZszdv3gSmxrKsbrcLhy/D8J05c+a5Z5+9DTrZmimVSmtraxcuXIDpbLValy5dmpmZ8X1/fX09juOh44Cg3dzc/MrXvgrJxXfTo2ARcsEhbf7mzZswELlcrjBOKtvZ2ZmdnW02m5Zl7ezstNttTdOOHj2CMZ5kVaHAlT/4g9//67/+ZKFQePjhhxcWForFgpXLgXcDjkufmZmp1+u/97u/9/WvfW0UxoR3CUQYB0VRCoXCF7/4xdXVVV3XFxbmZ2ZmDMMQe/DiuwZrEIRCCLBSdnZ2ur0enggZ3RPihJADBw78wA+cOnXq1PLyIdM0hsPh0tJStsvjCeYHVPPPffZz73/f+4QQtVrNNC1dH+UfaJqmaVqpVG5OTT399NPv+4X3+X6AxuJ/3L1RHxvN5sLCQpwkGZUEeA3j6ItPPjl66Ih6lLBZPvDAA1NTU0EQZE2CYY/j+PDhw82padDgsz0Hxgq0lGwvyjqOMZ6dnd2/f79hGLC8GWMMCYQJQXgU44sQygj8O4dPCGHlcq9/wxvX19ZmZudy+cLNm6ucc0g8W9i3Lwj8QrFY77RN0ywWSzs7O647nJ6eOXr0aFZ/JjxAb/nJn/xJWCcHDhw4derU2tqalHJxcfFtb3tbe2eHEpqkCWOKlNJ13Vqt+qY3vxmhu4oxKIcOHbpx/YaUEhy/pVIpjiJCiW4YhNGtra1cLgdxAbZtt1qtfD5PKV1fX4/CEEJ2hRSUUEVRoigausMvfekfqtXqlStXlpeXp2dmwmvXTcNwOS8UCoSQwWAwGAxmZ2cd2/6bv/mbH3z96yZHP+uvlPK+++6L4/jZZ59ttVpHjx5tNBpw0MV4ksZSEY+paIx6/U57pwVhT4TSK5cuDp2Z/Qf27zkCGRSiKFYUpVqt1Wr1KIpqtcaRI0fQBC2GxwY0pTQIgg/8ygfa3Q6hVNNUQ9MoZWnKIVxESBmEAUJ4qtk4/e1v/fX/9Vc/+3M/l6Yppjhbj9A7ymiz0TiXJFLqIG7BdtQ17atf+covf+B/VDVVSkkQkQhhjDgXhULpoYde8fd/92nTNCejuOIkefy1J0c7DIWTpHYZqqefeVq9NWRFTCTizM7OSilXVlZ2dnYa9TrDmIJZLRAX4yhGtJeym0mI3/iN3wRKblKllnAmKsGjbOKJTVDX9ax92UxkY10qlT7wgQ/cA697lrtpohjjNE2kkI888sj169chftB1XcM0zVzO8z2RIFVVd3Z2Go3G9PQ0IWRra6vb7X7wd377o3/+kUaj4Xlet9t1XTdNU3CpdjptVdUgUOTixYuHDh1eWNjX6bR1Q2/vjMKPYceQUt64cSOKIk3TJgVM1t/p6enFxcUwDFdWVhzHOXr0aKFQKJVK4x6NIYMhtQnDMWFxHNYqZS5FGAQEk421tTAIJgT5rsYwAV8iJUpTjjHWdePYsQcOHjyY7SrZLMCknDt3bn19XVGUdqeNMbYME5gDTFmaxlxwxhjiIolC09C/+OQX/vv3vpcQAtm0o94hLKSQUpbLld1vqhj/VlVt5crVs8+dOfH4YwK+hQLtLoyTJ0996r/8bZKk0CLOuaqqpmW+6tFHdxsMEBWCUnr92vUnv/AkfKkJT3lG7WecDCFkZmYmTdPr16+3d9q7YYfk1vV9Z5nc4NS7hH3d7YOTM529zm64hZC6lQS9s7ZJm3XPZxFCXnjhhTiOl5eXt7a24IxCOHIyn8tTQrOTOhYXFzVNq1QqnU7HcRwIUJmenoaoTs/zIDN/ZmZ2MBjAd6domtbtdObnFzBGW1tb5XI5DENKaaFQUBQl5XxnZ8e27Xq9PrmMswIRrXNzc+vr691u99vf/vb09PQ73/nO2zsrYZSkENI0zUa9IRESXCiKSimVKO4PBkmc3GPMMZbZk5MkjaKI7p4mtxsSB4C4du2aqqqFQgHsEzgSVdf1UqloWDqlFBOMJCGYMMYyOkEKmWUSZswjyGnGWBhGcK4X51zV1DhNnnzyC4+dfE32gWx8Tpw4UavV4jiCPHpKVd/zDh05vLx8WI64FzTp8fnGN77RbXcowgThfLGQpbpNal+U0vn5ecH56o1VxhhLkkRIMQ4BGLFXe55hICfsxXuM714jfuepRbtzz76v3M27FjkOsUBpmoLNcf/990PIoaZpcLghJKchhFzXvXHjRrPZhCAez/N2dnauXLkyGAzm5+eLxSIc5AkH3nLOgdtijF28eMm2nbm5OcuyIBQWUA7w1Swrc05NGnZZ9x3HMQxjdnbWNM2tra0LFy5MGD8TiorEkIKZsyzP92ZnZuGwP1VV4ziljJFdp+ieIgmDi0YiOY6aQehWfGfiBtIICSH5fF43jDgIwZj2fM809Xw+b1kmI6PjaOIkGWVJTkTXZeHdkE6VJMmYFxkFIBi6/vWvfd1zXdOy5OiAwxFLODM7s7y8/O1vf6tcLsVxoihKFMcPP/ywqmpwxizGIyYGuvHVr3zF1HWepqvXr8/tW8jl89nhLZOaBaV0YWEhiRNGFSYRSpJYpHIciQPDtreigu4u5u9d/nmf+r6egEbAooViGSHSbneffvrpubk50zT7/b5hGOVyGfLk4Vz9JE57vcHszEwUJlKgfQuL/X7fHgw995JpWZRQRFClUpmfX1haWoJvg1AYo4wpjM3Mzhq60ev3up0OzEC90bBtGw6Xy4TKbd33PC8KQyR5r9suVyqmqb/88stpmqDRsGe2ZiZl0dT0TGNqZjAc1mtVKeXAtpMkLWh5hCZPZ93VPdBI4HGMiURYIkj03GPuJuEOR2wjhBilSs4yTTOJE9d3XS/wvEDT9UKhUMjnJaF4IlR9sobsSmapw1uIsFVV9caNldOnv/2GN75JCIEpQ+OgcErpyR849dQ3n5JifOAEVU6e+kEpd2UWRpgLDlrKubNnIf8ujpObq6sLC/sKhUKSJuIOJyhTlIXFfYwxBrRjEidjbv7/p2Wky3Iu5ufnt7e3+/2+O7SvXLlSq9Xgu3WGwyFsx7lcPk2ToeMmcZIk6ezs7NYWgW8pKRZL165dY0x5xzve8Y5/9c7Dh48Ui9/T2bRXa/bS+uI47na71UqJMtbtdGr1+sLCgqapaITCSYhnPiN8aHn52rWV9Y2NhYWF7Ps2JtbP7bo4GX/PG8JEIrT7fW17tRAhNDc398gjj7RarX6/ryiKQpkQwjAN3TTCKBwOh1EUgUtF1/Xm9DSaUDvHz971duIx9MFVCXsgGCef+9xn3/imN489pBKPtGP8+MmTpmmknFNKkyRuNBoPPfQQeIalBKE/0kCe+sd/HA6darUMpAhC+ObNm5CpxNME9JBs5IHFYgp8/Q3njLJJdN/jsKX/WsvuIt7e3p6amioU8ms3b3iePxwOh8NhvV4vFAqgYYvR121qPBWbm5sLCwsHDhxYWVnZ2tpSFOU973nP+3/xFw8fOQz13jue+84yadXdJufgCIp2p6OqKlCWlFJIicCTjAr0R0qMsaqqSZouLy8zShzbnpqe9jzP97w9WyXH3jQ4Ol0iCHAdicM9m4oQ0jTtwQcfxBivrFy9enVlaDuQE4QQUhQFtj4/CKIw9H1/a3Pzlt0JISTRZDgpHnvvM4Iho/a/+c1v9frdSrkqhCATrt/lw4cX9+9fuXI5l8u7rnvqB19fqVTScSQFKEWEEIzwl7/8ZTRxjhclVAi5tr6OCcnlc5AFko0MqEoEfO+KqjKFkVFmNUII7XEWz61DeWfJrmdj/f9t2eWVwjC8ubY2MzOzuLgf+IowDNvttm3bMGSqqsZJ7Ps++Kccx0nSZGFhwcpZP/b2t/+ff/iHh48cTpOEpxyOYf++yuQQ3QYsVdPm5+YbjQaI8+Fw2G634yiCT0zcmBnoQlUUyzR1XT+4tGSY5ih0PpefIA1vn6k0TV944YVzzz/f7/dURVEVBd1lXrKLURRrun7s2ANvfOObHjx+3LTMIAz4OLLIMIxioVApVxhj0ai1kw2diLgdPyDTVcCbliQJU5TW9tY3vv51OUHPw3rQVPXVr3pVHCeqqgohTzz2mJSQfoqy3YwQsrG58eILLxiGwbnA4/PrkJQYyY31NfjCRCkFmUhxQggRRVVHwbWqoqjK7ojdU1+5bTohCAkChSdpRCnl3ucP3jq+ULIasnomr2SBXHdfQrtXDh48mCbJ5cuXy+Xy4uIipDukaQpJCRB6ZRrm6DxvQvr9/urNm0EUvucnfuI3f+s3JZJpmjJFoYxOHuw87ji65QeNf4PLDu0hvLOiMOYHgWVZy8vL+Xzese1+rwcx07f2KPOMi5dfPn/92tU0iXXDOHr0aLPZJFSZmp5hLEs7330QPFTX9cOHD3MhTn/7m08//e1Op6WwEeBuaxUeBw1ijDmXYZSomv7A8Qdf/4Y3PHj8uKZrEPUVxzGj1DSMSqlcLpVuH/RJiGOcwtxJKaW85dtLpJRcPPm5z4+RMwq4hb6/9tQpgnHg+8VS8fGTj+PdtbVeGwAAIABJREFUb/yRCI2+S/HrX/+KbfdN0wCnUpqmkqdIcsTTNIlurt6IwoDR0XEXGagIxA8p48IYI98rAz+DGoAPj9O9IFSXTnyhDMbjfOq71rXrjAANMisAvsm3d87QnQVWfL1eP3bsWBIn165dM01zcXFxZmbGsiyEkG3b8D3oYRgKOUow44Jvbm4yxt773vdm9vhty2n8+x5dAWvgzkCuW94SguHbkY4fP768vIwxjvY4YW+sWxOysfH/NPfmQZad1Z3gt9z1vfv2Jfe1KktVlbVLQgK1kAcZGAvj6Fa37QFjhjaYjkEwf2B77OkI3OGAYLqxPba63V5QxIAjMNgoBDTIIDYJIbVUpZKqVItqr6zKyvdye+t99767f983f5x3b77MLGhH9MTM3MjIyqy87y7fd77znfM75/xO/ezZs6+//vpbb71Vr9czmUypVNJ1nW7VSu/Mb8MYp9PpxcXFxcVDzWbz+edf+OlLL/1Mzi2ExFYeH+KcB36g6/qxY8fe9a537du3D4xaz/OiKJJkCWiYtj2o2HKQRUwSxOIWxmSIYEhVlFOnTq2vrdGYJRRwFYzxffffPz4xYZrm/v375+bmhsQUQ1gdY/z9739fIAS4+0BKQXoIwQiHYbiysuJ7HqWEsS22aAkS2RKxhowLdDdhSiwnPMTeixBqtVtXLl9ZX1+H/Wh2dvbo0aMQ7mExbXsy9NtGBw/IOOGaKysr9XqdDXqwyKVSkTEGqbaEkH379gHXPR7C13eJxWDtraysGEZm8dChS29duHnz5szMzPj4OCxFx3Ggt+3Y2BghFGNs2zawqbzvfe9LpVLQUmd4TNDd63aHILM4uwgOuq08ftvJGGNVUYvF4sbGhu/7k5OTi4uLmqbGJ2yL3qP4faIoAmpFznmhUDAyuUqlusMeHj6AUyCKomKx+OCDD16/fv3ChQvdbhf9LBEfOuBqoLwMw3jb2962Z8+eK1cu3166HQZBxNgwkSdKFna8suFPURjiofxYESOIqqatr68///zzH/jgBweJLlhggRnnhWLpxIkTly9ffvs73gEILKUEIbDYBSFkdbV2/tx5TVVBowMWGfr+QBnFOeF3Vu7MzMxLkpSkGw0ysZJ5lWLCt91jMSzfgBBfu3bty1/68p07d27cuO4HQalU6nQ6nXZ7anLqscce+18+8YlsLhuxCDqM3XVkAQwihCzdvPn+X35/MEgA7KXT6Xvvu3d8bOLylStXr1zxfP/+++//u7/7u9HR0eH+BDuuBw9JCH7zzTOc8be//e3Hjx+/evXqrVu3JicnIdBjWRaLuOt4tZV6vlAoFUtBEHQ6nZm52fe9730iTivAQ5Bfspj/6cfw6A3bOalUKpvL2n2bSlLPsu6s1IrFEnSlwluqcNtFNE1LFhsk6lC6WVu547oJ9aTY8UHwtyDFPJ1O79+/H5Lv0M/dBhP7ASEC14sYjxjPF4oPPPiOubk9V69cXrp1C7qLbX1q+6P7vu8Ffr6QC8MIQ6eyGEZMiMGe/fa3P/DBD8YvhRFGgnGB8Tsefvhr//D1f/bwO0VSWYK3Eg9/+pMXO612NpNhcXOL5MpCiIgxGcsSob7r11ZqExMTBCr6EIqTDWMVpSgKVFxsW6nb9TfI99///d9/8oknHLv/yC/8QrVSbXXaoGtv3rixurr6uc997qtf/er/9eUv3XvvvTvSaLfNYpyq+td//ddAe4AxohQFQVBbWZmenrnnnnt6vV6z2bx8+fJTTz31h3/4h+hnqKJtMy34xYsXhODHjx8/ePDglStX6vV6pVIpFAqSJFGitNtty+o1G00WMeBZPnr0KLQhp0NMrfCdUrqysnL+/HnOueu6hIAVTnK5nK7rruO6nhP6EWNCCI4Jec973zOcVjksr1EUZbNZRZE7nQ7gHvX6ar/voIGFs2uXE0iSJeiCAv1VKCWcC9/z+O4AvhgML+TBU0r7/X6v19M0bWFhAXpRbBuveNLx9l8RTpJPMBIiDCOE8OjY6MhIdWJystfrbcvaGCzgATph2VbX7BlGWlEUSZJ5uFUiCFJuGMaZN87cunlrfu88Y4xiguKY47ET9y7s37946BAY4gJjJASKLZkffP/7LCbmBDM4YV4HvQy1ARKlVs+sCTE9PQ2O4JaIoxio352tOnwCXPGpp576xBOf0FVd1bS1tbW9exc0TfM933VdIYSu6wcOHLh+/fov/dIvfec733nggQfY9nZKyZTDPnL9+vWrV6+NjY1BTlIY+lEU9XrmnTt39uxZmJ6ehql6+umnH3/88UOHDiV1Kz9rc8hksqqqLi0tua573333HT58+Pr1681mU9f1VCo9O1tOpfRaDfm+12g0oObv4Ycf3mE3ozi+febMmU9/+tM3l5YyhmFZlmWZMJqjo6NHjhxxXbdWq5kd03U9UDmnTr+WzWZ5zF2ajCFCyDCMYrEIbaBN01RVrdvtQUdZIRKfbVtgJZvJQg6Wpmlxf0OHyHfjNMRIcIEQArpGoEkCyj9N0+5aLTX4FWN5QOMGEdF4YAWCfsQIocAPKCXz8/PDbgDehYvDnzY2NqBJqirJCKEBqeIgi4mYpvmjH/7gt/f8GyG4wCTxx6YmJ3/rX//rAScWrO8452S1Xn/j9dcz2WwyNbBgEkNuy2jkXJLlft+p1Wpj4+MYQEMoWE4KJXa7m4kwgXy/8sorT3zyk4qsaJoahuH6+loYBqlUKggD27bz+bxt22EYTk9PO47z8d/+eKPRwEMJW2j7tuC67pNPPlmtVEAsKJWCICCY9PvO9WvXnL5dLBZLpWI+l1++vfzHX/jjYf2xXZ1vTR4U8lAq1Wq1l19+eX19fW5ubmJiwvM827aCIBgdHbnnnn3VahV6nrTb7fHx8WTKE9GEW3zpS1/qdDp798xrmlatVmZmZgr5fCqVcl23Xq+DCbRn757p6alyuTQ2PrblSw09IfwAdRhG2sjlctNT0zMzs0B9Ed96p60CqwI6qQNlpqIowKBLtmynZO8a/BtF0e1bt2u1Gmc8nUplMxkSFzcMexTJ7r25uXn+3DkhhKaqiUMT/5N4ogM+ZcAkks8mOwAaWAGqLEmapnmuv1KrNZutIAwHlZgCgSlPKXnuuecQQoRQcFdhtNPp9Ec+8pGtOY1NBiHECz/5SaPRkIa6avGYRZrE3VcGJgbnLGIICdu2G5ubAFnIkiRLkkKpLEmKLCt0F4tD4otgjMMg+IPf/z3OIolix7GphHuWubZeh/RiIYSm6ZCXJ4QYHx176+LF//jnT5JdhVgiZpT8yle+8vWnn+aC67ouSRIlJJvJp1KGquhm17x06WIua8zPzmYMo1Qsfuub3/zOt79D4+Zg23XSVvBBVrRMNl8slSmlnU7n1VdfXVlZmZmZmZqa0jSt0215vluuFPfds7C4uAg1naVSaacRJQTgiRiThb17WRSoikQJzmYyhUIBI8SiaOXOnWtXr46PjaVSuqopqqYoipSskOEnhNdvt9tnz7xZW6lHAVMVrVgs7tu3L78dhtt6H4w55xsbG+A4gpWlqirjqFiqULoLNExkA2Hf85aXbi/dvGlbtq7pWSOT2OLDjwS/jo6OXbx44fkf/uDalctYcE2VkWBCMIQGbe3j2DhlTORyBSg/37GA4Vc/8BVZyWbyuVxepkq716uvrZv9foQwIlQg4odM1bWz585cunQRD9IDtzLGklYtycXBbvzhD38oy3IYBKCwwRuGUg8wBJKTEUIYcYqFYGGn1Ww1mlvAnCRJiqIoikrpTi0OgwJe1/MvvPDKK69mM2lY57BZrK6uRVGUTqd933ddJ5MxfN/HGOdyuVKp9PTTTzc2GwkMJ4bKNzY3Nz//+c8TjFvNVrlcTqfT0F9qQECFRK1Wq9fr1ZEqaNxqtfrkk39uWVYCfO5eORhjy7I458VicWRkRFW1fr9/+vTp8+fPVyqVcrkcBEGz2ex0Or7vl0rlw4cP79+/fzcHGFy81+uFYTA+MT45OQVMJoqi5HI5qJoLw/D69etQ86rrOtRo7zBOhg/P8+r1+uXLl8+dO3f9+vXNzU1JkgB92nay2FpjnHOoYYFaz1wuhxFyHGcotSqZp8GKopQWCoVKtdLr9S5durS+vg63ThT58MwKIe6998SRw0eazeabb7754x//+ObNm2D6YzB94tQCjHEQBIcPH8ZJEeeQFwe/tlpNKPkBepxsNss4bzQa62vrwCOAEMKEdDqdZ599Nt7bty6SLJVhIVldXX3jjTckScKxc5lUJAGaDPqOcw7lMjBokiQhjIBseSDlSTXn7olJdJIQ4h//8VnGBzA/PDGltNlsbm5uFgoF8AAyhiHLMoTKp6enG5ubL7/88o5xQQgRQv78ySeXl+8IIWr1OoyL67hgZuiaDrJ+5cplx3Hm5+dHRkby+fz58xe+8pWvJNvCkC7ZQgw8z/N8Hw3Y5ErQiPDixYvnz5+HkjyEUL1esyyr1Wq6rruwsECHegQPH47jXLt2TQgxOjo6PT0Nj51Op0ul0shIVVFVIcSFixeiKJqampIkSR+irt4hTAgwXcF7vd7q6uqdO3cuX7p04cKFdru942SwbOEjIyMjpVLJ9/16va7r2tjYWNI/cfhkhBB0z0CDaKUPqQGpVOrWrVtXrl7Z3NxEuwwV0Ii6rv/O7/yO03ckSTJN89VXX/3Jiz9ZW1sDrQeAoESpbdnT09PvfOc/E0NJlMkBonZr6ZaiKCxuPwstHfWU7nru+vp6s9lkjCEkUqnUC88/H4ZBDI5tCyYOLx4hxE9f+una2hpcFgKCCKE4n1EAoZeI2epQ3DQ0iiK41rZoSxK72THNcCfYMi5cuEgw5gJDA1xCCCZYCL5082YUhvlc3nFcWVVkRfF8v9szM9nsyNjY2bNnxNABG8K1q1ef/oe/n5ocF5wBS3I2m00ZqUazWSgWBh2lhWi3O1evXpUVZc/evYjgQiH/5S9/uV6vk52MIlswCCSI93q9wA8VRZ2emkmnDMb4xYuXTp48JYQYGxuLosjpO41Go1arAZ3SbqHEGFer1aWlpdOnX3c9f2RkdHp61rL6nucXCsXx8cm56Zl8Nhu4/ptnz6aN9MTEuO95w1fYMZKpVEpVVKg22tzc7Jrm2tqa4zg7RTzOnhAczc3t2btnYWRk1Ehnbi0tB0F48ODBfQsLBJMdJw+lQnFZppJMgX+vWCy6rvfSSy/hoTrIRFOC1fevfvVffeFPvtCzep7vEYFWV+ov/PjHLzz/49XVOiWYRUGn0x4dG3niiU8ALcSw1ksuBWQKnAvGeRiFYRQJLhRZKeYLhVxelmWzZ25sbHQ7pq6lLpy/+ObZN9Eg5rAz13p4Z/jhcz+Q43giqGMg+IUnxzGhHI95G5MdIIoixNmWFicx9cRudzNZpkIIs9fDhAiBESKDPQxhRVF7Zu/0a6dTuk4I7pomlaisyK7r1uq1yanJZJEOD8qz//gsQpwQLEmUcd5sNmVZNoxMxCLHdXP5HOeDTef69etXr10xMsY999xTKpeXl5f/9m//Fm2vpRgOoS4uLlYrVcEF5wgjomn66OhYxshqqtZqtqF1xJ49e6D8hDG2tLS0vr6eTFXy1oyxSqXy3ve+99SpUydPntrYbGRzuYV9++y+U6uvqZo+MTGeMTJIiM3NzStXrhYKRXBb0XZ9Obz2yuUyEPgLIWzLMk3zLuthK0EIL91c6nbNbCY3Pj5RLJZvLd1evr2cMTJbSfa7DBVCiUAiCHxJliRJzuVys7MzkCq4Q/smyo8x9sQnP/nc97//+L/8l5OTk9VyuVQomp3u6ddOXb1yeaRa+ef//Ff+7b/938fHx5KteIdZL4S4ffv2oUOH7n/b/bIi+0FAJAoul+ACmptmjEzEomar1Wq1ez3re997Dg+BdTtEDrTqxvrGyVdfVWUFYDTwMvEQ5QsZ6kQHhg24Cggse8EHOjuObgzIP9HdDniIlK5TSiE9gxCCBMcEA/q4urp66dKl8Ylxr9nUdR3qu6B9K5RGD29DGOMjh4+Uy5XNzU2Mse/5Kysr+XyeElIoFCDiaKTTvV5XVVXLss+fv1AoFCH0U6/XDx06lAzxQC4xSqhLdF0/cvRIq9lardVdz4Xy/kwms7q6att2t9s9ffr0PffsGxsba2w2wT6+devWsWPHhqUcrs85/9znPmea5unTp69fu3b02LGJiQnDMC5evNjtdvfMzy5mMpl8rt1uNxsNe2JiZmZmR3vLYQmGZ6uWK2ASRJxBqdHuwU5+Wl5evnjxIgTtdV1PG+larWZZFot7FG652XFJYRgEgDZQIksa1XU9lUqZVu/atWvHjx9P1t5uKX/wwQcffPDBfr9vWzYSCBPMOEMCVSoVSR70KkvCLjueGGN89uwZjPGBAweq1er58+drtZoiyTA9YNsYhiHLMsBKTPBvPPPM7/1vv6dpmtiJHKBEgl/86YuNRqNSLkdRKARPAhdJ563ELhAxDA3M8ZDghBCSms1WsVhIAp470OvhW8KqmpmZOXPmDKUUuCgEGoQJCCGKql69coULkclmAGzGGEdRdOfOnampKbhCkmrCGHv00Ud/8IPnvvvd72q61ozarut2u918Pt8xuxMT47XaajaXYyzyPK9QyHe6vVMnTz76i7+Yz+c/+tGP/sqv/EqSHTAsFXCXmzdv+r4/MzOTz+VWVlZs2w6CQFXVqenp1XqNWCgIgxs3brqOPzExyTlfW1s7derU448/nrwsjmdFCFEul7/2ta+12224I3CYcM7DMCAESZIsBGIsiiJGKZElOZVO7xZxOICmS5KkUqlECHE9r9Pp3OXMrWA+woSAJQNkqBAAarfbnrdrYcSfIpQaRkbT1DBkURRtbm6Wy2VZll9++eUTJ07sFk0Ru0YgE+l0GvJ5hg821Ep8x9uB3Lfb7TNn3oTqqkwm89BDDy0vL184d951XV3XoRIKaiPy+bzjOL7vn7tw/uWXX373u9+9YyqT58EYA7dtGAaMRfAAw88MsATk0EN2OOAfSWGrJEnEdfutVgMhQSkmBFG6pRp3D4QQ4oEHHqCU6rouSRTi5RhjhAhs+kSWrt+4trq6CgxYsCFYljU7O4u3HzB5v/3xf5NKZ3w/0vWUEGJ5eRl8iHK5ks/n+n1nfHySC+wHkSJLzVbj1MlXBGcf+9jHdmuR5DkxwrduLl04d/7WrSVFUfbv379v3760ke67jkDingMHJiamUrpBiLS6uvbGG280m80TJ07cvHnTsiwa01on33FM5lYsFiuVCpBLGYaRzWZLpXKhUM5kctlsrlAoVSrVYrGcyeYS1HVYDnCcAzg1PZXJZZng5WqlWCpms9mflx2AkSRLhWIR+n74vu95XhiGSQnwXQ/OUcQ4lZRMJpsxMsAWJEnS6dOnAS3h29sQJM+ZCDHffiS6aVi+E4MTTJcf/OCHptmDBc8545zPz88/+u5fnJ6Z6bsOoYN8LFgq6XS6UCgghL761a/edUMYWCkb66dOvqLqChMM1CKOvXaYKXhg6OUrhBgEOGOKLCGE53mEUuK6bqvVFEJA3CfZpu8iPRi///3vL5fLCCFVVYH0WkDcGA+y4gmha2trq6urwAQbhuH8/PyePXv49gZ2oDMWFvZ94AMfwJhomiqE6PV6UJTQbrfn5+ejKGo0mxMTExKlqqoY6fSFi5cgiDPMPBjb4lsYLWOs3W6fP3f+zJkzUJ68d2HhwIEDVJL6/T6Uwaf0FMT8arXa7du3TdM8c+YMjmGf4YkkcZvJ4YTeZHNMft6R7ovxNhcKfobKmtnZ2bm5OeCaMwxjt/MzHP8xDENP6VCoD91UVFVNaOLu+jGMcafTuX379vXr1xrNRhiG0IrD9/2vfOUriXxvPaEYqAYcTyTBZPAFeMKWdblTAwJ4cuPGjR/96MfpdJoxLmJzEXruPfDgAw8++KAsK+DQJ/uAJElZI3P69GnwHXeMFQzmiy++uLa2qigK294MMRleEANwIDHGsHqTJBYQ9wHKCBUDw/vFblMShHJubu5DH/qQbduAEIPduQMNlCTJcZy1tTXf96Mo+vSnP50weg3bf/AyH/7wh+fmZwmhmUxGUZS1tfVWq+X7PsJ4bm5OxPE8eOi9e+Z/67c+yuN+ecMitTXBCGOEgyDwfX95efn1119//fXXV+6sSJK0b2FhdHQUITQ2NjY/Pw88OIcOHSKEXL506W/+5m9g8xmOayTiDgojmWU8IBlGsVuytdaSeRr+Ha7mOM4rr7yysrIyOjo6Nj5eKBSKxSKUS991X8IY67quaZqsKJqmFUtFXdcVWQnDcCuvd0g2hueuZ/W6XfPO8vL1a9euXbsG1GXnzp175plnQBS2lA5AMTgexeEvhHaHXMVQNYMkSX2n/9RTT4FtAJsf5wNLA7K65+fnH3nkkfHxcRYNUv8Hciz4kSNHAA1MxioZdozxc9/7HugNhBD4HhghcC6jOFk30SwJQA5bXPKCW80DwjDc3NyERoy7Rzy5MWPsd3/3d++//37LsoDRHVgkE2wSRg2yz2u12oc+9KFf+7Vfg8WTvAaOLV3GWKlU+thvfUxwhgnSdS0I/Vaz2Ww0Oq1WqVRKp9MbGxtUknL5guO4n/nMZ6ojI8ncbNPiCWSGhaLJiiIrqkwI7vXMlZU7b7559tVXXrn01luC8Uqlkk6nR0dH9+zZoyhKo9HYt2/f3oWFl1966U/++E+S/XSHutohe7vFAWOc+NLobjoCxjkKwzNvvHHmzJm0rk9NTVWr1btkLw/5FZqqypJspNOqqgZ+kMvlUkZa1/UhdHP4JhghlEql5ufn87k8IaTd7TTb7fpqfX1trbG52Wq2nvriF7/33e+CpzSApIaCLz/nSBQKHrgioSRJzUbzs3/02VazpapKFIUYC4S2SsvgeVzXTadTb3/H20/cd0KSpCAMEEICiSAIH330UbydJi2xUprN5qlTp3R90JSUIS4pcsiiMIoQQowzPMSdAib4FpAylKRFIKDIY+6iZrPpeXfpNAIzB6o0l8t98YtfXFxc7HQ6UIMICZ/wZLBxcM5N03z88cf/9E//dIeOH74myNO/ePxfHDl6xPc9I5OuVEq+57uOa/csRZZn52aB0UrT9Hc+8gv/0wc+yLaTIw9dLjZUMNdTmiRTRZE1XdVTmqrJYRi2W+2bN26ePHny9ddfr9frwMC4f//+VCpVr9czqfTxY8e+9tWv/tn/+WdJ8GzH1CJ0ty8Rfxco/o62fo1PgHdXVNUwMpTQq5evnDp5ijM+MTEBXLuD8Rl8dpCSJbgI/EDXNBhkYOfCBFM5LrQVaNDHSwwhKmFYrVbf9ra3ze+Z11MpgYXd79dWandu31lfW2tsNv7dH/67v/iP/ykKBxmgCUnDsBm2S7AH/8NjGjdZls+eOfu+xx77q7/8yzvLy0JwWZY430oXGdZEYRSFLNqzd+8j/8MvjI6NhSxinBdKhYceeghtp0pNrJSf/vSlWr1GCPX9AMQljCKOMZUoxpiSQWuGxA+GH6DeACEEnCIYQj+lUgmehsaEIehu2mt4O5ibm3vmmWc++MEPBkEA2ZWgpIHkt9vtSpL0R3/0R1//+tfBNydDjCLDizVR+U988pMY4UajARvL+vr60q1bN27cRAKpqgqMtZ/5zGeAomj3agHRHlwZYV3TVVUFp9AwDIwJkKyCZWVZ1rVr1y5fvnzhwgVoh6Jpmh8ECOHFxcVvPPPM5z//f0B3yWSqQK9H0eCLMc4YH/zK4u8sYpwzzhgf/Lr1p4jB0MuSlM1loXfP8vLyf/2vL/u+r2sa9IjinMefHXwE0B5IWJAkKZPJQIdy4IiLoKFOxAYPwgd3abVaP/nJT1zXPXr06EMPPTQ/Nw9cMZZtWZZl23bEoqeeeup//dSnXn7pJSEElWhi+CVb/HCBIfwk4lAREAZ99rOf/R/f+94rV66oqvraa6+9+OKL7XY72dJ3TBMYdAC2vOMd71hcXOz3+wt7F5L+rMNrDPTXN775DSGgjzMTQpBBc3QEPiU8EhqCw2FhgFm/zVWA61ar1Y2NDQhwJiK4Q4SSJwYNVyqV/uIv/uI3f/M3v/nNb548eXJ9fd11XULI6Ojoe97znt/4jd/Yt2+fiHOtxC7gM74FJwRzzt/5zkf+/X/496+99pphGJwhu2+rimpkMtWR6gMPPNDtdo8fP37//fcnVvhO+UagzAb2AzQ713XdcZx8Pm9ZFkae5/kAt2OMwZEATxyuCbBDEARj42OnT79Wq628+93vfvjhh8G3/u8/YPecnJycmZ52bIdS6vt+p9t99dVXP/7xj/8csqSpqanLly9DmVI2mw2CQPbkIAyz2ezuT8H05fP5O3fuQJHYkSNHCoXC9PT08q3bEEk1TRMWzAs/eeHy1Sv33XffI488cuLEiZGRkf8mZ5NlWRcuXPj2t7/9jW98Y3l52UingTRGUZRms/nCCy/s3btw4MB+VVWTRq/DtjVY54SQw4cPE0IeffTRJNUETk6slFar9f3nnvNcNwgGdT0hCymlBBOBeRLrITEHIkJIUZRhewRwcEII/shHPnLt2jWIDjSbzXa7/cQTT3zqU58abmQ4fCTrQ8TgJUKIcw4+YgIGoXgH2baUd4mmEHHi+88AknedvDODb8eTYYwF54/90mP1eq1QLIZBiDE2jHSz2er1euBNwr0MwwASdNh8RMzokM1l06k0pVQgUSoVJycnK5WKJFEuBIsiVdMwwpmMwRjv94E6WXDOECK6po+MjGCCbbvvuk4QhAiJIPAwJr7vCYFkRVlbrW9uNrodE1oxtdvtMIre99hjv/jud1crFUKJ7/mbjQ27b0tU4oKn0+mbN2688fobFy5eVBUll89VKtVez0QIffjD/7OiqJxxIYQf+JRK5VJJCGHZ9q2lpS9+8YtgcI6MjBw+fHh2djaKotu3b9dqtV6vB9CZoihpI63IiizLRjbt0GRqAAAXR0lEQVQzOjo6MzMzPT2dyWQS7B9j7Pv+jRs3lpdv375969aNm7eXb7u+n9J1VdUYizAmlJIwjGRFZlEUhmGhWDpx4t5qtQpbU4I2JvAATFcYhr//+7+/uLg4rLZEzJT7rW996/HHH6eEIIzy+Xw6lRZi0L0WTpMkiUVRxJiqqtBZQqIU+ugigRiLKJW4GBRW0wMHDpw9e5YxNj09DVYHupuhMrzOEtsaFhCltFKpJJKWmEc/Uxy3XQ1hPPjUsBDvFvm7xh2GRByqQIVAiDFumj2Mia7rmUzG9wPgeYOKRuBR8TzPcRxo9gl5F/CfvueziEmSlMtme6Z5qWdGUWRZFqx/eABgwu92Ohubm4wxz3OjkPt+MDU1deLECWDlZIwHgdd3bOh/FIWhQEiW5b17F+7Zt39ychJ4FT3Pe/rpp7/+D1/fu7D38OHDqVSq2WpcuHCu1WpTSjAmR44cPnbseNpIX7hwAZo2QU+lv/zL/9y3+0EQaZrmOE6v1ysWCkeOHq3X65D+vrGxARW7Gxsb83NzBxcXIZ14aWmp1WpiTMIwtHqWEGJ2ZlZVlM3GZrvdhuImGjfRhDGv1WpvvPG677u6oimSrOk6eCZg2fp+KEkSZ0wIkU6neqb5ox/96MCBA4uLiwBj7PDEMMZRFOVyuZmZmQQwGJY3jPGzzz4LW7FlWa1WOwjCjJEmBLO4TTNk1UKxD3w24jxBiiRJQhg7ltNud+h9991HCPF9f3V1FZDaw4cP33vvvWJ7fe6wrtzxuIlQJobUsC3x39LNAy0ew3Ak2dG2QO+h4+deMEajufj601/fWF+HGC+4Hel0Op02hBAQLoa6GIyxbdudTse2bcdxwjCSJcmyLMaY7/uu50UsZIxB89uxsbF8Pg+NjQghCOPR0dGJiQlZlgVCuVwum8mGYQjJlTMzM4oiE4pTKR2I5iDhWwixtrq2vr5BCYX+prCl6rre7Xbb7XY6nZ6dmd67sKCqquf5mUym2+0CO3i1Wu10OmBNSZJkGOl8vkgIFYLn8wVKB4lGi4uLuVzONE1KqaIoiqJA8urS0pJpmoaRGRsbzWSyvu9jhB3HwRj7fqCoKvBwDCpjKFVUFQp8VFWdnJycmBjv9UzOGBIIEzKwzpHAaODCweCHYYQJlSR5bW11dXUV4PzEnU0ExnXdI0eOPPLII0kUAg1ZKZ1O5zOf+Qy8JsS8PM8LwwBq56W4R0WCEoJ7EKMrLAwjhJDZ7ZpmD2NEDx8+LMsyWFSrq6uu6z766KOHDh1KshF2HImc/ROPnyvfaDfc9vMv9XMvuOVufvu//Bfox9Dv9wEgD4IgldKLxUKhUAAnG8VmEkIiYqzft02za/bMMIy63a5t25ZlmT1z4EB3OlEUgQsLsAbnPElYjcLI932MSSqVCoJgY2Mjl8uNjFQty0JYRGHkeR6sW13Xi8Wi53nrG+u2beXz+Vw+l7gEtm3XVmqdTjufz4OG63S6mqoFQdjYbFRHqrOzs67rdjodSqmmaZbVC6OIsYhSAriTbdu9Xm9hYYEQYpomNBjjnMuSTAiu1+u1Wi0Ig2KhUKlUAJlMpdI9y2w0GpVK2UgbsgwZfDwJksCurmlaLpvr9SzHcfwgpIRiQljEhECcCxJr4rgQTsiy5Hve7dvLjLGRalWilA2FnIIgeOyxx+bm5hIrBQ+BMD/60Y++9KUvpVNpyJBJpVIYIdfzHNellKiqBokKgnMkBukDLGIEkyhiEFrudLqO44L8Ul3XS6US1AUSQm7fvn3ixIn7779/ZwbI/x8OgWLewp/1Z4QQwgSfOnkyTk1GEFRz3L7d7zmuk0qnS8USdH5jPJIViQtOKcnmspJEGWeMRSwSnLMwDG27b9v9ft81za4fDAo9Ib2k2+1yzgHrGB0dVVXdc7wgDOCmzWYznTZmZmcE52AXIYQgiSKfz3HOFVVxnL5l2+Oj46Ojo6ZpAk4iSVKr3bp9+5Zt2+Pj4/lc0TR7sqRIktRobBqGMTMzE4YhkKIYhqHrGpWo2TOFEL4/oPXpdDr79u2D1t3Al+v7vqarqqYiJCyrt7paVxR5cmpC1dR+3xaCMxZZVk+SaDZrRAxGUmA8qI9ECAmBjEymWK74QdC3+4wJVVEJJpRQjKCygSOoVUOIsUgITikhmK6trq2vr+XzhUw2k9TsqKr667/+64CW7sjrIoT8yRf++Py585qmYYQpITxikiTLkhQEgeN6ggtZVggmhFBIriSEYEIQoggh1/VM0/T9gJCB1qSTk5OdTiefz1NK0+l0p9M5duzYAw888LMMlf+Pj5+hxIHGY4BpRuzUyZNsUCZIGWNBGEZR6Pt+v9/vdru+H0B3wlK5pGmqrusJ2KTrWj5XgEpesEdBrwRhEAQBwBHdbtfzPGgyIUlSFEamaUILRXDqQTusrq6l0+mJiXERY9Xg1EqSDM69JEm+59u2PTc3Vy6XW60W0Cvruo4wgnKnKGSKqkBXGU1T1tbWFUWZm5uDZqrQaBxagiCEJSozFkmSBMjgwsKCruudTgfuBX8CLALM6yAIIOsGrI4gCKBsArAaQsiWqRObpildL5fLhXzecfrtdpsQIisyqFIqDYCHJJYehiHwi/T7/ZWVO4RSIE+FApdf/uVf3prVWIsDa8AX/sMXNjc3odxkYP0SLEuyqqhRxDzPDcIA+j7jpFMkQgghmKCIsYTAgmBCH374YVB4+Xwe4lX33nsvGCpoW9Rjiy5n+Bg+5//Z4y5XhgDKzzPFEUKIcf7Xf/VXuq6D8SoEyhoZWZEHcG/EWq12s9kMgiCTMXRdzeXyYPPl83lFkTnnBNN0OpXL5TRNU1VVlmWERBgGMSAV2XZfURRCsGXZnHPP9yzLpoQWiwWMMWg+MCRkRRofH4d5BTcAzJtB5Q5HwFo/OztrGEan04kixng0OjaiyIrruk7fBeuRcwaWkm3blNKxsTFoSgrbr+u6kiT7ng9IKNyu3W5PTk6WSqV2uy0EB540mEdgrYC2R5lMBjouQAt2y7J6PRveHTw5mHfAWDDGiqwU8vnR0VHO2ObmJmMMOqclobdh25oxMUCiBbqzstLr9YDv6aGHHjp8+DBjW90GUZwGcvbs2fPnzquq2mw0k0Zrgg/QZ1VRGGN+EERRqCiKJEuxBUssy+71ehhjkO9EUuixY8dyudza2pqmablcLoqi48ePLy4u0u1dnXCcpLHj+Kcb5f+vHZSSJ5/8s+Xl23Pzc5mM4biOH7hQSqgoCpD0MRa1W03T7IZhBC+uaZqmabqekqgky4qiqEIIRVE0TUun04VCnlKiKEoYhUhg3w8CP0QCpdOG4ML3AtfzTNMcpLkbRhRFQRBIsuS5vmX1R0fGCoVCGJsxlmUJIdLptESp73t239ZUdX7vXkppx+xwzl3HK5cqeioF4ICmab1ezzR7Tt/BCPuB77puoVAolUqNRqNYLObyucbGJqE4l8tRiVq2JVEiBN9sbJZKhempqb7jRHFzUEopcDcXi0XLslZWVjzPK5fL4+PjoETNnun0bU1V0+k0JphFDIw9jDEgJF2zqyjqzNwspXSz2YgihglmUTgsqaCTwG7hnGOCKZW67U69XlcU5aMf/Wi1WkVxXHP4+Na3vnVzaWlmZobKtNVqQsg2Ua8IIVVVCcau73meSyVJUVTGhWmaVrybgUofXA4h/OEPfxhj3Gw219fX9+3bp6rqfffd99BDD8GGCwsU3Gpok5BYL8lGhob4ohLtm6BOKPYwhiNY8NlE/yYIY7L6If4HWVzDvBeEEIlKGGHOBwajJEsEYQblPYMkAvzou951+fLlxcWDR44ctazezZs319c3gNwQWvlYlmVZPUmSwUkvlUpjY2OKomQy2SiMIGLc7XYdx4GdWpIooCu9Xs91fOiaIstyJpMtlYqWZfXtft/pM8YAax8dHYWTZUmWFblSqUxOTXAe1Wp10zShbRA0olhbW/M8T1HUe++7v1AoXLlypbG56TkewqhUKnme12w2QRqazaZpmgQTPa3JsgS1pIZhQPGy53ngJUN+Hyh7GO39+/ePjIxYlgVNWiAoA8ssl8sBfbiqqgcPHpybm+t0OlBygTFeWNg3MjoObgmOdydZlrvdru/7oDJqtdq5c+fMbhca3wJsJ+LaRcFRFLGEcU1V1L7THxsfe+XVV4vFIop5axMh6ff7f/AHf9DtdgEkaW42zp07Bzl/kBUjYvs5CkPHdSPOgOAJuClhFWAsCIF6akI4x7/6q78KKxuC5NDhCUS52WxChjuYnqqq1ut1qHVIwrxAzwC2Jo+7O7NBIHnwD3QggJ+TA/TZMD1AskwRQrqu33fffZVK5cKFC+vr69D9ENCM+bn5XDa7tLTUarUg3yibzd5cuun5PlgCVs9cW1sF0qL9+/cfPXq03W6/9dZbMKnZbLZQKDiOY1mWaZqAjRBCjIyhqdr4+Hgmk1UVXZYowhga33DOJYkyHqVSKcaY5/qO4zlOH0zefD4PZMoAwoAAaZqW2APgVBmZ1MjISDaXbbfa9XodvFUwV5rNpmVZ1ZGxt73tAVmWIMYCnVez2SxjbG1trVQqGYbR7/ebzabj2kKIdDql66mxsbE9e/ZYlqWqquM4N27cgBwSHNfFQC1IPp+fnp4WQgBICoApcCeBKgGDvlAo7N27t1wur6+vLy8vS7IyNTUzPT0lEAqDACo/RIzrOY5TLBYNw7As66233lq5cxvgFCE4pRJCgjGOEKGxIodyfoyxqqu5XD6bzR47dgxaY+IYLouiqNvtDjYBLhRZ7na7586d6/V6kPi0FdfEmHHueh4kdeGBtSOEIBhzgrc41SlUc2GMDcNQFAXoGQzDSKVSUPoAOYPAGzY5OQmjBskeEH2F1h+AoUJkmAzaVQ6ojQnEMGIqUXhhkHjf92G7ANImAH2jKDJNc2lpSZZl6PcAKZCdTsd1XUKwruvQc7nb7QZBUC6XuqZpmj3T7IZR1OuZnEdQN9DpdAgh09PTuq7bdp+xCOAIYIanhEJ6RhRG8CLdbrfT7jqOG4TBcGzZD4J8PqeqmqZpAIqFUZjNZoyMAR5DsViQJDmKooScDfjc4I1s20ZIuK4XRQyagkNOBdTzKoqsKKrjulEUVqtVI5UOfJ9QCudAzQSoalg8MbQfBYHf6/VM06xWq5CFAikihBDP8yBpFKgQoKm5qqpA+wa5zZCLB+oWZrPRaECRFMS2+k5/bW0NynbS6bQQg0SmMIxUVSGE9Pt9zpmqapOTkxnDsCzbsnqEQK0MZJVtVTAkzXrCKIJu9Ddu3MAYg9T1+33HccCRANUuhADRGh0dhdeU4hbpmGCEMGMsjLb0eizoGNKbIWJOMKaLi4sYY1mWwa2GvmSdTicpbUqlUkKIMAyBuwN0NtAHw/TDFBJCNE0jBDOOMKGQ+IcJRZhgyLAfUHVjQgglg8WAY8iCxCXSYJyBdl9ZWeGcz87OAtQAtLEYiWKpUCjkg8Dv9+0g9DPZzOTkZN/uy5IcBkGpXIKID6B17XZbVdWpqWlF1syuybkIQh8hxFhEiVSpjFAqIYTDICKEciY8zwfspdVq9Xq9JGxh9y0kRCaToZTIsqQocsQiSomqKoxFnU63XCzDvg9pArDnwPh4ntczLca47/pmr5fNGiNxn3J4TsYZxqjR2GQsGh8bLxZLjDFojAhJywCGwH6tp9OMDWoVOWemaUInI8g5UxQF7KsoigaYTxRhjGEBW5YFefm+74NIgaAnnHKc8263CxUtuqpKEul02lbPxEgYRhojxFhE6BZtardrggLS9dSBgwcZF61mi4UMYwIEWolZjGI1K1EqUUlTNYxQrV5HCI2MjIBli4dCqmCXMs4kWaqOjHi+b/Z6jHPohByEoRfnEiYiNHQ7IjAiiCCE6d69exPLCXKDYBwbjQZQP0IHdYwxxJkAEcvlchBPETHcBjyomqrJsiKGPOvYixgUDRCyrYSExAU1A0nCGA9lv1BKNzY2oLux4zgwSo7jqIpcLJZAPwFEXSyWUql0s9nAGBNK0kYawFqIUzabzVw2NzY2LoSw+zZCA64ZLoTgSNPUbDYLMpFkXIJPBqu31+t1ux1FkU3ThBQAMM9AYYOe5lyEQViulLPZLIgOhEVRTKLJGDPNbt9xbMtKbFnIXO/3+7CpSZT2bZsxXq1Ukx0cgtX5fN7zPMMwEELAHMYYZLAxSCUCzD6bzcLG2+v1wD5JShAwxq7rOo6TpCgB4yG8L0IIlhwgSOBIOK4L2t22bbvfBzxEVhTOeb/fBxgKdoAwDIEm5cDBg/Nz89A6PZliMVQfSGPSNs4YyAR0ZRoZGZFlGeoehiG1xH8dGRkJwxByyKIoAkOUxBlH24VtK8cECUGPHz/O41plUJ+MsUwmwxjrdDrA7QT6NZG8fr+PEAJvA3xz0L6+79v9viRJWkyXM4TGJGVShAyBMwghQrAkyRjjRF8SQpLUWEmSfN8H84kxrigqErzXMw0jDTmD3W6HEIIQHh+fgDMjFoFUAQGd67phGLZa7XK5PDo6GgSBaXbBrLIs23M9QomqqsCqA5ALTH8qlYKYNqhh2+45juM4bqfTgebT4DKClaxrehRFzWZzbGysUqn0+4M9F8RICJHJZGCanb7t+Z5t241GQ5blarWaz+d9z3csOwpDzli71eZClMvlYrEI8B8YdUKITqczPj7uDZjGsoJz3/dwbPs5jtPv93VdL5fLANs7jpOk30C37yiKEmcXPgWNpsCVgpMVRYEzgyDo9/sICcPIEEIgtUFWlEwmS6kE9o8kSZDUmcvlbNu+tbRULBSOHjmq63qz2YTMYBTj5cMWBcZYcE4oAf91fX09XygAGMWHCnl43NZHCDEyMgL00+BcDoMQCYyRCD0Q+6dSKXr06FG4X5IdDHZ9Op2WJGlzcxOKC6F0dzgpzHGcVCpVLBZBAkDpCsEtux8Goa7piqoMLSyCSVwUCM8BP1KKMTClE0wIRIO5gE2GCCGQGNyRMQYESJRKjuuaXVPT9EKh4HuB7wUsYpIsjY6OmD2TEAwKL5PJwAMHQeC4TqvdGp8Yr1TKUOovhFBVzfc9IKkTAqVSqXw+n8vlQOFhjIvFYrlSyeXzGJMwioRArutFUQhun2ma7XYbSlRVVRmpjmia6rqOkUkXS4UoDPwgoFTKZjMAxhFCdD0lK3IQ+KAIgXcul8sVi0XOuRf4UMa1vr7OGKtUKtA8EbwC4KaybXt8fMK2bBZFpVJJkgbUIkA/izG2bRtQediEhRBQug+ONdi+vu93Oh0w1sEChOUH+zPAIKqmI4EIJlAmxhgzMgZGuNVs6pqWTukZw+BceJ4XBoFAKIqifC6HCbl86ZLjugcOHpyamuo7TtfsQggGDR14qG6QM67Iiu/5tZWVtJ4qFotc8MSqGVbSGxsbQBOCduXkJeaNGGKEhbJXurCwAJeD3RkWNCEEalpTqRTw7kGXeBA1RVFAg/Z6PQhDgMeQcMwFQeD0bUIIDO7gKQd5VhQTimNFjhAmlA5peEi+RYxzITAhW0EE+GsURWEYIoQRJu12m0VckRXP9b3AF4gDEQ8EtyFQAh4CqC7XdSzLmpiYAATNcZxMJq3ruuv2+07ftvtgXcDb5XI5IQQTXNEUjDFkLI6OjkLuKAiE67pgBdVqddPsOk5fkqmu677vplKpkZGqECjwA4xxJpNJp9NBEGCE0+kUlWiimKHfn6Io1dERWZYdz6VUguoQ0zTz+fzY2Bh4h+C6tNttSunc7Gy32+2Z5sTEmKKoAGJCUIlzDkksUPQJVV1Aa+F5HpwD1hH4+rCEwBC3bKvdbo+OjqVShuu6mUwWIez7vu8HnEWccyCF3Nzc2NjYMAyjWCxBwQqlNJVKBSGEY+TV1dV6vT41M3Xw4EFowOu4DhRBbxmlcZ0kipNjkUC1lRWEUKVa5XGdZKLLV1ZWlpaWwE4GRCiR7ESXJ4gcpdQwDFVVJUn6vwFZ+jsui8F0QwAAAABJRU5ErkJggg==;" parent="mbkqs_LI9Vs-7NMcBApT-1" vertex="1">
          <mxGeometry x="54.430000000000064" y="27" width="49.82" height="16" as="geometry" />
        </mxCell>
        <mxCell id="mbkqs_LI9Vs-7NMcBApT-2" value="" style="group" vertex="1" connectable="0" parent="1">
          <mxGeometry x="508.9" y="487.5" width="270" height="40" as="geometry" />
        </mxCell>
        <mxCell id="nqaRFmGrHPNLgWUz6itO-87" value="&lt;span style=&quot;color: rgb(102, 102, 102);&quot;&gt;User Interface&lt;/span&gt;" style="rounded=0;whiteSpace=wrap;html=1;fillColor=#fff2cc;strokeColor=#d6b656;" parent="mbkqs_LI9Vs-7NMcBApT-2" vertex="1">
          <mxGeometry width="270" height="40" as="geometry" />
        </mxCell>
        <mxCell id="nqaRFmGrHPNLgWUz6itO-93" value="" style="shape=image;verticalLabelPosition=bottom;labelBackgroundColor=default;verticalAlign=top;aspect=fixed;imageAspect=0;image=https://episyche-blog.s3.ap-south-1.amazonaws.com/NextJS/Routing%20in%20NextJS/71/thumbnail_image/726fe1ab-f90d-4bb2-96fd-f13fd59b02b0.png;" parent="mbkqs_LI9Vs-7NMcBApT-2" vertex="1">
          <mxGeometry x="27.000000000000114" y="9.5" width="36.88" height="22.25" as="geometry" />
        </mxCell>
        <mxCell id="nqaRFmGrHPNLgWUz6itO-94" value="" style="shape=image;verticalLabelPosition=bottom;labelBackgroundColor=default;verticalAlign=top;aspect=fixed;imageAspect=0;image=https://upload.wikimedia.org/wikipedia/commons/thumb/a/a7/React-icon.svg/640px-React-icon.svg.png;" parent="mbkqs_LI9Vs-7NMcBApT-2" vertex="1">
          <mxGeometry x="220.74000000000012" y="9.5" width="25.83" height="23" as="geometry" />
        </mxCell>
        <mxCell id="mbkqs_LI9Vs-7NMcBApT-3" value="" style="edgeStyle=orthogonalEdgeStyle;rounded=0;orthogonalLoop=1;jettySize=auto;html=1;entryX=0.25;entryY=0;entryDx=0;entryDy=0;startArrow=classic;startFill=1;endArrow=none;" edge="1" parent="1" source="nqaRFmGrHPNLgWUz6itO-10" target="nqaRFmGrHPNLgWUz6itO-85">
          <mxGeometry relative="1" as="geometry">
            <Array as="points">
              <mxPoint x="888" y="230" />
              <mxPoint x="534" y="230" />
            </Array>
          </mxGeometry>
        </mxCell>
        <mxCell id="mbkqs_LI9Vs-7NMcBApT-6" value="&lt;font&gt;store&lt;/font&gt;" style="edgeLabel;html=1;align=center;verticalAlign=middle;resizable=0;points=[];fontSize=12;" vertex="1" connectable="0" parent="mbkqs_LI9Vs-7NMcBApT-3">
          <mxGeometry x="0.4569" relative="1" as="geometry">
            <mxPoint x="146" y="-2" as="offset" />
          </mxGeometry>
        </mxCell>
        <mxCell id="mbkqs_LI9Vs-7NMcBApT-5" style="edgeStyle=orthogonalEdgeStyle;rounded=0;orthogonalLoop=1;jettySize=auto;html=1;exitX=1;exitY=0.5;exitDx=0;exitDy=0;entryX=0;entryY=0.5;entryDx=0;entryDy=0;startArrow=none;startFill=0;endArrow=classic;endFill=1;" edge="1" parent="1" source="nqaRFmGrHPNLgWUz6itO-86" target="nqaRFmGrHPNLgWUz6itO-10">
          <mxGeometry relative="1" as="geometry" />
        </mxCell>
        <mxCell id="mbkqs_LI9Vs-7NMcBApT-8" value="proof" style="edgeLabel;html=1;align=left;verticalAlign=middle;resizable=0;points=[];fontSize=12;" vertex="1" connectable="0" parent="mbkqs_LI9Vs-7NMcBApT-5">
          <mxGeometry x="-0.146" relative="1" as="geometry">
            <mxPoint x="-8" y="-1" as="offset" />
          </mxGeometry>
        </mxCell>
      </root>
    </mxGraphModel>
  </diagram>
</mxfile>
